<svg width="329" height="661" viewBox="0 0 329 661" fill="none" xmlns="http://www.w3.org/2000/svg">
<g opacity="0.4">
<circle cx="71.5" cy="96.5" r="1.5" fill="#9483BE"/>
<circle cx="30.5" cy="330.5" r="1.5" fill="#9483BE"/>
<circle cx="1.5" cy="459.5" r="1.5" fill="#9483BE"/>
<circle cx="56.5" cy="489.5" r="1.5" fill="#9483BE"/>
<circle cx="65" cy="509" r="1" fill="#9483BE"/>
<circle cx="14" cy="561" r="1" fill="#9483BE"/>
<circle cx="32" cy="461" r="1" fill="#9483BE"/>
<circle cx="10" cy="360" r="1" fill="#9483BE"/>
<circle cx="12" cy="248" r="1" fill="#9483BE"/>
<circle cx="71" cy="148" r="1" fill="#9483BE"/>
<circle cx="1" cy="94" r="1" fill="#9483BE"/>
<circle cx="178" cy="104" r="1" fill="#9483BE"/>
<circle cx="249" cy="117" r="1" fill="#9483BE"/>
<circle cx="257" cy="31" r="1" fill="#9483BE"/>
<circle cx="328" cy="276" r="1" fill="#9483BE"/>
<circle cx="160" cy="477" r="1" fill="#9483BE"/>
<circle cx="300" cy="556" r="1" fill="#9483BE"/>
<circle cx="259" cy="660" r="1" fill="#9483BE"/>
<circle cx="67" cy="652" r="1" fill="#9483BE"/>
<circle cx="316" cy="435" r="1" fill="#9483BE"/>
<circle cx="205" cy="383" r="1" fill="#9483BE"/>
<circle cx="32.5" cy="579.5" r="1.5" fill="#9483BE"/>
<circle cx="11.5" cy="264.5" r="1.5" fill="#9483BE"/>
<circle cx="187.5" cy="383.5" r="1.5" fill="#9483BE"/>
<circle cx="291.5" cy="457.5" r="1.5" fill="#9483BE"/>
<circle cx="326.5" cy="252.5" r="1.5" fill="#9483BE"/>
<circle cx="210.5" cy="3.5" r="1.5" fill="#9483BE"/>
<circle cx="234.5" cy="114.5" r="1.5" fill="#9483BE"/>
<circle cx="81.5" cy="1.5" r="1.5" fill="#9483BE"/>
<circle cx="98" cy="9" r="1" fill="#9483BE"/>
<circle cx="293.5" cy="516.5" r="1.5" fill="#9483BE"/>
<circle cx="171.5" cy="475.5" r="1.5" fill="#9483BE"/>
<circle cx="250.5" cy="651.5" r="1.5" fill="#9483BE"/>
<circle cx="315.5" cy="162.5" r="1.5" fill="#9483BE"/>
</g>
</svg>
