<svg width="144" height="144" viewBox="0 0 144 144" fill="none" xmlns="http://www.w3.org/2000/svg">
<g opacity="0.7">
<path opacity="0.3" d="M71.7596 143.519C111.391 143.519 143.519 111.391 143.519 71.7596C143.519 32.1279 111.391 0 71.7596 0C32.1279 0 0 32.1279 0 71.7596C0 111.391 32.1279 143.519 71.7596 143.519Z" fill="url(#paint0_radial_7_311)"/>
<path opacity="0.3" d="M71.7597 137.503C108.069 137.503 137.504 108.069 137.504 71.7596C137.504 35.4503 108.069 6.01575 71.7597 6.01575C35.4504 6.01575 6.01587 35.4503 6.01587 71.7596C6.01587 108.069 35.4504 137.503 71.7597 137.503Z" fill="url(#paint1_radial_7_311)"/>
<path opacity="0.6" d="M107.425 33.5165C106.995 33.9462 106.995 34.3758 106.565 34.8055C105.276 36.0946 103.128 37.3837 101.409 38.2431C97.5416 39.9619 93.6743 42.1104 89.8071 43.8292C80.7834 48.5559 71.33 53.7123 64.8846 61.4469C60.5876 66.1736 58.0094 72.1893 55.0015 77.7754C51.9936 83.3614 48.9857 88.9476 44.259 93.6742C39.5324 98.4009 33.5166 101.409 27.0711 101.409C11.602 100.979 10.3129 82.9317 10.3129 71.3299C10.3129 44.2589 28.3602 19.3364 54.1421 11.1721C65.744 7.30484 78.2052 7.30485 90.2368 10.3127C99.6901 12.8909 113.011 17.6176 109.573 30.0789C108.284 31.368 107.854 32.6571 107.425 33.5165Z" fill="url(#paint2_radial_7_311)"/>
<path opacity="0.6" d="M11.6021 73.0487C11.6021 45.9777 29.6494 21.0552 55.4313 12.891C67.0332 9.02367 79.4944 9.02368 91.526 12.0316C96.6824 13.3207 102.268 15.4692 106.565 18.477C102.698 14.1801 95.3932 11.6018 89.8072 10.3127C78.2053 7.30485 65.3144 7.30484 53.7125 11.1721C27.9306 19.3364 9.8833 44.2589 9.8833 71.3299C9.8833 80.3535 10.7427 92.8148 18.0476 98.4009C12.4615 92.3851 11.6021 81.213 11.6021 73.0487Z" fill="url(#paint3_radial_7_311)"/>
<path opacity="0.34" d="M38.2431 34.8056C42.54 37.3838 42.1104 45.548 37.3837 52.4232C32.657 59.7281 25.7818 63.1656 21.4849 60.5875C17.1879 58.0093 17.6176 49.845 22.3442 42.9699C27.0709 35.665 34.3758 32.2274 38.2431 34.8056Z" fill="url(#paint4_radial_7_311)"/>
<path opacity="0.34" d="M54.5717 21.0552C56.2905 23.2037 54.5717 27.071 50.7045 30.0789C46.8372 32.6571 42.5402 33.5165 40.8214 31.368C39.1026 29.2195 40.8214 25.3522 44.6887 22.3443C48.556 19.3364 52.8529 18.9067 54.5717 21.0552Z" fill="url(#paint5_radial_7_311)"/>
<path opacity="0.5" d="M99.6902 35.665C99.2605 36.0947 98.8308 36.5244 98.4011 36.5244C97.9714 36.5244 97.5417 36.9541 97.112 36.9541C95.8229 36.9541 94.5339 36.9541 92.8151 37.3838C91.9557 37.8135 91.0963 38.2432 90.6666 38.2432C90.2369 38.6729 89.8072 39.1026 89.3775 39.1026C88.9478 39.1026 88.9478 39.5323 88.5181 39.5323C88.0884 39.5323 87.6587 39.5323 87.6587 39.5323C86.7993 39.5323 86.3696 39.5323 85.5102 39.5323C84.2211 39.5323 83.3617 39.5323 83.3617 39.5323C83.3617 39.5323 82.5023 39.5323 81.2132 39.5323C79.9241 39.5323 78.2053 39.5323 76.0568 39.5323C73.9083 39.5323 71.3301 39.962 68.3222 40.3917C65.744 40.8214 62.7362 41.6808 59.7283 42.9699C57.1501 44.259 54.5719 45.9778 52.4234 48.1263C50.2749 49.8451 48.5561 51.5639 46.8373 52.853C45.9779 53.2827 45.1185 53.7123 44.2591 54.142C43.3997 54.5717 42.5403 54.5717 42.1106 54.5717C40.8216 54.5717 40.3919 54.5717 39.9622 54.5717C39.9622 54.5717 40.3919 55.0014 41.681 55.4311C42.5404 55.4311 42.97 55.4311 44.2591 55.4311C45.9779 55.4311 47.6967 54.142 49.4155 54.142C51.564 53.7123 53.7125 54.1421 55.4313 52.853C56.2907 52.4233 56.7204 51.5639 57.5798 50.7045C59.7283 48.556 62.3065 47.2669 65.3144 46.8372C67.0332 46.8372 68.7519 46.8372 70.4707 46.4075C72.6192 45.9778 74.338 45.1184 76.4865 45.548C77.3459 45.548 78.635 45.9778 79.4944 45.9778C80.3538 45.9778 81.2132 45.1184 82.0726 44.6887C83.7914 43.8293 86.3696 44.6887 88.5181 44.259C88.9478 44.259 89.8072 43.8293 90.2369 43.3996C91.526 42.5402 91.9557 42.1105 92.8151 41.6808C93.6745 41.2511 94.5338 41.2511 96.2526 41.2511C96.6823 41.2511 97.112 41.2511 97.5417 40.8214C99.6902 40.3917 101.409 38.6729 103.558 37.8135C106.565 36.0947 108.714 32.6571 110.003 29.6492C110.433 27.9304 112.151 21.0553 110.003 20.1959C106.995 24.4929 104.417 29.2196 101.409 33.5166C101.409 33.9462 100.979 34.8056 99.6902 35.665Z" fill="url(#paint6_radial_7_311)"/>
<path opacity="0.5" d="M131.917 98.401C130.628 98.401 127.191 98.8307 123.323 100.12C120.745 100.979 117.308 101.839 113.87 103.557C110.433 104.846 106.995 106.995 103.987 108.714C102.268 109.573 100.549 110.862 99.2603 112.151C98.401 112.581 97.9713 113.44 97.1119 113.87C96.2525 114.3 95.8228 115.159 94.9634 115.589C92.3852 117.737 89.807 119.886 87.2288 120.745C85.0803 122.034 82.9318 122.034 81.213 122.464C80.3536 122.464 79.9239 122.464 79.4942 122.464C79.0645 122.464 79.0645 122.464 79.0645 122.464H78.6348C78.2051 122.464 77.7754 122.464 76.916 122.464C75.1972 122.464 73.0487 122.034 70.0409 121.605C67.033 121.175 63.5954 120.745 59.7281 121.175C55.8608 121.605 52.4232 122.894 48.9856 123.324C48.1262 123.324 47.2668 123.753 46.4074 123.753C45.548 123.753 44.6887 124.183 43.8293 124.183C42.1105 124.183 40.3917 124.183 38.6729 124.183C36.5244 124.183 34.3759 123.753 32.2274 123.753C33.0868 124.613 33.9462 125.042 34.8056 125.902C36.9541 127.191 39.5323 127.62 42.1105 128.48C42.9699 128.91 43.8292 128.91 44.6886 128.91C45.9777 128.91 46.8372 128.48 47.6966 127.62C48.1262 127.191 48.556 126.761 49.4153 126.761C49.845 126.761 50.7044 127.191 51.1341 127.62C53.2826 128.48 55.4311 127.191 57.1499 125.902C57.5796 125.472 58.0093 125.042 58.8687 124.613C61.8766 123.324 68.7518 125.472 71.33 125.902C71.7597 125.902 72.6191 126.331 73.0488 126.761C73.4785 127.191 73.9081 127.621 74.3378 128.05C75.6269 129.339 77.3457 128.91 79.0645 128.48C80.7833 128.05 82.9318 127.62 84.6506 127.191C86.7991 127.191 88.9476 128.05 91.0961 126.761C93.2446 125.472 94.104 123.324 95.8228 122.034C97.5415 121.175 99.6901 120.745 100.979 119.886C102.268 118.597 103.128 116.878 103.987 115.589C105.276 112.581 107.854 109.573 110.862 107.854C111.722 107.425 112.581 106.995 113.44 106.995C113.87 106.995 114.73 106.995 115.159 106.995C117.308 106.995 119.026 105.706 120.745 103.987C121.605 103.557 128.91 100.12 131.917 98.401C131.917 98.8307 131.917 98.8307 131.917 98.401Z" fill="url(#paint7_radial_7_311)"/>
<path opacity="0.5" d="M108.284 63.5955C106.136 64.4549 103.987 65.3142 101.839 65.3142C99.6904 65.3142 97.5419 65.3142 95.8231 64.8845C94.1043 64.4548 92.3855 64.0252 90.6667 63.5955C88.9479 63.1658 87.6588 62.736 86.3697 62.736C85.94 62.736 85.0806 62.3064 84.6509 62.3064C84.2212 62.3064 83.7915 62.3064 83.3618 62.3064C82.5024 62.3064 82.5024 62.3064 82.5024 62.3064C82.5024 62.3064 82.5024 62.3064 82.0727 62.3064C82.0727 62.3064 81.643 62.3064 81.2133 62.3064C80.7836 62.3064 80.3539 62.3064 79.9242 62.3064C79.4945 62.3064 79.4945 62.3064 79.0648 62.3064C78.6351 62.3064 78.6351 62.3064 78.2054 62.3064C75.6272 62.7361 72.1896 63.5954 68.3224 64.8845C66.6036 65.7439 64.4551 66.6034 62.3066 67.8925C60.1581 69.1816 58.0096 70.4706 55.8611 71.7597C51.5642 74.3379 46.8374 76.9161 42.1108 78.2052L40.392 78.6349C39.9623 78.6349 39.1029 79.0646 38.6732 79.0646C38.2435 79.0646 37.3841 79.0646 36.9544 79.4943C36.5247 79.4943 35.6653 79.4943 35.2356 79.4943C34.8059 79.4943 33.9465 79.4943 33.5168 79.4943C33.0871 79.4943 32.2277 79.4943 31.798 79.4943C31.3683 79.4943 30.5089 79.4943 30.0792 79.4943C29.6495 79.4943 28.7901 79.4943 28.3604 79.4943C23.6338 79.0646 18.9071 77.7755 15.0398 76.4864C12.4616 75.627 10.3131 74.7676 8.16459 73.9082C7.7349 73.9082 8.59431 75.627 9.02401 75.627C9.45371 76.4864 10.3131 76.4864 11.1725 76.9161C12.0319 77.3458 13.321 77.3458 14.6101 77.7755C15.0398 77.7755 15.8992 78.2052 16.3289 78.6349C17.618 79.4943 18.0477 80.7834 19.3368 82.0724C20.6259 83.3615 22.3447 84.221 24.0635 84.6507C26.2119 85.0804 28.3604 85.5101 30.5089 85.0804C31.3683 85.0804 32.2277 85.0804 33.0871 85.0804C35.2356 85.5101 36.9544 87.2288 39.5326 87.6585C42.1108 88.0882 45.1187 86.3695 47.6969 85.9398C49.8454 85.5101 51.9939 85.9398 53.7126 85.0804C56.7205 83.3616 58.4393 78.6349 61.4472 76.0567C64.8848 73.0488 69.1818 71.33 73.4788 70.4706C74.7679 70.4706 76.057 70.0409 77.3461 70.0409C82.0727 70.4706 86.7994 71.7597 91.5261 72.6191C96.2528 73.0488 100.55 72.6191 105.276 72.1894C106.566 72.1894 107.425 71.7597 108.284 71.33C109.573 70.4706 110.003 69.1815 111.292 68.7518C113.011 67.8924 115.589 67.8924 117.308 67.4627C118.597 67.033 119.886 67.033 120.746 66.1736C122.035 65.3142 122.894 63.5955 123.753 62.3064C125.902 58.8688 127.621 55.0015 129.769 51.5639C131.058 49.4154 132.777 47.6966 133.207 45.5481C132.777 44.6887 132.347 43.8293 131.918 42.9699C128.05 46.4075 125.043 51.1342 121.605 55.0015C116.878 58.0094 112.581 61.447 108.284 63.5955Z" fill="url(#paint8_radial_7_311)"/>
<path opacity="0.5" d="M24.0632 110.862C26.2116 111.292 28.3601 110.862 30.0789 110.862C30.9383 110.862 31.7977 110.862 32.6571 110.433C38.2432 108.284 40.3917 102.698 47.2669 101.839C49.4154 101.409 51.1341 101.839 53.2826 102.268C56.7202 103.128 57.1499 103.987 59.7281 106.136C60.5875 106.565 61.4469 106.565 62.3063 106.136C63.1657 105.706 64.0251 105.276 64.8845 104.846C67.033 103.557 69.1815 103.557 71.7597 103.557C72.1894 103.557 73.0488 103.557 73.4785 103.128C76.0567 101.839 76.4864 99.2604 79.4942 97.9713C81.6427 97.1119 83.3615 96.6822 85.51 94.9634C88.9476 92.3852 90.6664 90.2367 90.2367 89.807C89.807 89.3773 88.0882 91.5258 84.6506 93.6743C82.9318 94.5337 80.7833 95.8228 78.6348 96.6822C76.4863 97.5416 73.9082 98.401 70.9003 98.8307C68.3221 99.2604 65.7439 99.6901 63.1657 99.6901C60.5875 99.6901 58.439 99.2604 56.2905 98.8307C54.142 98.401 52.4232 97.9713 51.1341 97.9713C50.7044 97.9713 49.8451 97.9713 49.8451 97.9713C49.4154 97.9713 49.4154 97.9713 49.4154 97.9713C49.4154 97.9713 49.4153 97.9713 48.9856 97.9713C48.5559 97.9713 48.1263 97.9713 47.2669 97.9713C46.4075 97.9713 45.5481 97.9713 44.6887 98.401C43.8293 98.401 42.5402 98.8307 41.6808 99.2604C40.8214 99.6901 39.5323 100.549 38.6729 100.979C37.8135 101.409 36.5244 102.268 35.665 102.698C33.5165 103.987 30.9383 104.846 28.3601 105.706C25.7819 106.565 23.2037 106.995 20.6256 106.995C19.3365 106.995 18.4771 106.995 17.188 106.995C18.0474 109.573 21.0553 110.862 24.0632 110.862Z" fill="url(#paint9_radial_7_311)"/>
<path opacity="0.5" d="M49.4156 34.8056C46.8374 35.2353 44.2592 35.2354 41.681 35.2354C36.5246 34.8057 30.9386 33.5166 27.0713 32.2275C25.7822 31.7978 23.204 30.5087 22.3446 31.7978C25.7822 33.9462 29.6495 34.376 33.5168 35.2354C36.0949 36.0948 38.2435 37.8136 40.8216 38.673C50.7047 42.9699 57.5799 36.9542 65.3144 32.2275C66.1738 31.7978 67.8926 30.5087 69.6114 29.6493C73.049 27.9305 76.4866 26.2117 80.3539 26.2117C81.643 26.2117 83.3618 26.2117 84.2212 24.9226C84.2212 24.4929 84.6509 24.0632 84.6509 24.0632C85.0806 24.0632 85.0805 24.0632 85.5102 23.6335C86.7993 23.2038 87.6588 21.485 88.5181 20.1959C88.9478 19.3365 91.526 9.02378 90.6666 8.59408C90.2369 8.59408 89.3775 8.16435 88.9478 8.16435C88.5181 10.3128 88.0884 12.4613 86.7993 14.6098C86.3696 15.4692 85.5103 16.7583 84.6509 17.6177C83.7915 18.4771 82.9321 19.3365 81.643 20.1959C79.4945 21.485 76.9163 22.3444 74.7678 23.2038C72.1896 24.0632 70.0411 24.9226 67.8926 25.782C65.7441 26.6414 64.455 27.5008 63.1659 28.3602C62.3065 28.7899 61.4471 29.2196 61.4471 29.2196C61.4471 29.2196 61.0174 29.6493 59.7283 30.079C58.8689 30.5087 57.1502 31.3681 55.4314 32.2275C53.7126 33.5166 51.5641 34.3759 49.4156 34.8056Z" fill="url(#paint10_radial_7_311)"/>
<path opacity="0.5" d="M137.074 70.9003C134.926 71.7597 131.488 75.1972 130.199 75.6269C129.34 76.0566 128.48 76.4864 127.621 76.4864C127.191 76.4864 126.762 76.916 126.762 76.916C126.762 76.916 126.332 76.9161 125.472 77.3457C124.613 77.3457 123.754 77.7754 122.465 78.2051C121.175 78.6348 119.457 79.4943 118.168 80.7833C116.878 82.0724 115.589 83.3615 114.3 84.6506C112.152 87.2288 110.433 90.2367 108.714 91.9555C106.995 93.6743 105.706 94.5337 105.706 94.5337C105.706 94.9634 109.144 93.2446 109.574 93.2446C110.863 93.2446 111.722 92.8148 112.581 92.8148C114.3 92.3851 116.019 91.5258 116.878 89.807C117.308 88.9476 117.738 87.2288 118.597 86.7991C119.457 85.9397 120.746 85.9397 121.605 85.51C122.465 85.0803 123.324 84.2209 123.754 83.3615C125.472 81.6427 128.48 81.213 130.629 80.7833C133.207 80.3537 135.785 79.0645 137.504 77.3457C137.504 75.1973 137.504 73.4784 137.504 71.3299C137.504 70.4705 137.074 70.4706 137.074 70.9003Z" fill="url(#paint11_radial_7_311)"/>
<path opacity="0.5" d="M11.6024 57.5797C11.1727 57.15 10.3133 56.2907 9.88355 55.861C9.45385 57.1501 9.45385 58.0095 9.88355 58.8689C10.7429 61.0173 12.8914 62.7361 14.1805 64.4549C15.0399 65.3143 15.4696 66.1737 16.329 66.6034C18.0478 67.8925 20.626 68.3222 21.9151 70.4707C22.3448 71.3301 22.3448 71.7598 23.2042 72.1895C23.6339 72.6192 24.0636 72.1895 24.923 72.1895C27.0715 72.1895 28.7903 73.0489 30.5091 73.9083C32.2279 74.7677 34.3764 75.1974 36.5249 74.338C39.1031 73.0489 41.2515 72.6192 43.8297 71.3301C45.1188 70.9004 45.9782 70.4707 47.2673 70.4707C48.9861 70.4707 50.7049 70.9004 52.4237 70.4707C56.291 69.6113 60.1582 66.1737 63.5958 64.0252C66.174 62.7361 68.3225 61.0173 70.9007 60.5876C72.1898 60.1579 73.0492 60.1579 74.3383 59.7282C75.1977 59.2985 76.0571 58.0095 76.9165 57.1501C79.4947 54.5719 83.7917 55.4313 86.7996 55.0016C88.948 54.5719 90.6669 54.5719 92.3856 53.7125C94.1044 53.2828 95.8232 52.4234 97.542 51.9937C99.2608 51.1343 100.98 50.7046 102.269 49.8452C103.128 49.4155 103.987 48.9858 104.417 48.5561C105.277 48.1264 105.706 47.6967 106.136 46.8373C106.995 45.5482 107.855 44.2591 108.284 43.3997C108.714 42.1106 109.144 41.2512 109.144 40.3918C109.574 38.673 109.574 37.8137 109.574 37.8137C109.574 37.8137 109.144 38.6731 108.284 39.9622C107.855 40.8215 107.425 41.6809 106.995 42.5403C106.566 43.3997 105.706 44.6888 104.847 45.5482C103.987 46.4076 102.698 47.267 100.98 47.6967C99.6905 48.1264 97.9717 48.9858 96.2529 49.4155C94.5341 49.8452 92.8153 50.7046 91.0965 51.1343C89.3777 51.564 87.6589 51.9937 85.5104 51.9937C81.6432 52.4234 77.7759 51.9937 73.9086 52.8531C70.0413 53.7125 67.0334 55.4312 64.4553 56.2906C59.2989 58.8688 55.8613 60.158 55.8613 60.158C55.8613 60.158 52.4237 61.8768 47.2673 64.4549C44.6891 65.744 41.6812 67.4628 38.6734 67.8925C35.6655 68.3222 31.7982 67.8925 28.3606 66.6034C24.923 65.744 21.4854 64.0252 18.4775 62.3065C16.329 61.4471 13.7508 59.2985 11.6024 57.5797Z" fill="url(#paint12_radial_7_311)"/>
<path d="M8.59432 54.5717C9.02402 55.0014 9.88339 55.8608 10.3131 56.2905C12.4616 58.439 14.6101 60.1578 17.618 62.3063C20.6259 64.0251 24.0634 65.7439 27.501 66.6033C30.9386 67.4627 34.8059 68.3221 37.8138 67.8924C40.8217 67.4627 43.8296 65.7439 46.4078 64.4548C51.5641 61.8766 55.0017 60.1578 55.0017 60.1578C55.0017 60.1578 58.4393 58.439 63.5957 56.2905C66.1739 55.0014 69.1818 53.7124 73.0491 52.853C76.9164 51.9936 80.7836 51.9935 84.6509 51.9935C86.3697 51.9935 88.0885 51.5638 90.237 51.1341C91.9558 50.7044 93.6746 50.2748 95.3934 49.4154C97.1122 48.9857 98.8309 48.1262 100.12 47.6965C101.409 47.2668 102.698 46.4074 103.987 45.548C104.847 44.6886 105.706 43.8293 106.136 42.5402C106.566 41.6808 106.995 40.8214 107.425 39.962C108.284 38.2432 108.714 37.3838 108.714 37.8135C108.714 37.8135 108.714 38.6729 108.284 40.3917C107.855 41.2511 107.855 42.1105 107.425 43.3995C106.995 44.6886 106.136 45.5481 105.276 46.8372C104.847 47.2668 103.987 48.1263 103.558 48.556C102.698 48.9857 102.269 49.4153 101.409 49.845C99.6904 50.7044 98.4013 51.1341 96.6825 51.9935C94.9637 52.8529 93.2449 53.2826 91.5261 53.7123C89.8073 54.142 87.6588 54.5718 85.94 55.0015C82.9321 55.4312 78.2054 55.0015 76.0569 57.1499C75.1975 58.0093 74.3382 58.8687 73.4788 59.7281C72.6194 60.1578 71.3303 60.1578 70.0412 60.5875C67.463 61.0172 64.8848 62.736 62.7363 64.0251C59.2987 66.1736 55.4314 69.6112 51.5642 70.4706C49.8454 70.9003 48.1265 70.4706 46.4078 70.4706C45.1187 70.4706 43.8296 70.9002 42.9702 71.3299C40.392 72.619 38.2435 73.0488 35.6653 74.3379C33.9465 75.1973 31.798 74.7676 29.6495 73.9082C27.9307 73.0488 25.7822 72.1894 24.0635 72.1894C23.6338 72.1894 22.7744 72.1894 22.3447 72.1894C21.4853 71.7597 21.4852 70.9003 21.0555 70.4706C19.7665 68.7518 17.618 67.8924 15.4695 66.6033C14.6101 65.7439 13.7507 65.3142 13.321 64.4548C12.0319 62.736 9.88341 61.0172 9.02401 58.8687C8.16462 56.7202 8.16462 55.4311 8.59432 54.5717ZM131.918 97.5416C131.918 97.1119 128.05 97.5415 122.464 99.2603C119.886 100.12 116.449 100.979 113.011 102.698C109.573 103.987 106.136 106.136 103.128 107.854C101.409 108.714 99.6903 110.003 98.4012 111.292C97.5418 111.722 97.1121 112.581 96.2527 113.011C95.3933 113.44 94.9637 114.3 94.1043 114.729C91.5261 116.878 88.9479 119.026 86.3697 119.886C84.2212 121.175 82.0727 121.175 80.3539 121.605C79.4945 121.605 79.0648 121.605 78.6351 121.605C78.2054 121.605 78.2054 121.605 78.2054 121.605H77.7757C77.346 121.605 76.9163 121.605 76.0569 121.605C74.3382 121.605 72.1897 121.175 69.1818 120.745C66.1739 120.316 62.7363 119.886 58.869 120.316C55.0017 120.745 51.5641 122.034 48.1266 122.464C47.2672 122.464 46.4078 122.894 45.5484 122.894C44.689 122.894 43.8296 123.323 42.9702 123.323C41.2514 123.323 39.5326 123.323 37.8138 123.323C35.2356 123.323 33.0871 122.894 30.9386 122.894C33.9465 125.472 37.3841 126.331 41.2514 127.62C42.1108 128.05 42.9702 128.05 43.8296 128.05C45.1187 128.05 45.978 127.62 46.8374 126.761C47.2671 126.331 47.6968 125.902 48.5562 125.902C48.9859 125.902 49.8453 126.331 50.275 126.761C52.4235 127.62 54.572 126.331 56.2908 125.042C56.7205 124.613 57.1502 124.183 58.0096 123.753C61.0175 122.464 67.8927 124.613 70.4709 125.042C70.9005 125.042 71.7599 125.472 72.1897 125.902C72.6193 126.331 73.0491 126.761 73.4788 127.191C74.7679 128.48 76.4866 128.05 78.2054 127.62C79.9242 127.191 82.0727 126.761 83.7915 126.331C85.94 126.331 88.0885 127.191 90.237 125.902C92.3855 124.613 93.2449 122.464 94.9637 121.175C96.6825 120.316 98.8309 119.886 100.12 119.026C101.409 117.737 102.269 116.019 103.128 114.729C104.417 111.722 106.995 108.714 110.003 106.995C110.863 106.565 111.722 106.136 112.581 106.136C113.011 106.136 113.87 106.136 114.3 106.136C116.449 106.136 118.167 104.846 119.886 103.128C120.316 102.268 131.488 97.1119 131.918 97.5416ZM39.5326 37.8135C49.4156 42.1105 56.2908 36.0947 64.0254 31.368C64.8848 30.9384 66.6036 29.6492 68.3224 28.7898C71.7599 27.071 75.1975 25.3522 79.0648 25.3522C80.3539 25.3522 82.0727 25.3522 82.9321 24.0631C82.9321 23.6334 83.3618 23.2037 83.3618 23.2037C83.7915 23.2037 83.7915 23.2038 84.2212 22.7741C85.5103 22.3444 86.3697 20.6256 87.2291 19.3365C87.6588 18.4771 90.237 8.16434 89.3776 7.73464C88.9479 7.73464 88.0885 7.30492 87.6588 7.30492C87.2291 9.45341 86.7994 11.6019 85.5103 13.7504C85.0806 14.6098 84.2212 15.8989 83.3618 16.7583C82.5024 17.6177 81.643 18.4771 80.3539 19.3365C78.2054 20.6256 75.6273 21.485 73.4788 22.3444C70.9006 23.2038 68.7521 24.0632 66.6036 24.9226C64.4551 25.782 63.166 26.6413 61.8769 27.5007C61.0175 27.9304 60.1581 28.3601 60.1581 28.3601C60.1581 28.3601 59.7284 28.7899 58.4393 29.2196C57.5799 29.6493 55.8611 30.5087 54.1423 31.368C52.4235 32.2274 50.2751 32.6571 47.6969 33.0868C45.1187 33.5165 42.5405 33.5165 39.9623 33.5165C34.8059 33.0868 29.2198 31.7977 25.3525 30.5086C24.0634 30.0789 21.4853 28.7898 20.6259 30.0789C24.0634 32.2274 27.9307 32.6571 31.798 33.5165C34.8059 34.8056 36.9544 36.5244 39.5326 37.8135ZM135.785 69.6112C133.636 70.4706 130.199 73.9082 128.91 74.3379C128.05 74.7676 127.191 75.1973 126.332 75.1973C125.902 75.1973 125.472 75.6269 125.472 75.6269C125.472 75.6269 125.043 75.627 124.183 76.0566C123.324 76.0566 122.464 76.4863 121.175 76.916C119.886 77.3457 118.167 78.2052 116.878 79.4942C115.589 80.7833 114.3 82.0724 113.011 83.3615C110.863 85.9397 109.144 88.9476 107.425 90.6664C105.706 92.3852 104.417 93.2446 104.417 93.2446C104.417 93.6743 107.855 91.9555 108.284 91.9555C109.573 91.9555 110.433 91.5258 111.292 91.5258C113.011 91.0961 114.73 90.2367 115.589 88.5179C116.019 87.6585 116.449 85.9397 117.308 85.51C118.167 84.6506 119.456 84.6506 120.316 84.2209C121.175 83.7912 122.035 82.9318 122.464 82.0724C124.183 80.3536 127.191 79.9239 129.34 79.4942C131.918 79.0646 134.496 77.7754 136.215 76.0566C137.074 75.1973 137.504 73.9081 137.933 72.619C137.933 69.1815 137.074 69.1815 135.785 69.6112ZM23.204 110.003C25.3525 110.432 27.501 110.003 29.2198 110.003C30.0792 110.003 30.9386 110.003 31.798 109.573C37.3841 107.425 39.5326 101.839 46.4078 100.979C48.5562 100.549 50.275 100.979 52.4235 101.409C55.8611 102.268 56.2908 103.128 58.869 105.276C59.7284 105.706 60.5878 105.706 61.4472 105.276C62.3066 104.846 63.166 104.417 64.0254 103.987C66.1739 102.698 68.3224 102.698 70.9006 102.698C71.3303 102.698 72.1896 102.698 72.6193 102.268C75.1975 100.979 75.6272 98.4009 78.6351 97.1118C80.7836 96.2524 82.5024 95.8228 84.6509 94.104C88.0885 91.5258 89.8073 89.3773 89.3776 88.9476C88.9479 88.5179 87.2291 90.6664 83.7915 92.8149C82.0727 93.6743 79.9242 94.9634 77.7757 95.8228C75.6273 96.6822 73.049 97.5416 70.0412 97.9713C67.463 98.401 64.8848 98.8307 62.3066 98.8307C59.7284 98.8307 57.5799 98.401 55.4314 97.9713C53.2829 97.5416 51.5641 97.1118 50.275 97.1118C49.8453 97.1118 48.9859 97.1118 48.9859 97.1118C48.5562 97.1118 48.5562 97.1118 48.5562 97.1118C48.5562 97.1118 48.5563 97.1118 48.1266 97.1118C47.6969 97.1118 47.2672 97.1118 46.4078 97.1118C45.5484 97.1118 44.689 97.1119 43.8296 97.5416C42.9702 97.5416 41.6811 97.9713 40.8217 98.4009C39.9623 98.8306 38.6732 99.6901 37.8138 100.12C36.9544 100.549 35.6653 101.409 34.8059 101.839C32.6574 103.128 30.0792 103.987 27.501 104.846C24.9228 105.706 22.3447 106.136 19.7665 106.136C18.4774 106.136 17.618 106.136 16.3289 106.136C16.7586 108.714 19.7665 109.573 23.204 110.003ZM98.831 34.3759C98.4013 34.8056 97.9715 35.2353 97.5419 35.2353C97.1122 35.2353 96.6824 35.665 96.2527 35.665C94.9637 35.665 93.6746 35.665 91.9558 36.0947C91.0964 36.5244 90.237 36.9541 89.8073 36.9541C89.3776 37.3838 88.9479 37.8135 88.5182 37.8135C88.0885 37.8135 88.0885 38.2432 87.6588 38.2432C87.2291 38.2432 86.7994 38.2432 86.7994 38.2432C85.94 38.2432 85.5103 38.2432 84.6509 38.2432C83.3618 38.2432 82.5024 38.2432 82.5024 38.2432C82.5024 38.2432 81.643 38.2432 80.3539 38.2432C79.0648 38.2432 77.346 38.2432 75.1976 38.2432C73.0491 38.2432 70.4709 38.6729 67.463 39.1026C64.8848 39.5323 61.8769 40.3917 58.869 41.6808C56.2908 42.9699 53.7126 44.6887 51.5642 46.8372C49.4157 48.5559 47.6969 50.2748 45.9781 51.5639C45.1187 51.9936 44.2593 52.4233 43.3999 52.853C42.5405 53.2827 41.6811 53.2826 41.2514 53.2826C39.9623 53.2826 39.5326 53.2826 39.1029 53.2826C39.1029 53.2826 39.5326 53.7123 40.8217 54.142C41.6811 54.142 42.1108 54.142 43.3999 54.142C45.1187 54.142 46.8375 52.853 48.5562 52.853C50.7047 52.4233 52.8532 52.853 54.572 51.5639C55.4314 51.1342 55.8611 50.2748 56.7205 49.4154C58.869 47.2669 61.4472 45.9777 64.4551 45.548C66.1739 45.548 67.8927 45.5481 69.6115 45.1184C71.76 44.6887 73.4788 43.8293 75.6273 44.259C76.4866 44.259 77.7757 44.6887 78.6351 44.6887C79.4945 44.6887 80.3539 43.8292 81.2133 43.3995C82.9321 42.5402 85.5103 43.3996 87.6588 42.9699C88.0885 42.9699 88.9479 42.5402 89.3776 42.1105C90.6667 41.2511 91.0964 40.8214 91.9558 40.3917C92.8152 39.962 93.6746 39.962 95.3934 39.962C95.8231 39.962 96.2528 39.962 96.6825 39.5323C98.831 39.1026 100.55 37.3838 102.698 36.5244C105.706 34.8056 107.855 31.368 109.144 28.3601C109.573 26.6413 111.292 19.7662 109.144 18.9068C106.136 23.2037 103.558 27.9304 100.55 32.2274C100.55 32.6571 99.6904 33.9462 98.831 34.3759ZM12.4616 76.0566C12.8913 76.0566 13.7507 76.4863 14.1804 76.916C15.4695 77.7754 15.8992 79.0645 17.1883 80.3536C18.4774 81.6427 20.1962 82.5022 21.915 82.9318C24.0635 83.3615 26.2119 83.7912 28.3604 83.3615C29.2198 83.3615 30.0792 83.3615 30.9386 83.3615C33.0871 83.7912 34.8059 85.51 37.3841 85.9397C39.9623 86.3694 42.9702 84.6506 45.5484 84.2209C47.6969 83.7912 49.8454 84.2209 51.5642 83.3615C54.572 81.6427 56.2908 76.9161 59.2987 74.3379C62.7363 71.33 67.0333 69.6112 71.3303 68.7518C72.6194 68.7518 73.9085 68.3221 75.1976 68.3221C79.9242 68.7518 84.6509 70.0409 89.3776 70.9003C94.1043 71.33 98.4013 70.9003 103.128 70.4706C104.417 70.4706 105.276 70.0409 106.136 69.6112C107.425 68.7518 107.855 67.4627 109.144 67.033C110.862 66.1736 113.441 66.1736 115.16 65.7439C116.449 65.3142 117.738 65.3142 118.597 64.4548C119.886 63.5954 120.746 61.8766 121.605 60.5875C123.753 57.1499 125.472 53.2826 127.621 49.845C129.34 46.8371 132.347 44.6886 130.199 41.2511C125.902 44.6886 122.894 49.4153 119.456 53.2826C116.019 57.1499 112.152 60.5875 107.855 62.736C105.706 63.5954 103.558 64.4548 101.409 64.4548C99.2607 64.4548 97.1122 64.4548 95.3934 64.0251C93.6746 63.5954 91.9558 63.1657 90.237 62.736C88.5182 62.3063 87.2291 61.8766 85.94 61.8766C85.5103 61.8766 84.6509 61.4469 84.2212 61.4469C83.7915 61.4469 83.3618 61.4469 82.9321 61.4469C82.0727 61.4469 82.0727 61.4469 82.0727 61.4469C82.0727 61.4469 82.0727 61.4469 81.643 61.4469C81.643 61.4469 81.2133 61.4469 80.7836 61.4469C80.3539 61.4469 79.9242 61.4469 79.4945 61.4469C79.0648 61.4469 79.0648 61.4469 78.6351 61.4469C78.2054 61.4469 78.2054 61.4469 77.7757 61.4469C75.1975 61.8766 71.7599 62.736 67.8927 64.0251C65.7442 64.8845 64.0254 65.7439 61.8769 67.033C59.7284 68.3221 57.5799 69.6112 55.4314 70.9003C51.1344 73.4785 46.4078 76.0567 41.6811 77.3458L39.9623 77.7754C39.5326 77.7754 38.6732 78.2051 38.2435 78.2051C37.8138 78.2051 36.9544 78.2052 36.5247 78.6349C36.095 78.6349 35.2356 78.6349 34.8059 78.6349C34.3762 78.6349 33.5168 78.6349 33.0871 78.6349C32.6574 78.6349 31.798 78.6349 31.3683 78.6349C30.9386 78.6349 30.0792 78.6349 29.6495 78.6349C29.2198 78.6349 28.3604 78.6349 27.9307 78.6349C23.2041 78.2052 18.4774 76.916 14.6101 75.6269C12.0319 74.7675 9.8834 73.9082 7.73491 73.0488C7.30521 73.0488 8.16462 74.7675 8.59432 74.7675C9.02402 75.6269 9.88342 75.627 10.7428 76.0566C10.3131 75.627 11.6022 75.627 12.4616 76.0566Z" fill="url(#paint13_radial_7_311)"/>
<g opacity="0.34">
<path opacity="0.34" d="M12.8911 63.1656C13.7505 64.025 14.1802 64.8844 15.0396 65.3141C16.7584 66.6032 19.3366 67.0329 20.6257 69.1814C21.0554 70.0408 21.0554 70.4705 21.9148 70.9002C22.3445 71.3299 22.7742 70.9002 23.6336 70.9002C25.7821 70.9002 27.5009 71.7596 29.2197 72.619C30.9384 73.4784 33.0869 73.9081 35.2354 73.0487C37.8136 71.7596 39.9621 71.3299 42.5403 70.0408C43.8294 69.6111 44.6888 69.1814 45.9779 69.1814C47.6967 69.1814 49.4155 69.6111 51.1343 69.1814C55.0015 68.322 58.8689 64.8844 62.3064 62.7359C64.8846 61.4468 67.0331 59.7281 69.6113 59.2984C70.9004 58.8687 71.7598 58.8686 73.0489 58.4389C73.9083 58.0092 74.7677 56.7202 75.6271 55.8608C78.2053 53.2826 82.5022 54.142 85.5101 53.7123C87.6586 53.2826 89.3774 53.2826 91.0962 52.4232C92.815 51.9935 94.5338 51.1341 96.2526 50.7044C97.9714 49.845 99.6902 49.4153 100.979 48.5559C101.839 48.1262 102.698 47.6965 103.128 47.2668C103.987 46.8371 104.417 46.4074 104.847 45.548C105.706 44.2589 106.565 42.9698 106.995 42.1104C107.425 40.8213 107.854 39.9619 107.854 39.1025C108.284 37.3837 108.284 36.5244 108.284 36.5244C108.284 36.5244 107.854 37.3837 106.995 38.6728C106.565 39.5322 106.136 40.3916 105.706 41.251C105.276 42.1104 104.417 43.3995 103.557 44.2589C102.698 45.1183 101.409 45.9777 99.6902 46.4074C99.2605 46.4074 99.2605 46.4074 98.8308 46.8371C97.5417 47.2668 96.2526 48.1262 94.9635 48.5559C93.2447 49.4153 91.5259 49.845 89.8071 50.2747C88.0883 50.7044 85.9398 51.1341 84.221 51.5638C81.2132 51.9935 76.4865 51.5638 74.338 53.7123C73.4786 54.5717 72.6192 55.431 71.7598 56.2904C70.9004 56.7201 69.6113 56.7202 68.3222 57.1499C65.744 57.5796 63.1658 59.2983 61.0173 60.5874C57.5797 62.7359 53.7125 66.1735 49.8452 67.0329C48.1264 67.4626 46.4076 67.0329 44.6888 67.0329C43.3997 67.0329 42.1106 67.4626 41.2512 67.8923C38.673 69.1814 36.5245 69.6111 33.9463 70.9002C32.2275 71.7596 30.0791 71.3299 27.9306 70.4705C26.2118 69.6111 24.0633 68.7517 22.3445 68.7517C21.9148 68.7517 21.0554 68.7517 20.6257 68.7517C19.7663 68.322 19.7663 67.4626 19.3366 67.0329C18.0475 65.3141 15.899 64.4547 14.1802 63.1656C13.3208 62.3062 12.4614 61.8765 12.0317 61.0171C10.7426 59.7281 9.02383 58.0092 8.16443 56.2904C8.16443 56.7201 8.16445 57.1498 8.59415 57.5795C9.45355 59.728 11.602 61.4468 12.8911 63.1656Z" fill="url(#paint14_radial_7_311)"/>
<path opacity="0.34" d="M32.2274 33.9462C34.8056 34.8056 36.9541 36.5244 39.5323 37.3838C49.4154 41.6808 56.2905 35.665 64.0251 30.9383C64.8845 30.5086 66.6033 29.2195 68.3221 28.3601C71.7597 26.6413 75.1973 24.9226 79.0645 24.9226C80.3536 24.9226 82.0724 24.9226 82.9318 23.6335C82.9318 23.2038 83.3615 22.7741 83.3615 22.7741C83.7912 22.7741 83.7912 22.7741 84.2209 22.3444C85.51 21.9147 86.3694 20.1959 87.2288 18.9068C87.6585 18.0474 90.2367 7.73461 89.3773 7.30492H88.9476C88.5179 10.3128 87.2288 16.3286 86.7991 16.7583C86.3694 18.0474 85.51 19.7662 83.7912 20.1959C83.3615 20.1959 83.3615 20.1959 82.9318 20.6256C82.5021 20.6256 82.5021 21.0553 82.5021 21.485C81.6427 22.7741 79.9239 22.3444 78.6348 22.7741C74.7676 22.7741 71.33 24.4928 67.8924 26.2116C66.1736 27.071 64.8845 27.9304 63.5954 28.7898C55.8608 33.5165 48.9857 39.5323 39.1026 35.2353C37.3838 34.3759 35.2353 33.0868 33.5165 32.2274C30.9383 31.7977 28.3602 30.9383 26.2117 30.5086C24.9226 30.0789 22.3444 28.7898 21.485 30.0789C24.4929 32.6571 28.3602 33.0868 32.2274 33.9462Z" fill="url(#paint15_radial_7_311)"/>
<path opacity="0.34" d="M31.7977 109.573C37.3838 107.425 39.5323 101.839 46.4075 100.979C48.556 100.549 50.2748 100.979 52.4233 101.409C55.8609 102.268 56.2906 103.128 58.8687 105.276C59.7281 105.706 60.5875 105.706 61.4469 105.276C62.3063 104.846 63.1657 104.417 64.0251 103.987C66.1736 102.698 68.3221 102.698 70.9003 102.698C71.33 102.698 72.1894 102.698 72.6191 102.268C75.1973 100.979 75.627 98.4009 78.6349 97.1118C80.7833 96.2524 82.5022 95.8227 84.6506 94.1039C88.0882 91.5257 89.807 89.3772 89.3773 88.9475C88.9476 88.5179 87.2288 90.6663 83.7913 92.8148C82.0725 93.6742 79.924 94.9634 77.7755 95.8227C77.3458 95.8227 76.9161 96.2524 76.4864 96.2524C75.1973 97.5415 74.3379 99.2603 72.6191 100.12C72.1894 100.549 71.33 100.549 70.9003 100.549C68.7518 100.549 66.1736 100.549 64.0251 101.838C63.1657 102.268 62.3063 103.128 61.4469 103.128C60.5875 103.557 59.7281 103.557 58.8687 103.128C56.2906 100.979 55.8609 100.12 52.4233 99.2603C50.2748 98.8306 48.556 98.4009 46.4075 98.8306C39.5323 99.69 37.3838 105.276 31.7977 107.425C30.9383 107.854 30.079 107.854 29.2196 107.854C27.5008 107.854 25.3523 107.854 23.2038 107.854C21.0553 107.425 18.9068 106.995 17.6177 106.135C17.188 106.135 17.188 106.135 16.7583 106.135C17.6177 108.714 20.6256 109.573 24.0632 110.003C26.2117 110.432 28.3602 110.003 30.079 110.003C30.079 110.003 30.9383 110.003 31.7977 109.573Z" fill="url(#paint16_radial_7_311)"/>
<path opacity="0.34" d="M41.2509 53.7124C42.1103 53.7124 42.54 53.7124 43.8291 53.7124C45.5479 53.7124 47.2667 52.4233 48.9855 52.4233C51.134 51.9936 53.2824 52.4233 55.0012 51.1342C55.8606 50.7045 56.2903 49.8451 57.1497 48.9857C59.2982 46.8372 61.8764 45.5481 64.8843 45.1184C66.6031 45.1184 68.3219 45.1184 70.0407 44.6887C72.1892 44.259 73.908 43.3996 76.0565 43.8293C76.9159 43.8293 78.2049 44.2591 79.0643 44.2591C79.9237 44.2591 80.7832 43.3996 81.6426 42.9699C83.3614 42.1105 85.9395 42.9699 88.088 42.5402C88.5177 42.5402 89.3771 42.1105 89.8068 41.6808C91.0959 40.8214 91.5256 40.3918 92.385 39.9621C93.2444 39.5324 94.1038 39.5323 95.8226 39.5323C96.2523 39.5323 96.682 39.5323 97.1117 39.1026C99.2602 38.6729 100.979 36.9541 103.127 36.0947C106.135 34.376 108.284 30.9384 109.573 27.9305C110.003 26.2117 111.721 20.1959 110.003 18.9068C110.003 21.0553 109.143 24.4929 108.714 25.782C107.424 29.2196 105.276 32.2275 102.268 33.9463C100.549 35.2353 98.4008 36.5244 96.2523 36.9541C95.8226 36.9541 95.3929 36.9542 94.9632 37.3839C93.2444 37.3839 92.385 37.3839 91.5256 37.8136C90.6662 38.2433 90.2365 38.6729 88.9474 39.5323C88.5177 39.962 87.6583 40.3917 87.2286 40.3917C85.0801 40.8214 82.5019 39.9621 80.7831 40.8215C79.9237 41.2511 79.0644 42.1106 78.205 42.1106C77.3456 42.1106 76.0565 42.1105 75.1971 41.6808C73.0486 41.2511 71.3298 42.5402 69.1813 42.5402C67.4625 42.9699 65.7437 42.5402 64.0249 42.9699C61.017 43.3996 58.4388 44.6887 56.2903 46.8372C55.431 47.6966 55.0013 48.1263 54.1419 48.9857C52.4231 50.2748 49.8449 49.8451 48.1261 50.2748C47.6964 50.2748 47.6964 50.2748 47.2667 50.2748C46.837 50.7045 46.4073 51.1342 45.9776 51.1342C45.1182 51.5639 44.2588 51.9936 43.3994 52.4233C42.54 52.853 41.6806 52.853 41.2509 52.853C39.9618 52.853 39.5321 52.853 39.1024 52.853C39.1024 52.853 39.9618 53.2827 41.2509 53.7124Z" fill="url(#paint17_radial_7_311)"/>
<path opacity="0.34" d="M126.761 47.6965C124.613 51.1341 122.464 54.5717 120.745 58.439C119.886 59.7281 119.027 61.4469 117.737 62.3063C116.878 63.1657 115.159 63.1657 114.3 63.5954C112.581 64.0251 110.003 64.0251 108.284 64.8845C106.995 65.7439 106.565 67.033 105.276 67.4627C104.417 67.8924 103.128 68.3221 102.268 68.3221C97.5416 69.1815 93.2447 69.6112 88.518 68.7518C83.7913 68.3221 79.0646 66.6033 74.3379 66.1736C73.0488 66.1736 71.7597 66.1736 70.4706 66.6033C66.1736 67.4627 61.8767 69.1815 58.4391 72.1894C55.4312 74.7676 53.7124 79.4942 50.7045 81.213C48.9857 82.0724 46.8372 82.0724 44.6887 82.0724C42.1105 82.5021 39.1027 84.2209 36.5245 83.7912C34.376 83.3615 32.6572 81.6427 30.079 81.213C29.2196 81.213 28.3602 81.213 27.5008 81.213C25.3523 81.213 23.2038 81.2131 21.0553 80.7834C19.3365 80.3537 17.6177 79.4942 16.3286 78.2051C15.4692 77.3457 15.0396 76.0567 13.7505 75.1973C13.3208 75.1973 12.8911 75.1972 12.8911 74.7675C11.1723 74.3378 9.88319 73.9082 8.59409 73.0488C8.1644 73.0488 7.73469 72.6191 7.30499 72.6191C6.87529 72.6191 6.4456 72.1894 6.4456 72.1894C6.01591 72.1894 6.87529 73.9082 7.30499 73.9082C7.73469 74.7676 8.59408 74.7676 9.45348 75.1973C10.3129 75.627 11.602 75.627 12.8911 76.0567C13.3208 76.0567 14.1801 76.4863 14.6098 76.916C15.8989 77.7754 16.3287 79.0645 17.6178 80.3536C18.9068 81.6427 20.6256 82.5022 22.3444 82.9319C24.4929 83.3615 26.6414 83.7912 28.7899 83.3615C29.6493 83.3615 30.5087 83.3615 31.3681 83.3615C33.5166 83.7912 35.2354 85.51 37.8136 85.9397C40.3918 86.3694 43.3996 84.6506 45.9778 84.2209C48.1263 83.7912 50.2748 84.2209 51.9936 83.3615C55.0015 81.6427 56.7203 76.9161 59.7282 74.3379C63.1658 71.33 67.4627 69.6112 71.7597 68.7518C73.0488 68.7518 74.3379 68.3221 75.627 68.3221C80.3537 68.7518 85.0804 70.0409 89.8071 70.9003C94.5337 71.33 98.8307 70.9003 103.557 70.4706C104.847 70.4706 105.706 70.0409 106.565 69.6112C107.854 68.7518 108.284 67.4627 109.573 67.033C111.292 66.1736 113.87 66.1736 115.589 65.7439C116.878 65.3142 118.167 65.3142 119.027 64.4548C120.316 63.5954 121.175 61.8766 122.034 60.5875C124.183 57.1499 125.902 53.2826 128.05 49.845C129.769 46.8371 132.777 44.6887 130.628 41.6808C130.199 43.3996 128.05 45.1183 126.761 47.6965Z" fill="url(#paint18_radial_7_311)"/>
<path opacity="0.34" d="M137.074 69.6112V70.0409C137.074 71.33 136.215 72.619 135.355 73.4784C133.636 75.6269 131.058 76.916 128.48 76.916C126.331 76.916 122.894 77.3458 121.605 79.4943C120.745 80.3536 120.316 81.213 119.456 81.6427C118.597 82.0724 117.308 82.0725 116.448 82.9318C115.589 83.7912 115.589 85.0803 114.73 85.9397C113.87 87.6585 112.151 88.5179 110.433 88.9476C109.573 89.3773 108.714 89.3773 107.854 89.3773L107.425 89.807C105.706 91.5258 104.417 92.3852 104.417 92.3852C104.417 92.8149 107.854 91.0961 108.284 91.0961C109.573 91.0961 110.433 90.6664 111.292 90.6664C113.011 90.2367 114.73 89.3773 115.589 87.6585C116.019 86.7991 116.448 85.0803 117.308 84.6506C118.167 83.7912 119.456 83.7912 120.316 83.3615C121.175 82.9318 122.035 82.0724 122.464 81.213C124.183 79.4942 127.191 79.0646 129.339 78.6349C131.918 78.2052 134.496 76.9161 136.215 75.1973C137.074 74.3379 137.504 73.0488 137.933 71.7597C137.933 70.4706 137.933 69.6112 137.074 69.6112Z" fill="url(#paint19_radial_7_311)"/>
<path opacity="0.34" d="M123.324 98.8308C121.175 100.12 119.026 100.979 118.597 101.409C116.878 102.698 115.159 104.417 113.011 104.417C112.581 104.417 111.722 104.417 111.292 104.417C110.433 104.417 109.573 104.847 108.714 105.276C105.706 106.995 103.128 110.003 101.839 113.011C100.979 114.73 100.55 116.448 98.8307 117.308C97.1119 118.597 95.3931 118.597 93.6743 119.456C91.9555 120.745 90.6664 122.894 88.9476 124.183C86.7991 125.472 84.6507 124.613 82.5022 124.613C80.3537 124.613 78.6349 125.042 76.9161 125.902C75.1973 126.331 73.4785 126.331 72.1894 125.472C71.7597 125.042 71.33 124.613 70.9003 124.183C70.4706 123.753 69.6112 123.753 69.1815 123.324C66.6033 122.894 59.2985 120.316 56.7203 122.034C55.8609 122.464 55.4312 122.894 55.0015 123.324C53.2827 125.042 51.1342 126.331 48.9857 125.042C48.556 124.613 47.6966 124.183 47.2669 124.183C46.8372 124.183 45.9778 124.613 45.5481 125.042C44.6887 125.472 43.3996 126.331 42.5402 126.331C41.6808 126.331 40.8214 126.331 39.962 125.902C37.3838 125.042 35.2353 124.613 33.5165 123.753C32.2275 123.753 31.3681 123.324 30.079 123.324C33.0869 125.902 36.5244 126.761 40.3917 128.05C41.2511 128.48 42.1105 128.48 42.9699 128.48C44.259 128.48 45.1184 128.05 45.9778 127.191C46.4075 126.761 46.8372 126.331 47.6966 126.331C48.1263 126.331 48.9857 126.761 49.4154 127.191C51.5639 128.05 53.7124 126.761 55.4312 125.472C55.8609 125.042 56.2906 124.613 57.15 124.183C60.1578 122.894 67.033 125.042 69.6112 125.472C70.0409 125.472 70.9003 125.902 71.33 126.331C71.7597 126.761 72.1894 127.191 72.6191 127.621C73.9082 128.91 75.627 128.48 77.3458 128.05C79.0646 127.621 81.2131 127.191 82.9319 126.761C85.0803 126.761 87.2288 127.621 89.3773 126.331C91.5258 125.042 92.3852 122.894 94.104 121.605C95.8228 120.745 97.9713 120.316 99.2604 119.456C100.549 118.167 101.409 116.448 102.268 115.159C103.557 112.151 106.136 109.144 109.143 107.425C110.003 106.995 110.862 106.565 111.722 106.565C112.151 106.565 113.011 106.565 113.44 106.565C115.589 106.565 117.308 105.276 119.027 103.557C119.886 102.698 131.058 97.5417 131.058 97.9714C131.488 97.112 128.48 97.5417 123.324 98.8308Z" fill="url(#paint20_radial_7_311)"/>
</g>
<path opacity="0.35" d="M45.5479 114.729C45.5479 117.308 42.9697 119.026 40.3915 119.026C38.243 119.026 36.0946 118.167 34.8055 116.448C33.9461 115.159 34.3758 113.44 35.6649 112.581C36.0946 111.722 36.5243 111.292 36.954 110.862C38.2431 110.003 39.5322 110.003 40.8213 110.432C43.3994 110.862 45.5479 112.151 45.5479 114.729ZM76.0565 104.846C74.3377 104.846 71.3298 105.276 69.611 106.565C69.1813 106.565 69.1813 106.565 68.7516 106.565C64.4547 108.284 63.5952 113.44 68.3219 115.589C72.1892 117.308 79.0644 116.448 81.6426 113.011C82.9317 111.292 82.9317 109.143 82.0723 107.425C80.3535 105.706 78.205 105.276 76.0565 104.846ZM86.799 105.276C86.3693 105.276 86.3693 105.706 86.799 105.276C85.5099 105.706 85.0802 106.135 84.6505 106.995C84.2208 107.425 84.2208 108.714 84.6505 109.143C85.0802 110.003 85.5099 110.432 85.9396 110.862C86.799 111.292 87.2287 111.292 88.0881 110.862H88.5178C89.3772 110.432 89.8069 110.003 90.2366 109.573C90.6663 109.143 90.6663 107.854 90.2366 107.425C89.8069 106.565 89.3772 106.135 88.9475 105.706C88.0881 105.276 87.2287 105.276 86.799 105.276ZM21.9145 93.6742C21.4848 93.6742 21.0551 93.6742 21.0551 93.2445C20.1957 93.2445 19.3363 93.2445 18.9066 93.6742C18.4769 94.1039 17.6175 94.9633 17.6175 95.393C17.6175 96.2524 17.6175 97.1118 18.0472 97.5415C18.4769 97.9712 18.9066 98.4009 19.766 98.8306C20.1957 98.8306 20.6254 98.8305 20.6254 99.2602C21.4848 99.2602 22.3442 99.2603 22.7739 98.8306C23.2036 98.4009 24.063 97.5415 24.063 97.1118C24.063 96.2524 24.063 95.393 23.6333 94.9633C23.2036 94.1039 22.3442 93.6742 21.9145 93.6742ZM67.4625 90.6663C69.1813 89.8069 71.3298 88.5178 71.7595 86.3693C72.1892 84.6505 71.3298 82.9317 69.611 82.0723C67.4625 81.2129 66.1734 81.6426 64.0249 82.0723C61.8764 82.0723 60.5874 82.5021 59.2983 82.9318C58.8686 82.9318 58.8686 82.9317 58.4389 83.3614C56.7201 84.2208 53.7122 85.0802 52.4231 86.799C51.5637 88.5178 52.4231 90.6663 54.1419 91.9554C58.0092 94.1039 63.5953 92.3851 67.4625 90.6663ZM47.2667 89.3772C46.837 88.5178 46.4073 88.0881 45.9776 87.6584C45.9776 87.6584 45.5479 87.6584 45.5479 87.2287C44.6885 86.799 44.2588 86.799 43.3994 87.2287C42.54 87.2287 42.1103 88.0881 41.6806 88.5178C41.2509 89.3772 41.2509 89.8069 41.6806 90.6663C42.1103 91.5257 42.54 91.9554 42.9697 92.3851C42.9697 92.3851 43.3994 92.3851 43.3994 92.8148C44.2588 93.2445 44.6885 93.2445 45.5479 92.8148C46.4073 92.8148 46.837 91.9554 47.2667 91.5257C47.6964 90.6663 47.6964 90.2366 47.2667 89.3772ZM61.0171 126.331C57.5795 127.62 59.2983 132.777 62.7359 131.917C66.1735 130.628 64.4547 125.042 61.0171 126.331ZM110.432 49.4153C109.573 50.7044 109.143 52.4231 110.432 53.2825C110.862 53.7122 111.721 54.1419 112.581 54.1419C113.44 54.1419 113.87 53.7122 114.729 53.2825C115.159 52.8528 116.018 52.4232 116.018 51.5638C116.448 50.7044 116.448 50.2747 116.018 49.4153C116.018 48.5559 115.159 48.1261 114.729 47.6964C113.87 47.2668 113.44 47.2668 112.581 47.6964C111.721 48.1261 110.862 48.5559 110.432 49.4153ZM114.729 42.9698C116.448 42.9698 117.737 41.6807 119.026 40.8213C121.175 38.6728 122.894 35.2352 121.175 32.657C120.315 30.9382 118.167 30.5086 116.448 31.368C114.3 32.6571 113.011 34.3758 111.721 36.5243C111.292 37.8134 110.432 39.1025 110.862 40.3916C110.862 42.5401 112.581 43.3995 114.729 42.9698ZM113.44 76.4863C113.87 76.4863 114.3 76.0565 114.3 75.6268C114.729 75.1971 115.159 74.3377 115.159 73.4783C115.159 72.6189 114.729 71.7596 114.3 71.3299C113.87 70.9002 113.011 70.4705 112.151 70.4705C111.721 70.4705 111.292 70.4705 111.292 70.4705C110.862 70.4705 110.432 70.4705 110.003 70.9002C109.573 70.9002 109.143 71.3299 109.143 71.7596C108.714 72.1893 108.284 73.0487 108.284 73.9081C108.284 74.7675 108.714 75.6269 109.143 76.0566C109.573 76.4863 110.432 76.9159 111.292 76.9159C111.721 76.9159 112.151 76.9159 112.151 76.9159C113.011 76.4862 113.011 76.4863 113.44 76.4863ZM129.769 61.0171C127.62 58.8686 124.612 60.1577 122.464 61.8765C120.315 63.5953 118.597 65.7438 117.737 68.322C117.308 70.0408 119.026 72.1893 120.745 72.619C122.894 73.4784 127.62 70.4705 128.909 68.7517C131.058 67.0329 132.347 63.5953 129.769 61.0171ZM128.48 91.5257C127.62 94.1039 124.183 95.8227 121.605 95.8227C119.886 95.8227 117.737 94.5336 116.878 92.8148C116.448 91.096 117.737 89.8069 118.597 88.9475C119.886 87.6584 121.605 85.9396 123.323 85.9396C127.191 85.0802 129.769 88.5178 128.48 91.5257ZM119.886 89.8069C119.456 89.8069 119.456 89.8069 119.886 89.8069V89.8069ZM110.862 111.292C110.432 111.292 110.432 111.292 110.003 111.292C109.143 111.292 108.714 111.721 107.854 112.151C107.424 112.581 106.995 113.44 106.995 114.3C106.995 115.159 107.424 116.018 107.854 116.448C108.284 116.878 109.143 117.308 110.003 117.308C110.432 117.308 110.432 117.308 110.862 117.308C111.721 117.308 112.151 116.878 113.011 116.448C113.44 116.018 113.87 115.159 113.87 114.3C113.87 113.44 113.44 112.581 113.011 112.151C112.151 111.721 111.292 111.292 110.862 111.292ZM25.7818 59.2984C27.0709 57.1499 24.9224 55.431 23.2036 54.1419C21.9145 52.8528 19.766 51.9935 18.0472 51.5638C17.6175 51.5638 16.7581 51.5638 16.3284 51.5638C14.6096 51.5638 13.3206 53.7122 13.3206 55.431C13.3206 57.1498 15.469 58.439 16.7581 59.2984C19.3363 61.4468 23.6333 62.7359 25.7818 59.2984ZM36.0945 64.4547C36.0945 64.025 36.5242 63.5953 36.0945 63.1656C36.0945 62.7359 36.0946 62.3062 35.6649 61.8765C35.2352 61.0171 34.3758 60.5874 33.9461 60.1577C33.0867 59.728 31.7976 59.728 30.9382 60.1577C30.5085 60.1577 30.5085 60.1577 30.0788 60.5874C29.2194 61.0171 28.7897 61.4468 28.36 61.8765C27.5006 63.1656 28.36 64.8844 29.6491 65.7438C30.0788 66.1735 30.9382 66.1735 31.3679 66.6032C32.2273 66.6032 33.0867 66.6032 33.9461 66.6032C35.2352 65.7438 36.0945 65.3141 36.0945 64.4547ZM85.5099 36.954C86.799 36.5243 88.0881 34.8056 87.2287 33.5165C86.799 32.2274 85.0802 31.3679 83.7911 31.7976C83.3614 31.7976 82.502 32.2274 82.0723 32.2274C80.7832 32.657 79.4941 34.3759 80.3535 35.665C80.7832 36.954 82.502 37.8134 83.7911 37.3837C84.2208 37.3837 85.0802 37.3837 85.5099 36.954ZM92.8147 27.9304C90.6663 27.9304 89.8069 25.3522 90.6663 23.6334C91.5257 21.4849 92.385 19.3364 94.1038 17.6176C95.8226 15.8988 98.8305 14.6097 100.549 16.7582C101.838 18.477 100.979 21.4849 100.12 23.2037C99.2602 24.9225 97.5414 26.2115 95.8226 27.5006C94.5335 28.36 93.6741 28.3601 92.8147 27.9304ZM92.8147 22.774C92.8147 22.3443 92.8147 22.774 92.8147 22.774C92.8147 22.3443 92.8147 22.3443 92.8147 22.774C92.8147 22.774 92.8147 22.3443 92.8147 22.774ZM67.0328 18.9067C66.6031 18.9067 66.6031 18.9067 66.1734 18.9067C65.314 18.9067 64.8843 19.3364 64.0249 19.7661C63.5952 20.1958 63.1656 21.0552 63.1656 21.9146C63.1656 22.774 63.5952 23.6333 64.0249 24.063C64.4546 24.4927 65.314 24.9225 66.1734 24.9225C66.6031 24.9225 66.6031 24.9225 67.0328 24.9225C67.8922 24.9225 68.3219 24.4927 69.1813 24.063C69.611 23.6333 70.0407 22.774 70.0407 21.9146C70.0407 21.0552 69.611 20.1958 69.1813 19.7661C68.7516 18.9067 67.8922 18.477 67.0328 18.9067ZM74.7674 21.4849C73.908 21.9146 72.6189 21.4849 72.1892 21.0552C71.3298 20.1958 71.3298 18.9067 71.3298 17.6176C71.3298 16.7582 71.3298 15.8988 71.7595 15.4691C72.6189 12.8909 75.1971 9.88303 77.7753 11.6018C79.4941 11.6018 81.2129 13.3206 81.2129 15.0394C81.2129 18.0473 77.3456 20.6255 74.7674 21.4849ZM78.6347 16.7582C79.0644 16.3285 79.0644 16.3285 78.6347 16.7582V16.7582Z" fill="url(#paint21_radial_7_311)"/>
<g opacity="0.35">
<g opacity="0.35">
<path opacity="0.35" d="M83.7908 104.417C85.0799 103.987 84.2205 102.268 83.3611 102.698C82.072 103.128 82.9314 104.846 83.7908 104.417Z" fill="url(#paint22_radial_7_311)"/>
</g>
<g opacity="0.35">
<path opacity="0.35" d="M85.5097 114.3C86.7988 113.87 85.9394 112.151 85.08 112.581C83.7909 113.011 84.6503 114.3 85.5097 114.3Z" fill="url(#paint23_radial_7_311)"/>
</g>
<g opacity="0.35">
<path opacity="0.35" d="M96.2526 110.003C97.5417 109.573 96.6823 107.854 95.8229 108.284C94.5338 108.714 94.9635 110.432 96.2526 110.003Z" fill="url(#paint24_radial_7_311)"/>
</g>
<g opacity="0.35">
<path opacity="0.35" d="M109.143 80.7834C110.432 80.3537 109.573 78.6348 108.713 79.0645C107.854 79.4942 108.284 81.2131 109.143 80.7834Z" fill="url(#paint25_radial_7_311)"/>
</g>
<g opacity="0.35">
<path opacity="0.35" d="M113.87 79.9238C115.159 79.4941 114.3 77.7754 113.44 78.2051C112.151 78.6348 112.581 80.3535 113.87 79.9238Z" fill="url(#paint26_radial_7_311)"/>
</g>
<g opacity="0.35">
<path opacity="0.35" d="M126.761 58.4389C128.05 58.0092 127.191 56.2905 126.331 56.7202C125.472 57.1498 125.902 58.8686 126.761 58.4389Z" fill="url(#paint27_radial_7_311)"/>
</g>
<g opacity="0.35">
<path opacity="0.35" d="M19.766 92.3852C21.0551 91.9555 20.1957 90.2367 19.3363 90.6664C18.0472 91.0961 18.4769 92.3852 19.766 92.3852Z" fill="url(#paint28_radial_7_311)"/>
</g>
<g opacity="0.35">
<path opacity="0.35" d="M27.0707 99.2602C28.3598 98.8305 27.5005 97.1118 26.6411 97.5415C25.7817 97.9712 26.2113 99.6899 27.0707 99.2602Z" fill="url(#paint29_radial_7_311)"/>
</g>
<g opacity="0.35">
<path opacity="0.35" d="M44.2586 121.605C45.5477 121.175 44.6883 119.456 43.8289 119.886C42.5398 120.316 42.9695 122.034 44.2586 121.605Z" fill="url(#paint30_radial_7_311)"/>
</g>
<g opacity="0.35">
<path opacity="0.35" d="M49.4153 116.878C50.7044 116.448 49.845 114.73 48.9856 115.159C47.6965 115.589 48.1262 117.308 49.4153 116.878Z" fill="url(#paint31_radial_7_311)"/>
</g>
<g opacity="0.35">
<path opacity="0.35" d="M67.8922 130.199C69.1813 129.769 68.3219 128.05 67.4625 128.48C66.1734 128.91 67.0328 130.628 67.8922 130.199Z" fill="url(#paint32_radial_7_311)"/>
</g>
<g opacity="0.35">
<path opacity="0.35" d="M105.706 119.456C106.995 119.026 106.135 117.308 105.276 117.737C104.417 118.167 104.846 119.886 105.706 119.456Z" fill="url(#paint33_radial_7_311)"/>
</g>
<g opacity="0.35">
<path opacity="0.35" d="M111.721 120.745C113.01 120.315 112.151 118.597 111.292 119.026C110.002 119.456 110.862 121.175 111.721 120.745Z" fill="url(#paint34_radial_7_311)"/>
</g>
<g opacity="0.35">
<path opacity="0.35" d="M78.2049 33.9462C79.494 33.5165 78.6346 31.7977 77.7752 32.2274C76.4861 32.2274 76.9158 33.9462 78.2049 33.9462Z" fill="url(#paint35_radial_7_311)"/>
</g>
<g opacity="0.35">
<path opacity="0.35" d="M82.0724 29.6492C83.3615 29.2195 82.5021 27.5008 81.6427 27.9305C80.3536 28.3602 81.213 30.0789 82.0724 29.6492Z" fill="url(#paint36_radial_7_311)"/>
</g>
<g opacity="0.35">
<path opacity="0.35" d="M25.3519 62.7359C26.641 62.3062 25.7817 60.5874 24.9223 61.0171C23.6332 61.4468 24.4926 63.1656 25.3519 62.7359Z" fill="url(#paint37_radial_7_311)"/>
</g>
<g opacity="0.35">
<path opacity="0.35" d="M21.9145 51.5639C23.2036 51.1342 22.3442 49.4154 21.4848 49.8451C20.1957 50.2748 20.6254 51.9936 21.9145 51.5639Z" fill="url(#paint38_radial_7_311)"/>
</g>
<g opacity="0.35">
<path opacity="0.35" d="M37.3836 61.4469C38.6727 61.0172 37.8133 59.2984 36.9539 59.7281C35.6648 60.1578 36.0945 61.8766 37.3836 61.4469Z" fill="url(#paint39_radial_7_311)"/>
</g>
<g opacity="0.35">
<path opacity="0.35" d="M39.1025 64.8844C40.3915 64.4547 39.5322 62.7359 38.6728 63.1656C37.3837 63.5953 37.8134 65.3141 39.1025 64.8844Z" fill="url(#paint40_radial_7_311)"/>
</g>
<g opacity="0.35">
<path opacity="0.35" d="M58.0093 25.782C59.2984 25.3523 58.439 23.6335 57.5796 24.0632C56.2905 24.4929 56.7202 26.2117 58.0093 25.782Z" fill="url(#paint41_radial_7_311)"/>
</g>
<g opacity="0.35">
<path opacity="0.35" d="M56.7201 21.0553C58.0092 20.6256 57.1498 18.9068 56.2904 19.3365C55.0013 19.7662 55.8607 21.4849 56.7201 21.0553Z" fill="url(#paint42_radial_7_311)"/>
</g>
<g opacity="0.35">
<path opacity="0.35" d="M67.892 18.0474C69.1811 17.6177 68.3217 15.899 67.4623 16.3287C66.1732 16.7584 66.6029 18.0474 67.892 18.0474Z" fill="url(#paint43_radial_7_311)"/>
</g>
<g opacity="0.35">
<path opacity="0.35" d="M69.6111 14.1801C70.9002 13.7504 70.0408 12.0316 69.1814 12.4613C67.8923 12.891 68.7517 14.6098 69.6111 14.1801Z" fill="url(#paint44_radial_7_311)"/>
</g>
</g>
</g>
<defs>
<radialGradient id="paint0_radial_7_311" cx="0" cy="0" r="1" gradientUnits="userSpaceOnUse" gradientTransform="translate(72.4425 71.6831) rotate(-17.8479) scale(71.8437)">
<stop stop-color="#8EE1EE"/>
<stop offset="0.8587" stop-color="#8EE1EE" stop-opacity="0.1413"/>
<stop offset="1" stop-color="#8EE1EE" stop-opacity="0"/>
</radialGradient>
<radialGradient id="paint1_radial_7_311" cx="0" cy="0" r="1" gradientUnits="userSpaceOnUse" gradientTransform="translate(75.4813 146.574) rotate(-85.2012) scale(178.357)">
<stop offset="0.274826" stop-color="#8EE1EE" stop-opacity="0"/>
<stop offset="0.6169" stop-color="#5E8DEC"/>
<stop offset="0.6298" stop-color="#5F89E8"/>
<stop offset="0.745" stop-color="#6B64C7"/>
<stop offset="0.8386" stop-color="#714EB3"/>
<stop offset="0.8985" stop-color="#7446AC"/>
</radialGradient>
<radialGradient id="paint2_radial_7_311" cx="0" cy="0" r="1" gradientUnits="userSpaceOnUse" gradientTransform="translate(24.3898 26.5723) rotate(-17.8479) scale(68.085 68.085)">
<stop stop-color="#8EE1EE"/>
<stop offset="0.6169" stop-color="#5E8DEC"/>
<stop offset="0.6298" stop-color="#5F89E8"/>
<stop offset="0.745" stop-color="#6B64C7"/>
<stop offset="0.8386" stop-color="#714EB3"/>
<stop offset="0.8985" stop-color="#7446AC"/>
</radialGradient>
<radialGradient id="paint3_radial_7_311" cx="0" cy="0" r="1" gradientUnits="userSpaceOnUse" gradientTransform="translate(23.9482 26.2071) rotate(-17.8479) scale(65.2575 65.2575)">
<stop stop-color="#8EE1EE"/>
<stop offset="0.6169" stop-color="#5E8DEC"/>
<stop offset="0.6298" stop-color="#5F89E8"/>
<stop offset="0.745" stop-color="#6B64C7"/>
<stop offset="0.8386" stop-color="#714EB3"/>
<stop offset="0.8985" stop-color="#7446AC"/>
</radialGradient>
<radialGradient id="paint4_radial_7_311" cx="0" cy="0" r="1" gradientUnits="userSpaceOnUse" gradientTransform="translate(17.3246 86.3452) rotate(-17.8479) scale(103.784 103.784)">
<stop stop-color="#8EE1EE"/>
<stop offset="0.6169" stop-color="#5E8DEC"/>
<stop offset="0.6298" stop-color="#5F89E8"/>
<stop offset="0.745" stop-color="#6B64C7"/>
<stop offset="0.8386" stop-color="#714EB3"/>
<stop offset="0.8985" stop-color="#7446AC"/>
</radialGradient>
<radialGradient id="paint5_radial_7_311" cx="0" cy="0" r="1" gradientUnits="userSpaceOnUse" gradientTransform="translate(33.3651 43.5234) rotate(3.19319) scale(57.4195 57.4197)">
<stop stop-color="#8EE1EE"/>
<stop offset="0.6169" stop-color="#5E8DEC"/>
<stop offset="0.6298" stop-color="#5F89E8"/>
<stop offset="0.745" stop-color="#6B64C7"/>
<stop offset="0.8386" stop-color="#714EB3"/>
<stop offset="0.8985" stop-color="#7446AC"/>
</radialGradient>
<radialGradient id="paint6_radial_7_311" cx="0" cy="0" r="1" gradientUnits="userSpaceOnUse" gradientTransform="translate(53.2383 3.61496) rotate(-17.8479) scale(147.69 147.69)">
<stop stop-color="#8EE1EE"/>
<stop offset="0.6169" stop-color="#5E8DEC"/>
<stop offset="0.6298" stop-color="#5F89E8"/>
<stop offset="0.745" stop-color="#6B64C7"/>
<stop offset="0.8386" stop-color="#714EB3"/>
<stop offset="0.8985" stop-color="#7446AC"/>
</radialGradient>
<radialGradient id="paint7_radial_7_311" cx="0" cy="0" r="1" gradientUnits="userSpaceOnUse" gradientTransform="translate(53.233 3.6048) rotate(-17.8479) scale(147.7 147.701)">
<stop stop-color="#8EE1EE"/>
<stop offset="0.6169" stop-color="#5E8DEC"/>
<stop offset="0.6298" stop-color="#5F89E8"/>
<stop offset="0.745" stop-color="#6B64C7"/>
<stop offset="0.8386" stop-color="#714EB3"/>
<stop offset="0.8985" stop-color="#7446AC"/>
</radialGradient>
<radialGradient id="paint8_radial_7_311" cx="0" cy="0" r="1" gradientUnits="userSpaceOnUse" gradientTransform="translate(53.2352 3.60656) rotate(-17.8479) scale(147.7 147.7)">
<stop stop-color="#8EE1EE"/>
<stop offset="0.6169" stop-color="#5E8DEC"/>
<stop offset="0.6298" stop-color="#5F89E8"/>
<stop offset="0.745" stop-color="#6B64C7"/>
<stop offset="0.8386" stop-color="#714EB3"/>
<stop offset="0.8985" stop-color="#7446AC"/>
</radialGradient>
<radialGradient id="paint9_radial_7_311" cx="0" cy="0" r="1" gradientUnits="userSpaceOnUse" gradientTransform="translate(53.2332 3.60373) rotate(-17.8479) scale(147.705 147.705)">
<stop stop-color="#8EE1EE"/>
<stop offset="0.6169" stop-color="#5E8DEC"/>
<stop offset="0.6298" stop-color="#5F89E8"/>
<stop offset="0.745" stop-color="#6B64C7"/>
<stop offset="0.8386" stop-color="#714EB3"/>
<stop offset="0.8985" stop-color="#7446AC"/>
</radialGradient>
<radialGradient id="paint10_radial_7_311" cx="0" cy="0" r="1" gradientUnits="userSpaceOnUse" gradientTransform="translate(53.2385 3.61402) rotate(-17.8479) scale(147.688 147.688)">
<stop stop-color="#8EE1EE"/>
<stop offset="0.6169" stop-color="#5E8DEC"/>
<stop offset="0.6298" stop-color="#5F89E8"/>
<stop offset="0.745" stop-color="#6B64C7"/>
<stop offset="0.8386" stop-color="#714EB3"/>
<stop offset="0.8985" stop-color="#7446AC"/>
</radialGradient>
<radialGradient id="paint11_radial_7_311" cx="0" cy="0" r="1" gradientUnits="userSpaceOnUse" gradientTransform="translate(53.2377 3.61923) rotate(-17.8479) scale(147.686 147.686)">
<stop stop-color="#8EE1EE"/>
<stop offset="0.6169" stop-color="#5E8DEC"/>
<stop offset="0.6298" stop-color="#5F89E8"/>
<stop offset="0.745" stop-color="#6B64C7"/>
<stop offset="0.8386" stop-color="#714EB3"/>
<stop offset="0.8985" stop-color="#7446AC"/>
</radialGradient>
<radialGradient id="paint12_radial_7_311" cx="0" cy="0" r="1" gradientUnits="userSpaceOnUse" gradientTransform="translate(53.2371 3.61061) rotate(-17.8479) scale(147.694 147.694)">
<stop stop-color="#8EE1EE"/>
<stop offset="0.6169" stop-color="#5E8DEC"/>
<stop offset="0.6298" stop-color="#5F89E8"/>
<stop offset="0.745" stop-color="#6B64C7"/>
<stop offset="0.8386" stop-color="#714EB3"/>
<stop offset="0.8985" stop-color="#7446AC"/>
</radialGradient>
<radialGradient id="paint13_radial_7_311" cx="0" cy="0" r="1" gradientUnits="userSpaceOnUse" gradientTransform="translate(62.3739 24.8144) rotate(-17.8479) scale(108.504 108.504)">
<stop stop-color="#8EE1EE"/>
<stop offset="0.6169" stop-color="#5E8DEC"/>
<stop offset="0.6298" stop-color="#5F89E8"/>
<stop offset="0.745" stop-color="#6B64C7"/>
<stop offset="0.8386" stop-color="#714EB3"/>
<stop offset="0.8985" stop-color="#7446AC"/>
</radialGradient>
<radialGradient id="paint14_radial_7_311" cx="0" cy="0" r="1" gradientUnits="userSpaceOnUse" gradientTransform="translate(63.2755 3.92361) rotate(-17.8479) scale(151.988 151.988)">
<stop stop-color="#8EE1EE"/>
<stop offset="0.6169" stop-color="#5E8DEC"/>
<stop offset="0.6298" stop-color="#5F89E8"/>
<stop offset="0.745" stop-color="#6B64C7"/>
<stop offset="0.8386" stop-color="#714EB3"/>
<stop offset="0.8985" stop-color="#7446AC"/>
</radialGradient>
<radialGradient id="paint15_radial_7_311" cx="0" cy="0" r="1" gradientUnits="userSpaceOnUse" gradientTransform="translate(63.2776 3.92748) rotate(-17.8479) scale(151.978 151.978)">
<stop stop-color="#8EE1EE"/>
<stop offset="0.6169" stop-color="#5E8DEC"/>
<stop offset="0.6298" stop-color="#5F89E8"/>
<stop offset="0.745" stop-color="#6B64C7"/>
<stop offset="0.8386" stop-color="#714EB3"/>
<stop offset="0.8985" stop-color="#7446AC"/>
</radialGradient>
<radialGradient id="paint16_radial_7_311" cx="0" cy="0" r="1" gradientUnits="userSpaceOnUse" gradientTransform="translate(63.2728 3.91825) rotate(-17.8479) scale(151.998 151.998)">
<stop stop-color="#8EE1EE"/>
<stop offset="0.6169" stop-color="#5E8DEC"/>
<stop offset="0.6298" stop-color="#5F89E8"/>
<stop offset="0.745" stop-color="#6B64C7"/>
<stop offset="0.8386" stop-color="#714EB3"/>
<stop offset="0.8985" stop-color="#7446AC"/>
</radialGradient>
<radialGradient id="paint17_radial_7_311" cx="0" cy="0" r="1" gradientUnits="userSpaceOnUse" gradientTransform="translate(63.2767 3.92819) rotate(-17.8479) scale(151.982 151.982)">
<stop stop-color="#8EE1EE"/>
<stop offset="0.6169" stop-color="#5E8DEC"/>
<stop offset="0.6298" stop-color="#5F89E8"/>
<stop offset="0.745" stop-color="#6B64C7"/>
<stop offset="0.8386" stop-color="#714EB3"/>
<stop offset="0.8985" stop-color="#7446AC"/>
</radialGradient>
<radialGradient id="paint18_radial_7_311" cx="0" cy="0" r="1" gradientUnits="userSpaceOnUse" gradientTransform="translate(63.2742 3.92092) rotate(-17.8479) scale(151.993 151.993)">
<stop stop-color="#8EE1EE"/>
<stop offset="0.6169" stop-color="#5E8DEC"/>
<stop offset="0.6298" stop-color="#5F89E8"/>
<stop offset="0.745" stop-color="#6B64C7"/>
<stop offset="0.8386" stop-color="#714EB3"/>
<stop offset="0.8985" stop-color="#7446AC"/>
</radialGradient>
<radialGradient id="paint19_radial_7_311" cx="0" cy="0" r="1" gradientUnits="userSpaceOnUse" gradientTransform="translate(63.2763 3.93151) rotate(-17.8479) scale(151.98 151.98)">
<stop stop-color="#8EE1EE"/>
<stop offset="0.6169" stop-color="#5E8DEC"/>
<stop offset="0.6298" stop-color="#5F89E8"/>
<stop offset="0.745" stop-color="#6B64C7"/>
<stop offset="0.8386" stop-color="#714EB3"/>
<stop offset="0.8985" stop-color="#7446AC"/>
</radialGradient>
<radialGradient id="paint20_radial_7_311" cx="0" cy="0" r="1" gradientUnits="userSpaceOnUse" gradientTransform="translate(63.2727 3.92065) rotate(-17.8479) scale(151.992 151.992)">
<stop stop-color="#8EE1EE"/>
<stop offset="0.6169" stop-color="#5E8DEC"/>
<stop offset="0.6298" stop-color="#5F89E8"/>
<stop offset="0.745" stop-color="#6B64C7"/>
<stop offset="0.8386" stop-color="#714EB3"/>
<stop offset="0.8985" stop-color="#7446AC"/>
</radialGradient>
<radialGradient id="paint21_radial_7_311" cx="0" cy="0" r="1" gradientUnits="userSpaceOnUse" gradientTransform="translate(60.0306 12.7908) rotate(-17.8479) scale(133.306 133.306)">
<stop stop-color="#8EE1EE"/>
<stop offset="0.6169" stop-color="#5E8DEC"/>
<stop offset="0.6298" stop-color="#5F89E8"/>
<stop offset="0.745" stop-color="#6B64C7"/>
<stop offset="0.8386" stop-color="#714EB3"/>
<stop offset="0.8985" stop-color="#7446AC"/>
</radialGradient>
<radialGradient id="paint22_radial_7_311" cx="0" cy="0" r="1" gradientUnits="userSpaceOnUse" gradientTransform="translate(83.5884 103.694) rotate(-17.8481) scale(0.863294 0.863304)">
<stop stop-color="#8EE1EE"/>
<stop offset="0.6169" stop-color="#5E8DEC"/>
<stop offset="0.6298" stop-color="#5F89E8"/>
<stop offset="0.745" stop-color="#6B64C7"/>
<stop offset="0.8386" stop-color="#714EB3"/>
<stop offset="0.8985" stop-color="#7446AC"/>
</radialGradient>
<radialGradient id="paint23_radial_7_311" cx="0" cy="0" r="1" gradientUnits="userSpaceOnUse" gradientTransform="translate(85.2562 113.309) rotate(-17.8477) scale(0.863286 0.863277)">
<stop stop-color="#8EE1EE"/>
<stop offset="0.6169" stop-color="#5E8DEC"/>
<stop offset="0.6298" stop-color="#5F89E8"/>
<stop offset="0.745" stop-color="#6B64C7"/>
<stop offset="0.8386" stop-color="#714EB3"/>
<stop offset="0.8985" stop-color="#7446AC"/>
</radialGradient>
<radialGradient id="paint24_radial_7_311" cx="0" cy="0" r="1" gradientUnits="userSpaceOnUse" gradientTransform="translate(95.8048 109.12) rotate(-17.8477) scale(0.863286 0.863278)">
<stop stop-color="#8EE1EE"/>
<stop offset="0.6169" stop-color="#5E8DEC"/>
<stop offset="0.6298" stop-color="#5F89E8"/>
<stop offset="0.745" stop-color="#6B64C7"/>
<stop offset="0.8386" stop-color="#714EB3"/>
<stop offset="0.8985" stop-color="#7446AC"/>
</radialGradient>
<radialGradient id="paint25_radial_7_311" cx="0" cy="0" r="1" gradientUnits="userSpaceOnUse" gradientTransform="translate(108.995 80.1276) rotate(-17.8483) scale(0.863288 0.863303)">
<stop stop-color="#8EE1EE"/>
<stop offset="0.6169" stop-color="#5E8DEC"/>
<stop offset="0.6298" stop-color="#5F89E8"/>
<stop offset="0.745" stop-color="#6B64C7"/>
<stop offset="0.8386" stop-color="#714EB3"/>
<stop offset="0.8985" stop-color="#7446AC"/>
</radialGradient>
<radialGradient id="paint26_radial_7_311" cx="0" cy="0" r="1" gradientUnits="userSpaceOnUse" gradientTransform="translate(113.59 79.124) rotate(-17.8476) scale(0.86329 0.863278)">
<stop stop-color="#8EE1EE"/>
<stop offset="0.6169" stop-color="#5E8DEC"/>
<stop offset="0.6298" stop-color="#5F89E8"/>
<stop offset="0.745" stop-color="#6B64C7"/>
<stop offset="0.8386" stop-color="#714EB3"/>
<stop offset="0.8985" stop-color="#7446AC"/>
</radialGradient>
<radialGradient id="paint27_radial_7_311" cx="0" cy="0" r="1" gradientUnits="userSpaceOnUse" gradientTransform="translate(126.655 57.6274) rotate(-17.8476) scale(0.863292 0.863278)">
<stop stop-color="#8EE1EE"/>
<stop offset="0.6169" stop-color="#5E8DEC"/>
<stop offset="0.6298" stop-color="#5F89E8"/>
<stop offset="0.745" stop-color="#6B64C7"/>
<stop offset="0.8386" stop-color="#714EB3"/>
<stop offset="0.8985" stop-color="#7446AC"/>
</radialGradient>
<radialGradient id="paint28_radial_7_311" cx="0" cy="0" r="1" gradientUnits="userSpaceOnUse" gradientTransform="translate(19.3473 91.3835) rotate(-17.8483) scale(0.863289 0.863305)">
<stop stop-color="#8EE1EE"/>
<stop offset="0.6169" stop-color="#5E8DEC"/>
<stop offset="0.6298" stop-color="#5F89E8"/>
<stop offset="0.745" stop-color="#6B64C7"/>
<stop offset="0.8386" stop-color="#714EB3"/>
<stop offset="0.8985" stop-color="#7446AC"/>
</radialGradient>
<radialGradient id="paint29_radial_7_311" cx="0" cy="0" r="1" gradientUnits="userSpaceOnUse" gradientTransform="translate(27.0105 98.4335) rotate(-17.8477) scale(0.863286 0.863278)">
<stop stop-color="#8EE1EE"/>
<stop offset="0.6169" stop-color="#5E8DEC"/>
<stop offset="0.6298" stop-color="#5F89E8"/>
<stop offset="0.745" stop-color="#6B64C7"/>
<stop offset="0.8386" stop-color="#714EB3"/>
<stop offset="0.8985" stop-color="#7446AC"/>
</radialGradient>
<radialGradient id="paint30_radial_7_311" cx="0" cy="0" r="1" gradientUnits="userSpaceOnUse" gradientTransform="translate(43.8754 120.763) rotate(-17.8483) scale(0.863289 0.863303)">
<stop stop-color="#8EE1EE"/>
<stop offset="0.6169" stop-color="#5E8DEC"/>
<stop offset="0.6298" stop-color="#5F89E8"/>
<stop offset="0.745" stop-color="#6B64C7"/>
<stop offset="0.8386" stop-color="#714EB3"/>
<stop offset="0.8985" stop-color="#7446AC"/>
</radialGradient>
<radialGradient id="paint31_radial_7_311" cx="0" cy="0" r="1" gradientUnits="userSpaceOnUse" gradientTransform="translate(49.0797 116.233) rotate(-17.8476) scale(0.86329 0.863278)">
<stop stop-color="#8EE1EE"/>
<stop offset="0.6169" stop-color="#5E8DEC"/>
<stop offset="0.6298" stop-color="#5F89E8"/>
<stop offset="0.745" stop-color="#6B64C7"/>
<stop offset="0.8386" stop-color="#714EB3"/>
<stop offset="0.8985" stop-color="#7446AC"/>
</radialGradient>
<radialGradient id="paint32_radial_7_311" cx="0" cy="0" r="1" gradientUnits="userSpaceOnUse" gradientTransform="translate(67.7113 129.269) rotate(-17.8483) scale(0.863288 0.863303)">
<stop stop-color="#8EE1EE"/>
<stop offset="0.6169" stop-color="#5E8DEC"/>
<stop offset="0.6298" stop-color="#5F89E8"/>
<stop offset="0.745" stop-color="#6B64C7"/>
<stop offset="0.8386" stop-color="#714EB3"/>
<stop offset="0.8985" stop-color="#7446AC"/>
</radialGradient>
<radialGradient id="paint33_radial_7_311" cx="0" cy="0" r="1" gradientUnits="userSpaceOnUse" gradientTransform="translate(105.59 118.818) rotate(-17.8483) scale(0.863288 0.863303)">
<stop stop-color="#8EE1EE"/>
<stop offset="0.6169" stop-color="#5E8DEC"/>
<stop offset="0.6298" stop-color="#5F89E8"/>
<stop offset="0.745" stop-color="#6B64C7"/>
<stop offset="0.8386" stop-color="#714EB3"/>
<stop offset="0.8985" stop-color="#7446AC"/>
</radialGradient>
<radialGradient id="paint34_radial_7_311" cx="0" cy="0" r="1" gradientUnits="userSpaceOnUse" gradientTransform="translate(111.499 119.929) rotate(-17.8476) scale(0.863292 0.863278)">
<stop stop-color="#8EE1EE"/>
<stop offset="0.6169" stop-color="#5E8DEC"/>
<stop offset="0.6298" stop-color="#5F89E8"/>
<stop offset="0.745" stop-color="#6B64C7"/>
<stop offset="0.8386" stop-color="#714EB3"/>
<stop offset="0.8985" stop-color="#7446AC"/>
</radialGradient>
<radialGradient id="paint35_radial_7_311" cx="0" cy="0" r="1" gradientUnits="userSpaceOnUse" gradientTransform="translate(77.7738 32.9157) rotate(-17.8477) scale(0.863286 0.863277)">
<stop stop-color="#8EE1EE"/>
<stop offset="0.6169" stop-color="#5E8DEC"/>
<stop offset="0.6298" stop-color="#5F89E8"/>
<stop offset="0.745" stop-color="#6B64C7"/>
<stop offset="0.8386" stop-color="#714EB3"/>
<stop offset="0.8985" stop-color="#7446AC"/>
</radialGradient>
<radialGradient id="paint36_radial_7_311" cx="0" cy="0" r="1" gradientUnits="userSpaceOnUse" gradientTransform="translate(81.874 28.8992) rotate(-17.8477) scale(0.863286 0.863278)">
<stop stop-color="#8EE1EE"/>
<stop offset="0.6169" stop-color="#5E8DEC"/>
<stop offset="0.6298" stop-color="#5F89E8"/>
<stop offset="0.745" stop-color="#6B64C7"/>
<stop offset="0.8386" stop-color="#714EB3"/>
<stop offset="0.8985" stop-color="#7446AC"/>
</radialGradient>
<radialGradient id="paint37_radial_7_311" cx="0" cy="0" r="1" gradientUnits="userSpaceOnUse" gradientTransform="translate(25.1393 62.076) rotate(-17.8477) scale(0.863286 0.863278)">
<stop stop-color="#8EE1EE"/>
<stop offset="0.6169" stop-color="#5E8DEC"/>
<stop offset="0.6298" stop-color="#5F89E8"/>
<stop offset="0.745" stop-color="#6B64C7"/>
<stop offset="0.8386" stop-color="#714EB3"/>
<stop offset="0.8985" stop-color="#7446AC"/>
</radialGradient>
<radialGradient id="paint38_radial_7_311" cx="0" cy="0" r="1" gradientUnits="userSpaceOnUse" gradientTransform="translate(21.4839 50.7218) rotate(-17.8483) scale(0.863289 0.863303)">
<stop stop-color="#8EE1EE"/>
<stop offset="0.6169" stop-color="#5E8DEC"/>
<stop offset="0.6298" stop-color="#5F89E8"/>
<stop offset="0.745" stop-color="#6B64C7"/>
<stop offset="0.8386" stop-color="#714EB3"/>
<stop offset="0.8985" stop-color="#7446AC"/>
</radialGradient>
<radialGradient id="paint39_radial_7_311" cx="0" cy="0" r="1" gradientUnits="userSpaceOnUse" gradientTransform="translate(36.9007 60.6686) rotate(-17.8483) scale(0.863289 0.863303)">
<stop stop-color="#8EE1EE"/>
<stop offset="0.6169" stop-color="#5E8DEC"/>
<stop offset="0.6298" stop-color="#5F89E8"/>
<stop offset="0.745" stop-color="#6B64C7"/>
<stop offset="0.8386" stop-color="#714EB3"/>
<stop offset="0.8985" stop-color="#7446AC"/>
</radialGradient>
<radialGradient id="paint40_radial_7_311" cx="0" cy="0" r="1" gradientUnits="userSpaceOnUse" gradientTransform="translate(38.6788 64.2208) rotate(-17.8477) scale(0.863286 0.863278)">
<stop stop-color="#8EE1EE"/>
<stop offset="0.6169" stop-color="#5E8DEC"/>
<stop offset="0.6298" stop-color="#5F89E8"/>
<stop offset="0.745" stop-color="#6B64C7"/>
<stop offset="0.8386" stop-color="#714EB3"/>
<stop offset="0.8985" stop-color="#7446AC"/>
</radialGradient>
<radialGradient id="paint41_radial_7_311" cx="0" cy="0" r="1" gradientUnits="userSpaceOnUse" gradientTransform="translate(57.6556 25.117) rotate(-17.8482) scale(0.863293 0.863304)">
<stop stop-color="#8EE1EE"/>
<stop offset="0.6169" stop-color="#5E8DEC"/>
<stop offset="0.6298" stop-color="#5F89E8"/>
<stop offset="0.745" stop-color="#6B64C7"/>
<stop offset="0.8386" stop-color="#714EB3"/>
<stop offset="0.8985" stop-color="#7446AC"/>
</radialGradient>
<radialGradient id="paint42_radial_7_311" cx="0" cy="0" r="1" gradientUnits="userSpaceOnUse" gradientTransform="translate(56.5593 20.235) rotate(-17.8477) scale(0.863286 0.863278)">
<stop stop-color="#8EE1EE"/>
<stop offset="0.6169" stop-color="#5E8DEC"/>
<stop offset="0.6298" stop-color="#5F89E8"/>
<stop offset="0.745" stop-color="#6B64C7"/>
<stop offset="0.8386" stop-color="#714EB3"/>
<stop offset="0.8985" stop-color="#7446AC"/>
</radialGradient>
<radialGradient id="paint43_radial_7_311" cx="0" cy="0" r="1" gradientUnits="userSpaceOnUse" gradientTransform="translate(67.4314 17.0522) rotate(-17.8477) scale(0.863286 0.863277)">
<stop stop-color="#8EE1EE"/>
<stop offset="0.6169" stop-color="#5E8DEC"/>
<stop offset="0.6298" stop-color="#5F89E8"/>
<stop offset="0.745" stop-color="#6B64C7"/>
<stop offset="0.8386" stop-color="#714EB3"/>
<stop offset="0.8985" stop-color="#7446AC"/>
</radialGradient>
<radialGradient id="paint44_radial_7_311" cx="0" cy="0" r="1" gradientUnits="userSpaceOnUse" gradientTransform="translate(69.4271 13.3958) rotate(-17.8483) scale(0.863288 0.863303)">
<stop stop-color="#8EE1EE"/>
<stop offset="0.6169" stop-color="#5E8DEC"/>
<stop offset="0.6298" stop-color="#5F89E8"/>
<stop offset="0.745" stop-color="#6B64C7"/>
<stop offset="0.8386" stop-color="#714EB3"/>
<stop offset="0.8985" stop-color="#7446AC"/>
</radialGradient>
</defs>
</svg>
