<svg width="44" height="62" viewBox="0 0 44 62" fill="none" xmlns="http://www.w3.org/2000/svg">
<g opacity="0.7" filter="url(#filter0_f_7_387)">
<path d="M47.854 61C64.4225 61 77.854 47.5685 77.854 31C77.854 14.4315 64.4225 1 47.854 1C31.2855 1 17.854 14.4315 17.854 31C17.854 47.5685 31.2855 61 47.854 61Z" fill="url(#paint0_radial_7_387)"/>
<path d="M47.8541 58.4074C62.9907 58.4074 75.2615 46.1367 75.2615 31C75.2615 15.8633 62.9907 3.59259 47.8541 3.59259C32.7174 3.59259 20.4467 15.8633 20.4467 31C20.4467 46.1367 32.7174 58.4074 47.8541 58.4074Z" fill="url(#paint1_radial_7_387)"/>
<path opacity="0.5" d="M75.235 30.127C75.235 30.0476 75.235 29.9683 75.235 29.8889C75.235 29.6508 75.2086 29.4127 75.2086 29.2011C75.2086 29.1481 75.2086 29.0688 75.2086 29.0159C75.1821 28.7249 75.1556 28.4339 75.1292 28.1429C75.1292 28.0899 75.1292 28.037 75.1027 27.9841C75.0763 27.746 75.0498 27.5079 75.0234 27.2698C75.0234 27.1905 74.9969 27.1111 74.9969 27.0582C74.944 26.7672 74.9176 26.5026 74.8646 26.2116C74.8117 25.9206 74.7588 25.6296 74.7059 25.3386C74.7059 25.2857 74.6795 25.2328 74.6795 25.1534C74.6266 24.9153 74.5736 24.6772 74.5207 24.4392C74.5207 24.3862 74.4943 24.3598 74.4943 24.3069C74.4149 24.0159 74.3355 23.7249 74.2562 23.4603V23.4339C74.1768 23.1693 74.0975 22.9048 74.0181 22.6402C73.9916 22.5873 73.9916 22.5608 73.9652 22.5079C73.78 21.9524 73.5684 21.3968 73.3567 20.8413C73.3567 20.8148 73.3303 20.7884 73.3303 20.7619C73.2244 20.4974 73.1186 20.2328 73.0128 19.9947C73.0128 19.9683 72.9863 19.9683 72.9863 19.9418C72.7482 19.3862 72.4837 18.8571 72.1927 18.328C72.1927 18.3016 72.1662 18.3016 72.1662 18.2751C71.8752 17.746 71.5842 17.2169 71.2668 16.7143C72.0869 19.8095 73.198 24.5714 70.1821 25.5238C66.3197 26.7672 60.6318 22.9048 50.9493 28.1429C41.2668 33.4074 42.6424 39.7566 34.071 41.8466C25.4996 43.9101 20.9229 35.8148 20.9229 35.8148L21.3197 37.6402C24.071 48.8307 33.7271 57.3228 45.4996 58.3545C45.6318 58.3545 45.7906 58.381 45.9228 58.381C46.0287 58.381 46.1345 58.4074 46.2403 58.4074C46.4255 58.4074 46.6371 58.4339 46.8223 58.4339C46.9017 58.4339 47.0075 58.4339 47.0869 58.4339C47.3779 58.4339 47.6424 58.4603 47.9334 58.4603C63.0657 58.4603 75.3408 46.1852 75.3408 31.0529C75.2615 30.709 75.2615 30.418 75.235 30.127Z" fill="url(#paint2_radial_7_387)"/>
<path opacity="0.34" d="M74.2297 29.5714C74.2297 29.4921 74.2297 29.4127 74.2297 29.3333C74.2297 29.0952 74.2033 28.8836 74.2033 28.6455C74.2033 28.5926 74.2033 28.5132 74.2033 28.4603C74.1768 28.1693 74.1504 27.9048 74.1239 27.6138C74.1239 27.5608 74.1239 27.5079 74.0974 27.455C74.071 27.2169 74.0445 26.9788 74.0181 26.7407C74.0181 26.6614 73.9916 26.6085 73.9916 26.5291C73.9387 26.2645 73.9123 25.9735 73.8594 25.709C73.8064 25.418 73.7535 25.1534 73.7006 24.8624C73.7006 24.8095 73.6742 24.7566 73.6742 24.7037C73.6213 24.4656 73.5683 24.2275 73.5154 23.9894C73.5154 23.9365 73.489 23.91 73.489 23.8571C73.4096 23.5661 73.3302 23.3016 73.2509 23.0106V22.9841C73.1715 22.7196 73.0922 22.455 73.0128 22.1905C72.9863 22.1376 72.9863 22.1111 72.9599 22.0582C72.7747 21.5026 72.5895 20.9735 72.3779 20.418C72.3779 20.3915 72.3514 20.3651 72.3514 20.3386C72.2456 20.0741 72.1398 19.836 72.034 19.5714C72.034 19.545 72.0075 19.545 72.0075 19.5185C71.7694 18.9894 71.5049 18.4603 71.2403 17.9312C71.2403 17.9048 71.2139 17.9048 71.2139 17.8783C71.0287 17.5608 70.8699 17.2434 70.6847 16.8995C70.8435 17.2434 71.0287 17.5873 71.1874 17.9312C71.1874 17.9577 71.2139 17.9577 71.2139 17.9841C71.3197 18.2487 71.4255 18.4868 71.5313 18.7513C71.5313 18.7778 71.5578 18.8042 71.5578 18.8307C71.7694 19.3598 71.981 19.9153 72.1398 20.4709C72.1662 20.5238 72.1662 20.5503 72.1927 20.6032C72.272 20.8677 72.3514 21.1323 72.4308 21.3968V21.4233C72.5101 21.7143 72.5895 21.9788 72.6689 22.2698C72.6689 22.3227 72.6953 22.3492 72.6953 22.4021C72.7482 22.6402 72.8011 22.8783 72.8541 23.1164C72.8541 23.1693 72.8805 23.2222 72.8805 23.2751C72.9334 23.5661 72.9863 23.8307 73.0392 24.1217C73.0922 24.3862 73.1186 24.6772 73.1715 24.9418C73.1715 25.0212 73.198 25.0741 73.198 25.1534C73.2244 25.3915 73.2509 25.6296 73.2773 25.8677C73.2773 25.9206 73.2773 25.9735 73.3038 26.0265C73.3302 26.3175 73.3567 26.582 73.3832 26.873C73.3832 26.9259 73.3832 27.0053 73.3832 27.0582C73.4096 27.2963 73.4096 27.5079 73.4096 27.746C73.4096 27.8254 73.4096 27.9048 73.4096 27.9841C73.4096 28.2751 73.4361 28.5661 73.4361 28.8571C73.4361 43.6984 61.399 55.7354 46.5578 55.7354C46.2932 55.7354 46.0022 55.7354 45.7112 55.709C45.6318 55.709 45.5525 55.709 45.4467 55.709C45.2615 55.709 45.0498 55.6825 44.8646 55.6825C44.7588 55.6825 44.653 55.6825 44.5472 55.6561C44.4149 55.6561 44.2826 55.6296 44.1239 55.6296C35.2086 54.836 27.5631 49.7037 23.2773 42.3757C27.3514 50.5503 35.4467 56.3704 44.9705 57.2169C45.1027 57.2169 45.235 57.2434 45.3937 57.2434C45.4996 57.2434 45.6054 57.2698 45.7112 57.2698C45.8964 57.2698 46.108 57.2963 46.2932 57.2963C46.3726 57.2963 46.4519 57.2963 46.5578 57.2963C46.8488 57.2963 47.1133 57.3228 47.4043 57.3228C62.2456 57.3228 74.2826 45.2857 74.2826 30.4444C74.2562 30.1534 74.2297 29.8624 74.2297 29.5714Z" fill="url(#paint3_radial_7_387)"/>
<path opacity="0.6" d="M66.7429 20.3651C66.5841 20.4974 66.4254 20.6032 66.2402 20.709C65.473 21.1058 64.6 21.2116 63.727 21.3175C61.928 21.5291 60.1026 21.7672 58.3037 22.0582C54.0709 22.7196 49.7587 23.5926 46.1608 25.8942C43.9122 27.3228 42.0074 29.254 40.1026 31.1323C38.1979 33.0106 36.1873 34.8624 33.8064 36.0794C31.4254 37.2963 28.5683 37.8254 26.055 36.9788C20.0233 34.9153 21.69 27.5608 23.1714 22.8783C26.6106 12.0847 36.928 4.54498 48.2508 4.54498C53.3302 4.54498 58.3566 6.02646 62.6159 8.80424C66.0815 11.0794 70.6582 14.6508 67.8275 19.2011C67.5101 19.5979 67.1661 20.0212 66.7429 20.3651Z" fill="url(#paint4_radial_7_387)"/>
<path opacity="0.6" d="M23.6741 23.7513C27.1133 12.9577 37.4308 5.418 48.7535 5.418C53.8329 5.418 58.8593 6.89948 63.1186 9.67726C64.9175 10.8413 67.0075 12.3757 68.2244 14.2275C67.1926 11.9788 64.7059 10.127 62.6159 8.75133C58.3567 5.97355 53.3302 4.49207 48.2509 4.49207C36.9281 4.49207 26.6106 12.0318 23.1715 22.8254C22.0339 26.3968 20.817 31.5026 22.9599 34.6773C21.5577 31.5026 22.6424 26.9788 23.6741 23.7513Z" fill="url(#paint5_radial_7_387)"/>
<path opacity="0.34" d="M39.2297 11.9524C40.526 13.5132 39.3355 16.6085 36.6106 18.8571C33.8858 21.1058 30.6053 21.6349 29.3355 20.0741C28.0392 18.5132 29.2297 15.418 31.9545 13.1693C34.6794 10.9471 37.9334 10.3915 39.2297 11.9524Z" fill="url(#paint6_radial_7_387)"/>
<path opacity="0.34" d="M47.3778 8.5926C47.7217 9.6508 46.5048 11.0265 44.6529 11.6349C42.8011 12.2434 41.0021 11.873 40.6582 10.8148C40.3143 9.75662 41.5312 8.38096 43.3831 7.77249C45.235 7.16402 47.0339 7.5344 47.3778 8.5926Z" fill="url(#paint7_radial_7_387)"/>
<path opacity="0.5" d="M63.542 20.2328C63.3303 20.3122 63.0922 20.3651 62.907 20.3915C62.6954 20.418 62.5102 20.3915 62.2721 20.3122C61.7959 20.2063 61.2404 19.9682 60.5261 19.9418C60.1557 19.9418 59.8383 20.0212 59.5737 20.0741C59.3092 20.1534 59.0975 20.2063 58.9388 20.2328C58.7536 20.2593 58.6478 20.2593 58.5155 20.2593C58.3832 20.2593 58.251 20.2063 58.1187 20.1799C57.8541 20.1005 57.5631 19.9683 57.325 19.8889C56.8224 19.6772 56.5578 19.5714 56.5578 19.5714C56.5578 19.5714 56.2668 19.4656 55.7642 19.3069C55.2615 19.1481 54.5208 18.8836 53.6213 18.6455C52.7219 18.4074 51.6637 18.1429 50.4996 17.9841C49.3356 17.8254 48.0658 17.7725 46.7959 17.9312C45.5261 18.0899 44.2827 18.4868 43.251 18.9894C42.2192 19.4921 41.2933 19.9418 40.4732 20.1005C40.0499 20.1799 39.6795 20.2063 39.3356 20.2063C38.9917 20.1799 38.7007 20.127 38.4626 20.0476C37.9864 19.9153 37.7483 19.7302 37.6954 19.7831C37.669 19.8095 37.8277 20.1005 38.3303 20.3915C38.5684 20.5238 38.8859 20.6561 39.2827 20.7354C40.0499 20.8942 40.8171 20.7354 41.5578 20.8148C42.4309 20.9206 43.2774 21.4233 44.1769 21.1852C44.5473 21.0794 44.8912 20.8677 45.2351 20.6825C46.3197 20.1005 47.616 19.9153 48.8065 20.1799C49.5208 20.3386 50.1822 20.6296 50.8965 20.7354C51.743 20.8677 52.6425 20.7619 53.4361 21.1323C53.833 21.291 54.1769 21.582 54.6002 21.6349C55.0234 21.6878 55.4203 21.4762 55.8171 21.3968C56.6637 21.2381 57.616 21.9259 58.4891 21.9788C58.7536 22.0053 59.0975 21.9524 59.3621 21.873C59.9176 21.7407 60.3145 21.5556 60.6055 21.5291C60.9229 21.5026 61.3991 21.6614 62.034 21.7672C62.1928 21.7936 62.3779 21.8201 62.5631 21.8201C63.4626 21.8466 64.4414 21.5291 65.288 21.3175C66.743 20.9471 68.0129 20.0212 68.8594 18.8042C69.3356 18.1164 70.8171 15.6825 70.1028 15.1005C68.3303 16.3439 66.743 18.037 64.9705 19.3598C64.4679 19.7302 63.9917 20.0741 63.542 20.2328Z" fill="url(#paint8_radial_7_387)"/>
<path opacity="0.5" d="M68.2509 49.3069C67.6689 49.1481 66.3726 48.9365 64.653 48.8571C63.4626 48.8042 62.0604 48.8307 60.5525 48.963C59.0446 49.0952 57.4573 49.3862 55.8964 49.7831C55.1028 49.9682 54.3356 50.2063 53.5948 50.4709C53.2245 50.6032 52.8541 50.7354 52.4837 50.8677C52.1134 51 51.7694 51.1587 51.4255 51.291C50.0499 51.8465 48.8065 52.2963 47.7483 52.4286C46.6901 52.5873 45.8435 52.4286 45.2351 52.2963C44.944 52.2169 44.7059 52.1376 44.5472 52.0846C44.3885 52.0317 44.3091 52.0053 44.3091 52.0053C44.3091 52.0053 44.2298 51.9788 44.071 51.9259C43.9123 51.873 43.6742 51.7936 43.3567 51.6614C42.7483 51.4233 41.8753 51 40.7906 50.4973C39.706 49.9947 38.3832 49.4127 36.8224 49.0952C35.288 48.8042 33.6742 48.8307 32.1663 48.619C31.7959 48.5926 31.3991 48.5132 31.0287 48.4603C30.6583 48.3809 30.288 48.328 29.9176 48.2222C29.1769 48.0635 28.4626 47.8518 27.7747 47.6137C26.8753 47.2963 26.0552 46.9524 25.288 46.582C25.5525 46.9524 25.8171 47.3227 26.1081 47.6931C26.8753 48.4338 27.7218 48.9894 28.7007 49.6772C28.9652 49.8624 29.2562 50.0741 29.6001 50.1534C30.0499 50.2857 30.5261 50.1799 30.9758 50.0476C31.2139 49.9682 31.4784 49.8889 31.7165 49.9682C31.9811 50.0476 32.1134 50.3122 32.2985 50.4973C32.9599 51.1587 34.0975 50.9471 34.944 50.5238C35.2086 50.3915 35.4732 50.2328 35.7906 50.1799C37.0869 49.9682 39.5737 51.7407 40.6054 52.3492C40.8435 52.4815 41.0816 52.6402 41.2403 52.8783C41.3726 53.0899 41.3991 53.328 41.5049 53.5397C41.7959 54.1481 42.5896 54.3598 43.2774 54.3862C44.0975 54.4127 44.9176 54.4391 45.7112 54.6772C46.6107 54.9418 47.3515 55.4973 48.3567 55.2857C49.2827 55.1005 49.9705 54.3333 50.8964 54.1217C51.6636 53.9365 52.5102 54.1481 53.2509 53.8836C53.9652 53.6455 54.4414 53.0106 54.9705 52.4815C55.9229 51.5291 57.3779 50.5503 58.7007 50.2857C59.071 50.2063 59.4414 50.1799 59.7853 50.2857C60.0234 50.3651 60.2615 50.4973 60.4996 50.5767C61.3462 50.8413 62.2456 50.4709 63.0393 50.127C63.4097 49.9682 66.8753 49.5185 68.1186 49.4391C68.1716 49.3862 68.2245 49.3333 68.2509 49.3069Z" fill="url(#paint9_radial_7_387)"/>
<path opacity="0.5" d="M63.4097 32.4021C62.4309 32.5344 61.505 32.455 60.6584 32.2698C59.8118 32.0846 59.0446 31.6878 58.3568 31.3175C57.669 30.9206 57.034 30.4973 56.452 30.127C55.87 29.7566 55.3409 29.4127 54.8912 29.1746C54.6796 29.0423 54.4679 28.9365 54.2827 28.8571C54.0975 28.7778 53.9388 28.6984 53.8065 28.619C53.542 28.5132 53.4097 28.4339 53.4097 28.4339C53.4097 28.4339 53.3833 28.4074 53.3039 28.3809C53.2245 28.3545 53.1187 28.328 52.9864 28.2751C52.8542 28.2222 52.669 28.1693 52.4838 28.1164C52.378 28.0899 52.2722 28.0635 52.1663 28.037C52.0605 28.0106 51.9282 27.9841 51.796 27.9577C50.7642 27.7196 49.2298 27.6138 47.4838 27.7989C46.6108 27.8783 45.6848 28.037 44.706 28.2222C43.7272 28.4339 42.7483 28.672 41.7166 28.91C39.6796 29.3862 37.5102 29.8624 35.3674 29.7831L34.5737 29.7301C34.3092 29.7037 34.0446 29.6508 33.7801 29.6243C33.5155 29.5979 33.251 29.545 32.9864 29.4921C32.7219 29.4391 32.4573 29.3862 32.1928 29.3069C31.9282 29.2275 31.6901 29.1481 31.4256 29.0952C31.161 29.0159 30.9229 28.91 30.6848 28.8307C30.4468 28.7513 30.1822 28.6455 29.9441 28.5397C29.706 28.4339 29.4679 28.3545 29.2298 28.2222C27.3515 27.3492 25.7113 26.291 24.3621 25.2857C23.4362 24.6243 22.669 23.9894 22.0076 23.4603C21.9018 23.3545 22.0341 24.1481 22.0605 24.2275C22.2192 24.5714 22.5102 24.7831 22.8013 24.9682C23.1716 25.2328 23.6214 25.418 24.0182 25.6825C24.2298 25.8148 24.415 25.9735 24.5473 26.1852C24.9177 26.6878 24.997 27.3492 25.2616 27.9312C25.579 28.619 26.161 29.1481 26.796 29.545C27.5367 30.0212 28.3568 30.3915 29.2298 30.6032C29.5737 30.6825 29.9441 30.7619 30.288 30.9206C31.1346 31.3175 31.6372 32.2698 32.4573 32.6931C33.4891 33.2487 34.7589 32.8783 35.9229 33.037C36.7431 33.1693 37.5632 33.5661 38.3568 33.3545C39.8647 33.0106 41.1346 31.3968 42.6161 30.7884C44.3621 30.1005 46.2933 29.836 48.1452 30.1005C48.6478 30.1799 49.1769 30.2857 49.6531 30.4709C51.505 31.1587 53.1716 32.455 54.9706 33.2751C56.7431 34.0952 58.5155 34.4921 60.4732 34.7566C60.9229 34.836 61.3991 34.8889 61.8489 34.8095C62.4309 34.7037 62.8542 34.2275 63.3833 34.0952C64.0975 33.91 65.1822 34.2804 65.9229 34.3862C66.452 34.4656 67.0076 34.5185 67.5102 34.3862C68.1452 34.201 68.6743 33.7249 69.1505 33.2487C70.3938 32.0582 71.6637 30.9206 72.9864 29.836C73.7801 29.1746 74.7325 28.7249 75.0499 27.9312C74.997 27.5608 74.9706 27.164 74.8912 26.7936C72.9071 27.5608 71.0817 29.1217 69.2563 30.1799C67.4044 31.291 65.3674 32.164 63.4097 32.4021Z" fill="url(#paint10_radial_7_387)"/>
<path opacity="0.5" d="M23.8858 40.4709C24.7324 40.8677 25.6318 41.1323 26.2668 41.291C26.6107 41.3968 26.981 41.4762 27.3514 41.4497C29.9175 41.2381 31.5048 39.3333 34.2826 39.836C35.1821 39.9947 35.8699 40.3386 36.6371 40.7884C37.8805 41.5291 38.0128 42.0582 38.7006 43.1958C38.9123 43.5132 39.3355 43.619 39.7324 43.5926C40.1292 43.5397 40.4731 43.4074 40.8699 43.328C41.8223 43.1164 42.8011 43.4339 43.7535 43.672C43.9916 43.7249 44.2562 43.7778 44.4943 43.7513C45.6054 43.619 46.2667 42.5873 47.4572 42.4815C48.4096 42.4021 49.1768 42.4021 50.1556 42.0582C51.8223 41.4497 52.7747 40.7354 52.7218 40.6561C52.6689 40.5238 51.6107 41 49.944 41.3968C49.1239 41.582 48.1451 41.7407 47.0869 41.8201C46.0287 41.8995 44.9175 41.873 43.8064 41.7407C42.6953 41.6085 41.6107 41.3439 40.6318 41.0265C39.653 40.6825 38.78 40.3122 38.0392 39.8889C37.2985 39.4921 36.6371 39.1217 36.1609 38.91C35.9228 38.8042 35.7376 38.6984 35.5789 38.6455C35.4466 38.5926 35.3673 38.5661 35.3673 38.5661C35.3673 38.5661 35.2879 38.5397 35.1556 38.4868C35.0234 38.4339 34.8117 38.3809 34.5207 38.3016C34.2562 38.2487 33.9123 38.1693 33.489 38.1429C33.0921 38.1164 32.616 38.1164 32.1398 38.1693C31.6636 38.2222 31.1609 38.328 30.6847 38.4603C30.2085 38.5661 29.7324 38.672 29.2033 38.7778C28.198 38.9365 27.0869 39.0159 25.9757 38.963C24.8646 38.91 23.7535 38.7513 22.7747 38.4603C22.325 38.328 21.9017 38.1693 21.4784 37.9841C21.5313 39.1217 22.6424 39.9153 23.8858 40.4709Z" fill="url(#paint11_radial_7_387)"/>
<path opacity="0.5" d="M43.5684 13.328C42.5631 13.1693 41.5049 12.8518 40.4731 12.455C38.4096 11.6349 36.4784 10.3915 35.0498 9.46561C34.5472 9.14814 33.7271 8.27513 33.198 8.67195C34.2827 9.96825 35.7641 10.6296 37.1398 11.5291C38.0922 12.164 38.78 13.1429 39.6266 13.91C39.653 13.9365 39.653 13.9365 39.6795 13.963C42.9599 16.9259 46.4784 15.4709 50.1821 14.4921C50.6583 14.3598 51.3461 14.2011 52.1398 14.0688C53.6213 13.8571 55.3673 13.672 56.8488 14.0952C57.4043 14.254 58.0393 14.4921 58.489 14.1481C58.6213 14.0423 58.7006 13.91 58.8594 13.8836C58.9652 13.8571 59.0975 13.8571 59.2033 13.8836C59.8382 13.91 60.3673 13.3809 60.7641 12.8783C60.9758 12.6138 63.3303 8.80423 63.0393 8.61905C62.8276 8.48677 62.6424 8.35449 62.4308 8.24867C62.0869 8.98941 61.5313 9.80952 60.7906 10.4709C60.4202 10.8148 59.9969 11.1323 59.5472 11.3704C59.0975 11.6349 58.6213 11.8466 58.0922 11.9788C57.0604 12.2698 55.9758 12.3227 54.9176 12.3492C53.8594 12.3757 52.8276 12.3757 51.9017 12.455C50.9758 12.5344 50.2615 12.6931 49.7588 12.7989C49.2562 12.9048 48.9916 12.9577 48.9916 12.9577C48.9916 12.9577 48.7271 13.037 48.2509 13.1429C47.7747 13.2487 47.1133 13.4074 46.3197 13.4603C45.526 13.5132 44.5737 13.4868 43.5684 13.328Z" fill="url(#paint12_radial_7_387)"/>
<path opacity="0.5" d="M25.7377 17.5344C25.5789 17.2169 25.4202 16.8995 25.235 16.6085C24.8911 16.9788 24.8117 17.4021 24.8382 17.8518C24.9175 18.7513 25.4996 19.7566 25.7906 20.5503C25.9493 20.9735 26.108 21.3968 26.3461 21.7407C26.8752 22.5079 27.7747 23.037 27.9863 23.963C28.0657 24.2804 28.0392 24.6243 28.2773 24.8624C28.4361 25.0212 28.6477 25.0741 28.8594 25.127C29.653 25.3915 30.2615 26.0264 30.8699 26.6085C31.5049 27.164 32.272 27.6931 33.1186 27.5873C34.2033 27.455 35.2615 27.5079 36.3461 27.3492C36.8488 27.2698 37.3514 27.2963 37.8541 27.4286C38.5419 27.6137 39.1768 27.9841 39.8911 28.0899C41.4784 28.3016 43.5154 27.2963 45.0763 26.9524C46.1874 26.7143 47.325 26.3968 48.489 26.5291C48.9652 26.582 49.4414 26.7143 49.8911 26.6349C50.3937 26.5291 50.7906 26.2116 51.2403 25.9735C52.4837 25.3386 54.2297 26.0794 55.4996 26.3439C56.2932 26.5026 57.1398 26.6085 57.9599 26.6349C58.78 26.6614 59.5472 26.6085 60.3144 26.5555C61.0816 26.5026 61.7694 26.4233 62.4837 26.3439C62.8276 26.291 63.1715 26.2381 63.5154 26.1323C63.8593 26.0264 64.1768 25.8942 64.4414 25.7354C64.9969 25.418 65.4202 25.0212 65.7641 24.6508C66.108 24.2804 66.3461 23.91 66.5313 23.619C66.9017 23.037 67.0869 22.6667 67.0339 22.6402C66.981 22.6138 66.7165 22.9048 66.2403 23.4074C66.0022 23.6719 65.7112 23.963 65.3673 24.2804C65.0234 24.5979 64.6001 24.9153 64.0974 25.127C63.5948 25.3651 63.0128 25.4444 62.3514 25.4973C61.69 25.5238 60.9493 25.5503 60.235 25.5503C59.4943 25.5503 58.7535 25.5503 57.9863 25.4973C57.2191 25.4444 56.5049 25.3122 55.7377 25.1005C54.2297 24.7301 52.6953 24.1746 51.0816 24.0423C49.4678 23.91 48.0392 24.1217 46.8488 24.254C44.4678 24.545 42.907 24.7302 42.907 24.7302C42.907 24.7302 41.3461 24.9682 38.9916 25.3386C37.8011 25.4973 36.4784 25.8148 35.1821 25.6032C33.8858 25.3915 32.4837 24.6772 31.2138 23.8307C29.944 22.9841 28.78 21.9524 27.8541 20.8413C26.981 19.7302 26.2668 18.5926 25.7377 17.5344Z" fill="url(#paint13_radial_7_387)"/>
<path d="M24.9175 16C25.1027 16.3175 25.2614 16.6085 25.4201 16.9259C25.9757 17.9841 26.69 19.1217 27.6159 20.2063C28.5418 21.3175 29.7059 22.3492 30.9757 23.1958C32.2455 24.0423 33.6477 24.7566 34.944 24.9683C36.2138 25.1799 37.563 24.8624 38.7535 24.7037C41.108 24.3333 42.6688 24.0952 42.6688 24.0952C42.6688 24.0952 44.2561 23.9101 46.6106 23.619C47.8011 23.4868 49.2297 23.2751 50.8434 23.4074C52.4572 23.5661 53.9916 24.0952 55.4995 24.4656C56.2403 24.6508 56.981 24.7831 57.7482 24.8624C58.4889 24.9153 59.2561 24.9418 59.9969 24.9153C60.7376 24.8889 61.4519 24.8889 62.1133 24.8624C62.7746 24.836 63.3567 24.7302 63.8593 24.4921C64.3619 24.254 64.7852 23.963 65.1291 23.6455C65.4731 23.328 65.7641 23.037 66.0022 22.7725C66.4783 22.2698 66.7429 21.9524 66.7958 22.0053C66.8487 22.0317 66.6635 22.4021 66.2932 22.9841C66.108 23.2751 65.8434 23.6455 65.526 24.0159C65.1821 24.3862 64.7588 24.7831 64.2032 25.1005C63.9122 25.2593 63.5947 25.3915 63.2773 25.4974C62.9334 25.6032 62.5895 25.6561 62.2455 25.709C61.5577 25.7884 60.8434 25.8677 60.0762 25.9206C59.3355 25.9735 58.5418 26.0265 57.7217 26C56.9016 25.9735 56.0815 25.8677 55.2614 25.709C53.9916 25.4444 52.2455 24.7037 51.0022 25.3386C50.5524 25.5767 50.1291 25.8942 49.653 26C49.1768 26.0794 48.7006 25.9471 48.2508 25.8942C47.1133 25.7619 45.9757 26.0794 44.8381 26.3175C43.2773 26.6614 41.2402 27.6667 39.6529 27.455C38.9387 27.3492 38.3037 26.9788 37.6159 26.7936C37.1397 26.6614 36.6106 26.6349 36.108 26.7143C35.0233 26.873 33.9651 26.8201 32.8805 26.9524C32.0339 27.0582 31.2667 26.5291 30.6318 25.9735C29.9969 25.418 29.4149 24.7566 28.6212 24.4921C28.4096 24.4127 28.1979 24.3862 28.0392 24.2275C27.8011 24.0159 27.8276 23.6455 27.7482 23.328C27.5365 22.4286 26.6371 21.873 26.108 21.1058C25.8699 20.7354 25.6847 20.3122 25.5524 19.8889C25.2614 19.1217 24.653 18.1164 24.6 17.1905C24.4942 16.7936 24.6 16.3704 24.9175 16ZM68.3037 48.8307C68.3302 48.7249 66.7694 48.3545 64.3619 48.2487C63.1715 48.1958 61.7694 48.2222 60.2614 48.3545C58.7535 48.4868 57.1662 48.7778 55.6053 49.1746C54.8117 49.3598 54.0445 49.5979 53.3037 49.8624C52.9334 49.9947 52.563 50.127 52.1926 50.2593C51.8223 50.3915 51.4784 50.5503 51.1344 50.6825C49.7588 51.2381 48.5154 51.6878 47.4572 51.8201C46.399 51.9788 45.5524 51.8201 44.944 51.6878C44.6529 51.6085 44.4149 51.5291 44.2561 51.4762C44.0974 51.4233 44.018 51.3968 44.018 51.3968C44.018 51.3968 43.9387 51.3704 43.7799 51.3175C43.6212 51.2645 43.3831 51.1852 43.0657 51.0529C42.4572 50.8148 41.5842 50.3915 40.4995 49.8889C39.4149 49.3862 38.0921 48.8042 36.5313 48.4868C34.9969 48.1958 33.3831 48.2222 31.8752 48.0106C31.5048 47.9841 31.108 47.9048 30.7376 47.8518C30.3672 47.7725 29.9969 47.7196 29.6265 47.6138C28.8858 47.455 28.1715 47.2434 27.4836 47.0053C26.5313 46.6878 25.6318 46.291 24.8381 45.9206C25.7905 47.3757 26.981 48.1164 28.4096 49.0688C28.6741 49.254 28.9651 49.4656 29.309 49.545C29.7588 49.6772 30.235 49.5714 30.6847 49.4391C30.9228 49.3598 31.1873 49.2804 31.4254 49.3598C31.69 49.4391 31.8223 49.7037 32.0074 49.8889C32.6688 50.5503 33.8064 50.3386 34.653 49.9153C34.9175 49.7831 35.1821 49.6243 35.4995 49.5714C36.7958 49.3598 39.2826 51.1323 40.3143 51.7407C40.5524 51.873 40.7905 52.0317 40.9493 52.2698C41.0815 52.4815 41.108 52.7196 41.2138 52.9312C41.5048 53.5397 42.2985 53.7513 42.9863 53.7778C43.8064 53.8042 44.6265 53.8307 45.4201 54.0688C46.3196 54.3333 47.0604 54.8889 48.0657 54.6772C48.9916 54.4921 49.6794 53.7249 50.6053 53.5132C51.3725 53.328 52.2191 53.5397 52.9598 53.2751C53.6741 53.037 54.1503 52.4021 54.6794 51.873C55.6318 50.9206 57.0868 49.9418 58.4096 49.6772C58.7799 49.5979 59.1503 49.5714 59.4942 49.6772C59.7323 49.7566 59.9704 49.8889 60.2085 49.9682C61.0551 50.2328 61.9545 49.8624 62.7482 49.5185C63.1979 49.3333 68.3037 48.672 68.3037 48.8307ZM39.3619 13.328C42.6424 16.291 46.1609 14.836 49.8646 13.8571C50.3408 13.7249 51.0286 13.5661 51.8223 13.4339C53.3037 13.2222 55.0498 13.037 56.5313 13.4603C57.0868 13.619 57.7217 13.8571 58.1715 13.5132C58.3037 13.4074 58.3831 13.2751 58.5418 13.2487C58.6477 13.2222 58.7799 13.2222 58.8858 13.2487C59.5207 13.2751 60.0498 12.746 60.4466 12.2434C60.6582 11.9788 63.0127 8.16931 62.7217 7.98413C62.5101 7.85185 62.3249 7.71958 62.1133 7.61376C61.7694 8.3545 61.2138 9.1746 60.4731 9.83598C60.1027 10.1799 59.6794 10.4974 59.2297 10.7355C58.7799 11 58.3037 11.2116 57.7746 11.3439C56.7429 11.6349 55.6582 11.6878 54.6 11.7143C53.5418 11.7407 52.5101 11.7407 51.5842 11.8201C50.6582 11.8995 49.944 12.0582 49.4413 12.164C48.9387 12.2698 48.6741 12.3228 48.6741 12.3228C48.6741 12.3228 48.4096 12.4021 47.9334 12.5079C47.4572 12.6138 46.7958 12.7725 46.0022 12.8254C45.2085 12.8783 44.2561 12.8519 43.2508 12.6931C42.2455 12.5344 41.1873 12.2169 40.1556 11.8201C38.0921 11 36.1609 9.75661 34.7323 8.83069C34.2297 8.51323 33.4096 7.64021 32.8805 8.03704C33.9651 9.33333 35.4466 9.99471 36.8223 10.8942C37.7746 11.5291 38.4625 12.5079 39.309 13.2751C39.3355 13.3016 39.3355 13.328 39.3619 13.328ZM73.4889 38.2487C72.5101 38.328 70.7641 39.2011 70.1291 39.3069C69.653 39.3598 69.2826 39.3598 69.018 39.3598C68.7535 39.3333 68.5683 39.3333 68.5683 39.3333C68.5683 39.3333 68.4096 39.3333 68.0921 39.3069C67.8011 39.3069 67.3514 39.254 66.7429 39.2804C66.1609 39.2804 65.3937 39.3862 64.7059 39.6772C64.018 39.9418 63.3567 40.3386 62.7482 40.7354C61.5313 41.5555 60.4731 42.4286 59.5736 42.8783C58.7006 43.3545 57.9863 43.4339 57.9863 43.5661C57.9598 43.7249 59.5207 43.5397 59.6794 43.5661C60.1291 43.6455 60.5789 43.6984 61.0286 43.7249C61.7694 43.7513 62.563 43.6455 63.0921 43.1164C63.4625 42.7725 63.6741 42.2434 64.1503 42.0582C64.5736 41.873 65.0498 42.0317 65.4731 41.9524C65.9228 41.873 66.2932 41.582 66.6635 41.3439C67.5365 40.8148 68.8593 41.0264 69.7852 41.2381C70.8434 41.4762 72.0074 41.2645 72.9334 40.6561C73.3831 40.3651 73.7535 39.9682 73.9651 39.4921C74.4413 38.4868 74.0974 38.2222 73.4889 38.2487ZM23.5683 39.8889C24.4149 40.2857 25.3143 40.5503 25.9492 40.709C26.2932 40.8148 26.6635 40.8942 27.0339 40.8677C29.6 40.6561 31.1873 38.7513 33.9651 39.254C34.8646 39.4127 35.5524 39.7566 36.3196 40.2063C37.563 40.9471 37.6953 41.4762 38.3831 42.6138C38.5948 42.9312 39.018 43.037 39.4149 43.0106C39.8117 42.9577 40.1556 42.8254 40.5524 42.746C41.5048 42.5344 42.4836 42.8518 43.436 43.0899C43.6741 43.1428 43.9387 43.1958 44.1768 43.1693C45.2879 43.037 45.9492 42.0053 47.1397 41.8995C48.0921 41.8201 48.8593 41.8201 49.8381 41.4762C51.5048 40.8677 52.4572 40.1534 52.4043 40.0741C52.3514 39.9418 51.2932 40.418 49.6265 40.8148C48.8064 41 47.8276 41.1587 46.7694 41.2381C45.7112 41.3175 44.6 41.291 43.4889 41.1587C42.3778 41.0265 41.2932 40.7619 40.3143 40.4444C39.3355 40.1005 38.4625 39.7302 37.7217 39.3069C36.981 38.91 36.3196 38.5397 35.8434 38.328C35.6053 38.2222 35.4202 38.1164 35.2614 38.0635C35.1291 38.0106 35.0498 37.9841 35.0498 37.9841C35.0498 37.9841 34.9704 37.9577 34.8381 37.9048C34.7059 37.8518 34.4942 37.7989 34.2032 37.7196C33.9387 37.6667 33.5947 37.5873 33.1715 37.5608C32.7746 37.5344 32.2985 37.5344 31.8223 37.5873C31.3461 37.6402 30.8434 37.746 30.3672 37.8783C29.8911 37.9841 29.4149 38.0899 28.8858 38.1958C27.8805 38.3545 26.7694 38.4339 25.6582 38.3809C24.5471 38.328 23.436 38.1693 22.4572 37.8783C22.0074 37.746 21.5842 37.5873 21.1609 37.4021C21.2403 38.5132 22.3514 39.3069 23.5683 39.8889ZM63.2508 19.6243C63.0392 19.7037 62.8011 19.7566 62.6159 19.7831C62.4043 19.8095 62.2191 19.7831 61.981 19.7037C61.5048 19.5979 60.9492 19.3598 60.235 19.3333C59.8646 19.3333 59.5471 19.4127 59.2826 19.4656C59.018 19.545 58.8064 19.5979 58.6477 19.6243C58.4625 19.6508 58.3567 19.6508 58.2244 19.6508C58.0921 19.6508 57.9598 19.5979 57.8276 19.5714C57.563 19.4921 57.272 19.3598 57.0339 19.2804C56.5313 19.0688 56.2667 18.963 56.2667 18.963C56.2667 18.963 55.9757 18.8571 55.4731 18.6984C54.9704 18.5397 54.2297 18.2751 53.3302 18.037C52.4307 17.7989 51.3725 17.5344 50.2085 17.3757C49.0445 17.2169 47.7746 17.164 46.5048 17.3228C45.235 17.4815 43.9916 17.8783 42.9598 18.381C41.9281 18.8836 41.0022 19.3333 40.182 19.4921C39.7588 19.5714 39.3884 19.5979 39.0445 19.5979C38.7006 19.5714 38.4096 19.5185 38.1715 19.4392C37.6953 19.3069 37.4572 19.1217 37.4043 19.1746C37.3778 19.2011 37.5366 19.4921 38.0392 19.7831C38.2773 19.9153 38.5947 20.0476 38.9916 20.127C39.7588 20.2857 40.526 20.127 41.2667 20.2063C42.1397 20.3122 42.9863 20.8148 43.8858 20.5767C44.2561 20.4709 44.6 20.2593 44.944 20.0741C46.0286 19.4921 47.3249 19.3069 48.5154 19.5714C49.2297 19.7302 49.8911 20.0212 50.6053 20.127C51.4519 20.2593 52.3514 20.1534 53.145 20.5238C53.5418 20.6825 53.8858 20.9735 54.309 21.0265C54.7323 21.0794 55.1291 20.8677 55.526 20.7884C56.3725 20.6296 57.3249 21.3175 58.1979 21.3704C58.4625 21.3968 58.8064 21.3439 59.0709 21.2645C59.6265 21.1323 60.0233 20.9471 60.3143 20.9206C60.6318 20.8942 61.108 21.0529 61.7429 21.1587C61.9016 21.1852 62.0868 21.2116 62.272 21.2116C63.1715 21.2381 64.1503 20.9206 64.9969 20.709C66.4519 20.3386 67.7217 19.4127 68.5683 18.1958C69.0445 17.5079 70.526 15.0741 69.8117 14.4921C68.0392 15.7354 66.4519 17.4286 64.6794 18.7513C64.1503 19.1217 63.7006 19.4656 63.2508 19.6243ZM23.6741 25.1005C23.8858 25.2328 24.0709 25.3915 24.2032 25.6032C24.5736 26.1058 24.653 26.7672 24.9175 27.3492C25.235 28.037 25.817 28.5661 26.4519 28.963C27.1926 29.4391 28.0127 29.8095 28.8858 30.0212C29.2297 30.1005 29.6 30.1799 29.944 30.3386C30.7905 30.7354 31.2932 31.6878 32.1133 32.1111C33.145 32.6667 34.4149 32.2963 35.5789 32.455C36.399 32.5873 37.2191 32.9841 38.0127 32.7725C39.5207 32.4286 40.7905 30.8148 42.272 30.2063C44.018 29.5185 45.9492 29.254 47.8011 29.5185C48.3037 29.5979 48.8328 29.7037 49.309 29.8889C51.1609 30.5767 52.8276 31.873 54.6265 32.6931C56.399 33.5132 58.1715 33.91 60.1291 34.1746C60.5789 34.254 61.0551 34.3069 61.5048 34.2275C62.0868 34.1217 62.5101 33.6455 63.0392 33.5132C63.7535 33.328 64.8381 33.6984 65.5789 33.8042C66.108 33.8836 66.6635 33.9365 67.1662 33.8042C67.8011 33.619 68.3302 33.1429 68.8064 32.6667C70.0498 31.4762 71.3196 30.3386 72.6424 29.254C73.7535 28.328 75.235 27.7725 74.7323 26.1323C72.6688 26.873 70.817 28.4868 68.9122 29.5979C67.0074 30.709 64.9704 31.582 63.0127 31.8201C62.0339 31.9524 61.108 31.873 60.2614 31.6878C59.4149 31.5026 58.6477 31.1058 57.9598 30.7354C57.272 30.3386 56.6371 29.9153 56.0551 29.545C55.4731 29.1746 54.944 28.8307 54.4942 28.5926C54.2826 28.4603 54.0709 28.3545 53.8858 28.2751C53.7006 28.1958 53.5418 28.1164 53.4096 28.037C53.145 27.9312 53.0127 27.8518 53.0127 27.8518C53.0127 27.8518 52.9863 27.8254 52.9069 27.7989C52.8276 27.7725 52.7217 27.746 52.5895 27.6931C52.4572 27.6402 52.272 27.5873 52.0868 27.5344C51.981 27.5079 51.8752 27.4815 51.7694 27.455C51.6635 27.4286 51.5313 27.4021 51.399 27.3757C50.3672 27.1376 48.8328 27.0317 47.0868 27.2169C46.2138 27.2963 45.2879 27.455 44.309 27.6402C43.3302 27.8518 42.3514 28.0899 41.3196 28.328C39.2826 28.8042 37.1133 29.2804 34.9704 29.2011L34.1768 29.1481C33.9122 29.1217 33.6477 29.0688 33.3831 29.0423C33.1186 29.0159 32.854 28.963 32.5895 28.91C32.3249 28.8571 32.0604 28.8042 31.7958 28.7249C31.5313 28.6455 31.2932 28.5661 31.0286 28.5132C30.7641 28.4339 30.526 28.328 30.2879 28.2487C30.0498 28.1693 29.7852 28.0635 29.5471 27.9577C29.309 27.8518 29.0709 27.7725 28.8328 27.6402C26.9545 26.7672 25.3143 25.709 23.9651 24.7037C23.0392 24.0423 22.272 23.4074 21.6106 22.8783C21.5048 22.7725 21.6371 23.5661 21.6635 23.6455C21.8223 23.9894 22.1133 24.2011 22.4043 24.3862C22.854 24.6508 23.2773 24.836 23.6741 25.1005Z" fill="url(#paint14_radial_7_387)"/>
<g opacity="0.34">
<path opacity="0.34" d="M25.4995 19.9418C25.6582 20.3651 25.817 20.7884 26.0551 21.1587C26.5842 21.9259 27.4836 22.455 27.6953 23.3809C27.7747 23.6984 27.7482 24.0423 27.9863 24.2804C28.145 24.4391 28.3567 24.4921 28.5683 24.545C29.362 24.8095 29.9704 25.4444 30.5789 26.0264C31.2138 26.582 31.981 27.1111 32.8276 27.0053C33.9122 26.873 34.9704 26.9259 36.0551 26.7672C36.5577 26.6878 37.0604 26.7143 37.563 26.8466C38.2508 27.0317 38.8858 27.4021 39.6 27.5079C41.1874 27.7196 43.2244 26.7143 44.7852 26.3704C45.8963 26.1323 47.0339 25.8148 48.1979 25.9471C48.6741 26 49.1503 26.1323 49.6 26.0529C50.1027 25.9471 50.4995 25.6296 50.9493 25.3915C52.1926 24.7566 53.9387 25.4973 55.2085 25.7619C56.0022 25.9206 56.8487 26.0265 57.6688 26.0529C58.4889 26.0794 59.2561 26.0264 60.0233 25.9735C60.7905 25.9206 61.4784 25.8413 62.1926 25.7619C62.5366 25.709 62.8805 25.6561 63.2244 25.5503C63.5683 25.4444 63.8858 25.3122 64.1503 25.1534C64.7059 24.836 65.1291 24.4391 65.4731 24.0688C65.817 23.6984 66.0551 23.328 66.2403 23.037C66.6106 22.455 66.7958 22.0846 66.7429 22.0582C66.69 22.0317 66.4254 22.3227 65.9493 22.8254C65.7112 23.0899 65.4202 23.3809 65.0762 23.6984C64.7323 24.0159 64.309 24.3333 63.8064 24.545C63.3038 24.7831 62.7217 24.8624 62.0604 24.9153C61.9281 24.9153 61.8223 24.9153 61.69 24.9418C61.1344 24.9947 60.5789 25.0476 59.9704 25.1005C59.2297 25.1534 58.436 25.2063 57.6159 25.1799C56.7958 25.1534 55.9757 25.0476 55.1556 24.8889C53.8858 24.6243 52.1397 23.8836 50.8963 24.5185C50.4466 24.7566 50.0233 25.0741 49.5471 25.1799C49.0709 25.2593 48.5948 25.127 48.145 25.0741C47.0075 24.9418 45.8699 25.2593 44.7323 25.4973C43.1715 25.8413 41.1344 26.8466 39.5471 26.6349C38.8329 26.5291 38.1979 26.1587 37.5101 25.9735C37.0339 25.8413 36.5048 25.8148 36.0022 25.8942C34.9175 26.0529 33.8593 26 32.7746 26.1323C31.9281 26.2381 31.1609 25.709 30.526 25.1534C29.8911 24.5979 29.309 23.9365 28.5154 23.672C28.3038 23.5926 28.0921 23.5661 27.9334 23.4074C27.6953 23.1958 27.7217 22.8254 27.6424 22.5079C27.4307 21.6085 26.5313 21.0529 26.0022 20.2857C25.7641 19.9153 25.5789 19.4921 25.4466 19.0688C25.1821 18.3809 24.6794 17.5079 24.5207 16.6878C24.4678 16.873 24.4678 17.0582 24.4678 17.2698C24.6 18.1693 25.1821 19.1746 25.4995 19.9418Z" fill="url(#paint15_radial_7_387)"/>
<path opacity="0.34" d="M36.8223 10.9206C37.7747 11.5556 38.4625 12.5344 39.3091 13.3016C39.3355 13.328 39.3355 13.328 39.362 13.3545C42.6424 16.3175 46.1609 14.8624 49.8646 13.8836C50.3408 13.7513 51.0286 13.5926 51.8223 13.4603C53.3038 13.2487 55.0498 13.0635 56.5313 13.4868C57.0868 13.6455 57.7218 13.8836 58.1715 13.5397C58.3038 13.4339 58.3831 13.3016 58.5419 13.2751C58.6477 13.2487 58.78 13.2487 58.8858 13.2751C59.5207 13.3016 60.0498 12.7725 60.4466 12.2698C60.6583 12.0053 63.0128 8.19577 62.7218 8.01058C62.6424 7.95767 62.563 7.90476 62.5101 7.87831C61.9546 9.04233 60.6054 11.1852 60.4466 11.3968C60.0498 11.8995 59.5207 12.4286 58.8858 12.4021C58.78 12.4021 58.6477 12.3757 58.5419 12.4021C58.4096 12.455 58.3038 12.5873 58.1715 12.6667C57.7218 13.0106 57.0604 12.7725 56.5313 12.6138C55.0498 12.1905 53.3302 12.3492 51.8223 12.5873C51.0286 12.6931 50.3408 12.8783 49.8646 13.0106C46.1609 13.963 42.6424 15.418 39.362 12.4815C39.3355 12.4815 39.3355 12.455 39.3091 12.4286C38.6741 11.8466 38.1186 11.1323 37.4572 10.5503C36.4519 9.96825 35.4995 9.38624 34.7323 8.85714C34.2297 8.53968 33.4096 7.66667 32.8805 8.06349C33.9387 9.35979 35.4466 9.99471 36.8223 10.9206Z" fill="url(#paint16_radial_7_387)"/>
<path opacity="0.34" d="M27.0339 40.8677C29.6 40.6561 31.1873 38.7513 33.9651 39.254C34.8646 39.4127 35.5524 39.7566 36.3196 40.2063C37.563 40.9471 37.6953 41.4762 38.3831 42.6138C38.5948 42.9312 39.018 43.037 39.4149 43.0106C39.8117 42.9577 40.1556 42.8254 40.5524 42.746C41.5048 42.5344 42.4836 42.8518 43.436 43.0899C43.6741 43.1428 43.9387 43.1958 44.1768 43.1693C45.2879 43.037 45.9492 42.0053 47.1397 41.8995C48.0921 41.8201 48.8593 41.8201 49.8381 41.4762C51.5048 40.8677 52.4572 40.1534 52.4043 40.0741C52.3514 39.9418 51.2932 40.418 49.6265 40.8148C48.8064 41 47.8276 41.1587 46.7694 41.2381C46.6106 41.2381 46.4519 41.2645 46.2667 41.2645C45.5524 41.6085 44.9704 42.1905 44.1503 42.2963C43.9122 42.3227 43.6477 42.2698 43.4096 42.2169C42.4572 41.9788 41.4783 41.6614 40.526 41.873C40.1556 41.9524 39.7852 42.1111 39.3884 42.1376C38.9916 42.1905 38.5683 42.0582 38.3567 41.7407C37.6424 40.6032 37.5366 40.1005 36.2932 39.3333C35.526 38.8836 34.8381 38.5397 33.9387 38.3809C31.1609 37.8783 29.5471 39.8095 27.0075 39.9947C26.6371 40.0212 26.2932 39.9418 25.9228 39.836C25.2879 39.6508 24.3884 39.3862 23.5418 39.0159C22.7217 38.6455 21.9545 38.1693 21.5313 37.5344C21.399 37.4815 21.2932 37.4286 21.1609 37.3757C21.1873 38.5132 22.2985 39.3333 23.5418 39.8889C24.3884 40.2857 25.2879 40.5503 25.9228 40.709C26.3196 40.8148 26.69 40.8942 27.0339 40.8677Z" fill="url(#paint17_radial_7_387)"/>
<path opacity="0.34" d="M37.9863 19.8095C38.2244 19.9418 38.5419 20.0741 38.9387 20.1534C39.7059 20.3122 40.4731 20.1534 41.2138 20.2328C42.0869 20.3386 42.9334 20.8413 43.8329 20.6032C44.2033 20.4973 44.5472 20.2857 44.8911 20.1005C45.9757 19.5185 47.272 19.3333 48.4625 19.5979C49.1768 19.7566 49.8382 20.0476 50.5525 20.1534C51.399 20.2857 52.2985 20.1799 53.0922 20.5503C53.489 20.709 53.8329 21 54.2562 21.0529C54.6795 21.1058 55.0763 20.8942 55.4731 20.8148C56.3197 20.6561 57.272 21.3439 58.1451 21.3968C58.4096 21.4233 58.7535 21.3704 59.0181 21.291C59.5736 21.1587 59.9705 20.9735 60.2615 20.9471C60.5789 20.9206 61.0551 21.0794 61.69 21.1852C61.8488 21.2116 62.0339 21.2381 62.2191 21.2381C63.1186 21.2645 64.0974 20.9471 64.944 20.7354C66.399 20.3651 67.6689 19.4391 68.5154 18.2222C68.9652 17.5873 70.2879 15.4444 69.8646 14.6772C69.6265 15.6296 68.8329 16.873 68.5154 17.3492C67.6424 18.5661 66.3726 19.4921 64.944 19.8624C64.0974 20.0741 63.1186 20.418 62.2191 20.3651C62.0339 20.3651 61.8752 20.3386 61.69 20.3122C61.0551 20.1799 60.5789 20.0476 60.2615 20.0741C59.9705 20.0741 59.5736 20.2593 59.0181 20.418C58.7535 20.4974 58.4361 20.5238 58.1451 20.5238C57.272 20.4709 56.3197 19.7831 55.4731 19.9418C55.0763 20.0212 54.653 20.2328 54.2562 20.1799C53.8329 20.127 53.489 19.8624 53.0922 19.6772C52.2985 19.3333 51.399 19.4391 50.5525 19.2804C49.8382 19.1746 49.1768 18.8836 48.4625 18.7249C47.272 18.4603 45.9757 18.6455 44.8911 19.2275C44.5472 19.4127 44.2033 19.6508 43.8329 19.7302C42.9334 19.9683 42.0869 19.4656 41.2138 19.3598C41.0816 19.3333 40.9757 19.3333 40.8435 19.3333C40.6054 19.4127 40.3673 19.4921 40.1292 19.545C39.7059 19.6243 39.3355 19.6508 38.9916 19.6508C38.6477 19.6243 38.3567 19.5714 38.1186 19.4921C37.6424 19.3598 37.4043 19.1746 37.3514 19.2275C37.325 19.2275 37.4837 19.5185 37.9863 19.8095Z" fill="url(#paint18_radial_7_387)"/>
<path opacity="0.34" d="M72.7217 28.3545C71.399 29.4391 70.1292 30.5767 68.8858 31.7672C68.4096 32.2434 67.9069 32.7196 67.2456 32.9048C66.7429 33.037 66.1874 32.9841 65.6583 32.9048C64.9175 32.7989 63.8329 32.4286 63.1186 32.6138C62.5895 32.746 62.1662 33.2222 61.5842 33.328C61.1345 33.4074 60.6583 33.3545 60.2085 33.2751C58.2773 32.9841 56.5048 32.6137 54.7059 31.7936C52.9069 30.9735 51.2138 29.6772 49.3884 28.9894C48.9122 28.8042 48.3831 28.6984 47.8805 28.619C46.0286 28.3545 44.0974 28.619 42.3514 29.3069C40.8434 29.9153 39.6001 31.5291 38.0921 31.873C37.272 32.0582 36.4784 31.6614 35.6583 31.5555C34.4942 31.3968 33.2244 31.7672 32.1927 31.2116C31.3726 30.7884 30.8699 29.836 30.0233 29.4391C29.6794 29.2804 29.3355 29.2275 28.9651 29.1217C28.0921 28.91 27.272 28.5661 26.5313 28.0635C25.8964 27.6667 25.3143 27.1376 24.9969 26.4497C24.7588 25.9471 24.6794 25.3915 24.4149 24.9418C24.3091 24.8624 24.1768 24.7831 24.071 24.7037C23.4889 24.2804 22.9863 23.8836 22.5101 23.5132C22.3514 23.4074 22.1927 23.3016 22.0604 23.1693C21.9281 23.0635 21.8223 22.9841 21.7165 22.8783C21.6106 22.7725 21.7429 23.5661 21.7694 23.6455C21.9281 23.9894 22.2191 24.2011 22.5101 24.3862C22.8805 24.6508 23.3302 24.836 23.727 25.1005C23.9387 25.2328 24.1239 25.3915 24.2561 25.6032C24.6265 26.1058 24.7059 26.7672 24.9704 27.3492C25.2879 28.037 25.8699 28.5661 26.5048 28.963C27.2456 29.4391 28.0657 29.8095 28.9387 30.0212C29.2826 30.1005 29.653 30.1799 29.9969 30.3386C30.8434 30.7354 31.3461 31.6878 32.1662 32.1111C33.1979 32.6667 34.4678 32.2963 35.6318 32.455C36.4519 32.5873 37.272 32.9841 38.0657 32.7725C39.5736 32.4286 40.8434 30.8148 42.3249 30.2063C44.071 29.5185 46.0022 29.254 47.854 29.5185C48.3567 29.5979 48.8858 29.7037 49.362 29.8889C51.2138 30.5767 52.8805 31.873 54.6794 32.6931C56.4519 33.5132 58.2244 33.91 60.1821 34.1746C60.6318 34.254 61.108 34.3069 61.5577 34.2275C62.1397 34.1217 62.563 33.6455 63.0921 33.5132C63.8064 33.328 64.8911 33.6984 65.6318 33.8042C66.1609 33.8836 66.7165 33.9365 67.2191 33.8042C67.854 33.619 68.3831 33.1428 68.8593 32.6667C70.1027 31.4762 71.3725 30.3386 72.6953 29.254C73.78 28.3545 75.1821 27.8254 74.8382 26.3175C74.5736 27.164 73.5419 27.6402 72.7217 28.3545Z" fill="url(#paint19_radial_7_387)"/>
<path opacity="0.34" d="M64.8646 48.2751C63.8328 48.4074 62.9334 48.5661 62.7482 48.6455C61.9281 48.9894 61.0286 49.3598 60.2085 49.0952C59.9704 49.0159 59.7323 48.8836 59.4942 48.8042C59.1503 48.6984 58.7535 48.7513 58.4096 48.8042C57.0868 49.0952 55.6318 50.0741 54.6794 51C54.1503 51.5291 53.6741 52.164 52.9598 52.4021C52.2191 52.6667 51.3725 52.455 50.6053 52.6402C49.7059 52.8518 48.9916 53.619 48.0657 53.8042C47.0604 54.0159 46.3196 53.4603 45.4201 53.1958C44.6265 52.9577 43.8064 52.9312 42.9863 52.9048C42.2985 52.8783 41.5048 52.6931 41.2138 52.0582C41.108 51.8466 41.0815 51.582 40.9493 51.3968C40.817 51.1587 40.5524 51 40.3143 50.8677C39.309 50.2593 36.7958 48.4868 35.4995 48.6984C35.2085 48.7513 34.9175 48.91 34.653 49.0423C33.8064 49.4656 32.6953 49.6508 32.0074 49.0159C31.8223 48.8307 31.6635 48.5661 31.4254 48.4868C31.1873 48.4074 30.9228 48.4868 30.6847 48.5661C30.235 48.6984 29.7588 48.8042 29.309 48.672C28.9916 48.5926 28.7006 48.381 28.4096 48.1958C27.563 47.6138 26.7694 47.1111 26.0815 46.4762C25.6582 46.291 25.235 46.1058 24.8381 45.9206C25.7905 47.3757 26.981 48.1164 28.4096 49.0688C28.6741 49.254 28.9651 49.4656 29.309 49.545C29.7588 49.6772 30.235 49.5714 30.6847 49.4391C30.9228 49.3598 31.1873 49.2804 31.4254 49.3598C31.69 49.4391 31.8223 49.7037 32.0074 49.8889C32.6688 50.5503 33.8064 50.3386 34.653 49.9153C34.9175 49.7831 35.1821 49.6243 35.4995 49.5714C36.7958 49.3598 39.2826 51.1323 40.3143 51.7407C40.5524 51.873 40.7905 52.0317 40.9493 52.2698C41.0815 52.4815 41.108 52.7196 41.2138 52.9312C41.5048 53.5397 42.2985 53.7513 42.9863 53.7778C43.8064 53.8042 44.6265 53.8307 45.4201 54.0688C46.3196 54.3333 47.0604 54.8889 48.0657 54.6772C48.9916 54.4921 49.6794 53.7249 50.6053 53.5132C51.3725 53.328 52.2191 53.5397 52.9598 53.2751C53.6741 53.037 54.1503 52.4021 54.6794 51.873C55.6318 50.9206 57.0868 49.9418 58.4096 49.6772C58.7799 49.5979 59.1503 49.5714 59.4942 49.6772C59.7323 49.7566 59.9704 49.8889 60.2085 49.9682C61.0551 50.2328 61.9545 49.8624 62.7482 49.5185C63.1979 49.3333 68.3037 48.6984 68.2773 48.8307C68.3037 48.7249 66.981 48.4074 64.8646 48.2751Z" fill="url(#paint20_radial_7_387)"/>
</g>
<path opacity="0.35" d="M31.8752 44.6508C31.5578 45.7619 30.3144 46.0264 29.3355 45.709C28.4625 45.4444 27.7747 44.8624 27.4837 43.9894C27.2985 43.4074 27.6689 42.746 28.2244 42.5608C28.4361 42.3227 28.7271 42.1376 29.0445 42.0582C29.5736 41.9259 30.1292 42.0847 30.6054 42.3228C31.4519 42.746 32.1662 43.619 31.8752 44.6508ZM45.1821 44.7037C44.4678 44.4392 43.3038 44.3333 42.4308 44.5714C42.325 44.545 42.2191 44.545 42.1133 44.545C40.2086 44.6243 39.2562 46.6349 40.7641 47.9841C42.1133 49.1746 44.8382 49.7037 46.3461 48.5926C47.0075 48.0899 47.4043 47.2698 47.1662 46.4497C46.9017 45.5238 46.0287 44.9947 45.1821 44.7037ZM49.3885 46.2381C49.3355 46.2381 49.2562 46.2381 49.2033 46.2381C48.9123 46.2381 48.5684 46.3704 48.3567 46.582C48.1451 46.7936 47.9863 47.1376 48.0128 47.4286C48.0392 47.746 48.1186 48.0635 48.3567 48.2751C48.5948 48.4868 48.8858 48.619 49.2033 48.619C49.2562 48.619 49.3355 48.619 49.3885 48.619C49.6795 48.619 50.0234 48.4868 50.235 48.2751C50.4467 48.0635 50.6054 47.7196 50.5789 47.4286C50.5525 47.1111 50.4731 46.7936 50.235 46.582C49.9969 46.3704 49.7059 46.2381 49.3885 46.2381ZM25.1027 33.2222C24.9705 33.1429 24.8646 33.0635 24.7324 32.9841C24.4943 32.8254 24.0974 32.7989 23.8064 32.8518C23.5419 32.9312 23.2244 33.1429 23.0922 33.4074C22.9599 33.672 22.8805 34.0159 22.9599 34.3333C23.0657 34.6243 23.2509 34.8624 23.5154 35.0476C23.6477 35.127 23.7535 35.2063 23.8858 35.2857C24.1239 35.4444 24.5207 35.4709 24.8117 35.418C25.0763 35.3386 25.3937 35.127 25.526 34.8624C25.6583 34.5979 25.7377 34.254 25.6583 33.9365C25.5525 33.619 25.3673 33.4074 25.1027 33.2222ZM43.5419 37.9312C44.3885 37.8254 45.4202 37.5873 45.8435 36.7407C46.1874 36.0794 46.0287 35.3122 45.4731 34.8095C44.8117 34.2011 44.1504 34.254 43.3567 34.0688C42.5631 33.8836 42.0075 33.7513 41.2932 33.8042C41.1874 33.7778 41.0816 33.7778 40.9493 33.8042C40.1292 33.91 38.8064 33.8307 38.1715 34.4656C37.5366 35.1005 37.7482 36.0794 38.2773 36.6878C39.4414 38.0899 41.9017 38.1693 43.5419 37.9312ZM35.8435 34.8095C35.817 34.4921 35.7112 34.2011 35.4996 33.963C35.4467 33.91 35.3673 33.8307 35.3144 33.7778C35.1027 33.5661 34.7853 33.4339 34.4678 33.4339C34.1768 33.4339 33.8329 33.5661 33.6213 33.7778C33.4096 34.0159 33.2509 34.3069 33.2773 34.6243C33.3038 34.9418 33.4096 35.2328 33.6213 35.4709C33.6742 35.5238 33.7535 35.6032 33.8064 35.6561C34.0181 35.8677 34.3355 36 34.653 36C34.944 36 35.2879 35.8677 35.4996 35.6561C35.7112 35.418 35.8435 35.127 35.8435 34.8095ZM36.5313 51.1852C34.9969 51.1852 34.9969 53.5661 36.5313 53.5661C38.0657 53.5661 38.0657 51.1852 36.5313 51.1852ZM66.0022 27.0053C65.4731 27.3757 65.1292 27.9577 65.526 28.5661C65.6847 28.8307 65.9228 29.0423 66.2403 29.1217C66.5313 29.2011 66.8488 29.2011 67.1398 29.1217C67.4308 29.0423 67.6953 28.8836 67.907 28.672C68.1186 28.4339 68.2509 28.1693 68.2509 27.8254C68.2509 27.5344 68.1186 27.1905 67.907 26.9788C67.6689 26.7672 67.3779 26.6085 67.0604 26.6349C66.7429 26.6349 66.3461 26.7936 66.0022 27.0053ZM68.4361 25.0476C69.0974 25.1799 69.8117 24.9947 70.3937 24.7037C71.4255 24.1746 72.5895 22.9577 72.325 21.6878C72.1398 20.9206 71.4255 20.3915 70.6318 20.5767C69.6795 20.7884 68.8329 21.2645 68.1451 22.0053C67.7482 22.4021 67.2985 22.9048 67.2456 23.4868C67.1133 24.2804 67.6953 24.8889 68.4361 25.0476ZM63.78 38.1164C63.9387 38.1164 64.0975 38.0635 64.2297 37.9841C64.4678 37.8518 64.7059 37.5608 64.7853 37.2698C64.8646 36.9788 64.8382 36.6349 64.653 36.3439C64.4943 36.1058 64.2297 35.8413 63.9387 35.7884C63.78 35.7619 63.6477 35.7354 63.489 35.709C63.3302 35.6561 63.1715 35.6561 63.0128 35.6825C62.8541 35.6825 62.6953 35.7354 62.5631 35.8148C62.325 35.9471 62.0869 36.2381 62.0075 36.5291C61.9281 36.8201 61.9546 37.164 62.1398 37.455C62.2985 37.6931 62.5631 37.9577 62.8541 38.0106C63.0128 38.037 63.1451 38.0635 63.3038 38.0899C63.4625 38.1429 63.6213 38.1429 63.78 38.1164ZM72.2191 34.2011C71.6107 33.1429 70.2879 33.2222 69.2562 33.5397C68.1451 33.91 67.272 34.5714 66.5842 35.5238C66.1345 36.1058 66.6636 37.2434 67.1662 37.6402C67.9863 38.2751 70.1292 37.6138 70.9228 37.1905C71.981 36.6085 72.907 35.3915 72.2191 34.2011ZM67.7747 46.0529C67.1133 46.8995 65.526 47.1905 64.5207 46.9788C63.7271 46.8201 63.1186 45.9735 63.0922 45.1799C63.0657 44.4921 63.7535 44.0952 64.3091 43.8307C65.0498 43.5132 65.817 43.0635 66.6371 43.1693C68.0392 43.381 68.6213 44.9418 67.7747 46.0529ZM65.9493 44.5185C66.0287 44.5185 66.0551 44.5185 66.0287 44.5185C65.9758 44.4921 65.9493 44.4921 65.9493 44.5185ZM64.6001 44.3069C64.6001 44.2804 64.6001 44.2804 64.6001 44.3069C64.4678 44.2804 64.4678 44.3069 64.6001 44.3069ZM58.1715 51.6614C58.0657 51.6349 57.9599 51.6085 57.8541 51.6085C57.5366 51.5556 57.2191 51.5556 56.9281 51.7407C56.69 51.873 56.4519 52.164 56.3726 52.455C56.2932 52.746 56.3197 53.0899 56.5049 53.3809C56.6636 53.619 56.9017 53.8571 57.2191 53.9365C57.325 53.963 57.4308 53.9894 57.5366 53.9894C57.8541 54.0423 58.1715 54.0423 58.4625 53.8571C58.7006 53.7249 58.9387 53.4339 59.0181 53.1429C59.0974 52.8518 59.071 52.5079 58.8858 52.2169C58.7271 51.9524 58.4625 51.7143 58.1715 51.6614ZM31.108 20.1005C31.8223 19.4392 31.1874 18.4074 30.817 17.746C30.3937 17.0053 29.7853 16.3968 29.0181 16.0529C28.8064 15.9471 28.5684 15.8942 28.3567 15.9206C28.3303 15.9206 28.3038 15.8942 28.2773 15.8942C27.5101 15.6825 26.743 16.3968 26.5842 17.1111C26.4519 17.746 27.0869 18.5926 27.4572 19.0688C28.3038 20.127 29.8646 21.2645 31.108 20.1005ZM34.6001 23.4603C34.7059 23.3545 34.7853 23.2222 34.8117 23.0635C34.8646 22.8518 34.8646 22.6402 34.8117 22.4286C34.7588 22.1111 34.5472 21.7407 34.2826 21.5291C33.9387 21.2381 33.5419 21.0529 33.0657 21.0529C32.9599 21.0529 32.8541 21.0794 32.7747 21.1058C32.4572 21.1058 32.1398 21.2116 31.9281 21.4497C31.4784 21.9524 31.4784 22.6402 31.9281 23.1164C32.1133 23.328 32.3514 23.5132 32.5895 23.6455C32.9599 23.8307 33.2509 23.8836 33.6477 23.9365C34.0445 23.963 34.3885 23.7249 34.6001 23.4603ZM57.6689 18.8836C58.2773 18.8836 58.8858 18.328 58.8593 17.6931C58.8329 17.0582 58.3302 16.5026 57.6689 16.5026C57.4308 16.5026 57.1662 16.5026 56.9281 16.5026C56.3197 16.5026 55.7112 17.0582 55.7377 17.6931C55.7641 18.328 56.2668 18.8836 56.9281 18.8836C57.1662 18.8836 57.4043 18.8836 57.6689 18.8836ZM61.6636 16.291C60.8699 16 60.7377 14.9418 61.2932 14.3598C61.9017 13.672 62.5895 12.9312 63.3567 12.4815C64.2033 11.9788 65.526 11.9259 65.9493 13.0106C66.2932 13.8836 65.526 14.8624 64.9175 15.418C64.3091 15.9735 63.5683 16.3968 62.7482 16.582C62.2985 16.6878 61.9281 16.5556 61.6636 16.291ZM62.4043 14.1217L62.4308 14.0952V14.0688C62.4043 14.0423 62.4043 14.1217 62.4043 14.1217ZM52.7218 9.28042C52.616 9.25397 52.5101 9.22751 52.4043 9.22751C52.0869 9.1746 51.7694 9.1746 51.4784 9.35979C51.2403 9.49206 51.0022 9.78307 50.9228 10.0741C50.8435 10.3651 50.8699 10.709 51.0551 11C51.2139 11.2381 51.4519 11.4762 51.7694 11.5556C51.8752 11.582 51.981 11.6085 52.0869 11.6085C52.4043 11.6614 52.7218 11.6614 53.0128 11.4762C53.2509 11.3439 53.489 11.0529 53.5683 10.7619C53.6477 10.4709 53.6213 10.127 53.4361 9.83598C53.2509 9.59788 53.0128 9.35979 52.7218 9.28042ZM55.3937 11.3439C54.9705 11.3439 54.5736 11.1058 54.362 10.7354C54.071 10.2328 54.2562 9.80952 54.4414 9.30688C54.5472 9.01587 54.653 8.69841 54.8117 8.43386C55.3937 7.53439 56.7959 6.68783 57.6953 7.69312C58.4625 7.93122 58.8858 8.75132 58.7006 9.51852C58.3567 10.8677 56.5842 11.3704 55.3937 11.3439ZM57.5895 10.0212C57.5631 10.0212 57.5631 10.0212 57.5895 10.0212C57.7218 9.9418 57.7482 9.80952 57.5895 10.0212Z" fill="url(#paint21_radial_7_387)"/>
<g opacity="0.35">
<g opacity="0.35">
<path opacity="0.35" d="M24.4412 32.4021C24.9174 32.4021 24.9174 31.6614 24.4412 31.6614C23.9651 31.6614 23.9651 32.4021 24.4412 32.4021Z" fill="url(#paint22_radial_7_387)"/>
</g>
<g opacity="0.35">
<path opacity="0.35" d="M26.5841 36.1852C27.0603 36.1852 27.0603 35.4444 26.5841 35.4444C26.1079 35.4444 26.1079 36.1852 26.5841 36.1852Z" fill="url(#paint23_radial_7_387)"/>
</g>
<g opacity="0.35">
<path opacity="0.35" d="M30.4201 47.2169C30.8963 47.2169 30.8963 46.4762 30.4201 46.4762C29.9703 46.4762 29.9703 47.2169 30.4201 47.2169Z" fill="url(#paint24_radial_7_387)"/>
</g>
<g opacity="0.35">
<path opacity="0.35" d="M33.0656 46.0794C33.5418 46.0794 33.5418 45.3386 33.0656 45.3386C32.6158 45.3386 32.6158 46.0794 33.0656 46.0794Z" fill="url(#paint25_radial_7_387)"/>
</g>
<g opacity="0.35">
<path opacity="0.35" d="M38.8064 53.6455C39.2826 53.6455 39.2826 52.9048 38.8064 52.9048C38.3302 52.9048 38.3302 53.6455 38.8064 53.6455Z" fill="url(#paint26_radial_7_387)"/>
</g>
<g opacity="0.35">
<path opacity="0.35" d="M30.4995 21.5026C30.9757 21.5026 30.9757 20.7619 30.4995 20.7619C30.0233 20.7619 30.0233 21.5026 30.4995 21.5026Z" fill="url(#paint27_radial_7_387)"/>
</g>
<g opacity="0.35">
<path opacity="0.35" d="M30.4995 16.5291C30.9757 16.5291 30.9757 15.7884 30.4995 15.7884C30.0233 15.7884 30.0233 16.5291 30.4995 16.5291Z" fill="url(#paint28_radial_7_387)"/>
</g>
<g opacity="0.35">
<path opacity="0.35" d="M35.3408 22.455C35.817 22.455 35.817 21.7143 35.3408 21.7143C34.8646 21.7143 34.8646 22.455 35.3408 22.455Z" fill="url(#paint29_radial_7_387)"/>
</g>
<g opacity="0.35">
<path opacity="0.35" d="M35.6053 24.0952C36.0815 24.0952 36.0815 23.3545 35.6053 23.3545C35.1291 23.3545 35.1291 24.0952 35.6053 24.0952Z" fill="url(#paint30_radial_7_387)"/>
</g>
</g>
<g opacity="0.45">
<path opacity="0.45" d="M91.5578 33.4868C89.3091 32.164 86.0287 30.8148 81.8223 29.4656C79.7059 28.7778 77.4308 28.1164 74.9969 27.4815C75.1028 28.2487 75.1557 29.0159 75.1292 29.7831C76.4784 30.2063 77.7483 30.6561 78.9916 31.1058C88.3303 34.5185 90.1821 37.1111 90.1028 37.7989C90.0234 38.5132 87.7218 40.4444 77.9864 40.9471C69.8118 41.3704 59.0181 40.6296 47.6689 38.9101C36.2932 37.164 25.7112 34.6243 17.8541 31.7407C8.51545 28.328 6.6636 25.7354 6.74297 25.0476C6.82233 24.3333 9.12393 22.4021 18.8594 21.8995C19.7853 21.8466 20.7641 21.8201 21.7694 21.7936C21.9017 21.7936 22.0075 21.7936 22.1398 21.7936C22.2985 21.2116 22.5102 20.6296 22.7747 20.0741C20.5525 20.0212 18.4361 20.0212 16.452 20.0741C12.034 20.2063 8.51546 20.5767 5.97577 21.2116C2.88054 21.9788 1.26678 23.1429 1.02869 24.7566C0.79059 26.3704 2.03398 27.9312 4.7853 29.545C7.03397 30.8677 10.3144 32.2169 14.5207 33.5661C23.0393 36.3175 34.5472 38.8042 46.8752 40.5767C57.8012 42.1376 68.2509 42.9841 76.7165 42.9841C77.8012 42.9841 78.8858 42.9577 79.8911 42.9312C84.3091 42.7989 87.8276 42.4286 90.3673 41.7936C93.4625 41.0265 95.0763 39.8624 95.3144 38.2487C95.5525 36.6614 94.3091 35.1005 91.5578 33.4868Z" fill="url(#paint31_radial_7_387)"/>
</g>
<g opacity="0.45">
<path opacity="0.45" d="M85.7377 11.5026C85.0499 10.2063 83.3303 9.73016 80.4996 10.0212C78.1716 10.2593 75.1028 11.0265 71.3726 12.2698C70.4731 12.5608 69.5737 12.8783 68.6213 13.2222C69.2297 13.6984 69.7324 14.3069 70.1821 14.9418C78.7271 12.4815 81.4255 13.3545 81.743 13.8836C82.0604 14.4392 81.4255 17.0582 74.6795 22.5344C68.9917 27.164 60.8435 32.3227 51.743 37.0846C42.616 41.8465 33.6477 45.6032 26.4784 47.6667C17.9335 50.127 15.235 49.254 14.9176 48.7249C14.6001 48.1693 15.235 45.5503 21.9811 40.0741C22.0075 40.0476 22.0075 40.0476 22.034 40.0212C21.8223 39.4921 21.6372 38.9365 21.5049 38.3545C20.7377 38.91 19.9969 39.4921 19.2827 40.0476C16.161 42.455 13.8329 44.5979 12.325 46.3968C10.4996 48.5926 9.94403 50.2857 10.6319 51.582C11.3197 52.8783 13.0393 53.3545 15.87 53.0635C18.198 52.8254 21.2668 52.0582 24.9969 50.8148C32.5895 48.3016 42.1927 44.0159 52.034 38.7778C60.7377 34.1217 68.7006 29.2275 74.8118 24.7302C75.6054 24.1481 76.3726 23.5661 77.0869 23.0106C80.2086 20.6032 82.5366 18.4603 84.0446 16.6614C85.87 14.4656 86.4255 12.7725 85.7377 11.5026Z" fill="url(#paint32_radial_7_387)"/>
</g>
</g>
<defs>
<filter id="filter0_f_7_387" x="0.5" y="0.5" width="95.3431" height="61" filterUnits="userSpaceOnUse" color-interpolation-filters="sRGB">
<feFlood flood-opacity="0" result="BackgroundImageFix"/>
<feBlend mode="normal" in="SourceGraphic" in2="BackgroundImageFix" result="shape"/>
<feGaussianBlur stdDeviation="0.25" result="effect1_foregroundBlur_7_387"/>
</filter>
<radialGradient id="paint0_radial_7_387" cx="0" cy="0" r="1" gradientUnits="userSpaceOnUse" gradientTransform="translate(48.0532 31.0052) scale(29.9761)">
<stop stop-color="#F20074"/>
<stop offset="0.4293" stop-color="#F00175" stop-opacity="0.5707"/>
<stop offset="0.584" stop-color="#E90578" stop-opacity="0.416"/>
<stop offset="0.6943" stop-color="#DE0B7D" stop-opacity="0.3057"/>
<stop offset="0.7834" stop-color="#CD1585" stop-opacity="0.2166"/>
<stop offset="0.8597" stop-color="#B7218E" stop-opacity="0.1403"/>
<stop offset="0.9274" stop-color="#9B309A" stop-opacity="0.0726443"/>
<stop offset="0.987" stop-color="#7C42A8" stop-opacity="0.0129876"/>
<stop offset="1" stop-color="#7446AC" stop-opacity="0"/>
</radialGradient>
<radialGradient id="paint1_radial_7_387" cx="0" cy="0" r="1" gradientUnits="userSpaceOnUse" gradientTransform="translate(32.2142 3.855) scale(65.3282)">
<stop stop-color="#F20074"/>
<stop offset="0.1407" stop-color="#ED0376"/>
<stop offset="0.3069" stop-color="#DF0B7D"/>
<stop offset="0.486" stop-color="#C71887"/>
<stop offset="0.6741" stop-color="#A62A96"/>
<stop offset="0.8675" stop-color="#7B42A9"/>
<stop offset="0.8985" stop-color="#7446AC"/>
</radialGradient>
<radialGradient id="paint2_radial_7_387" cx="0" cy="0" r="1" gradientUnits="userSpaceOnUse" gradientTransform="translate(37.7722 15.0584) scale(29.5559)">
<stop stop-color="#F20074"/>
<stop offset="0.1407" stop-color="#ED0376"/>
<stop offset="0.3069" stop-color="#DF0B7D"/>
<stop offset="0.486" stop-color="#C71887"/>
<stop offset="0.6741" stop-color="#A62A96"/>
<stop offset="0.8675" stop-color="#7B42A9"/>
<stop offset="0.8985" stop-color="#7446AC"/>
</radialGradient>
<radialGradient id="paint3_radial_7_387" cx="0" cy="0" r="1" gradientUnits="userSpaceOnUse" gradientTransform="translate(75.0712 61.6047) scale(50.7589 50.7589)">
<stop offset="0.0518519" stop-color="#E0A326"/>
<stop offset="0.4493" stop-color="#E0A128" stop-opacity="0.5808"/>
<stop offset="0.5925" stop-color="#DF9C2F" stop-opacity="0.4298"/>
<stop offset="0.6945" stop-color="#DD923A" stop-opacity="0.3222"/>
<stop offset="0.777" stop-color="#DB844B" stop-opacity="0.2352"/>
<stop offset="0.8477" stop-color="#D87261" stop-opacity="0.1607"/>
<stop offset="0.9102" stop-color="#D45B7D" stop-opacity="0.0946935"/>
<stop offset="0.9654" stop-color="#CF419C" stop-opacity="0.0364942"/>
<stop offset="1" stop-color="#CC2DB4" stop-opacity="0"/>
</radialGradient>
<radialGradient id="paint4_radial_7_387" cx="0" cy="0" r="1" gradientUnits="userSpaceOnUse" gradientTransform="translate(34.7373 6.94413) scale(28.4079 28.4079)">
<stop offset="0.0518519" stop-color="#E0A326"/>
<stop offset="0.4493" stop-color="#E0A128" stop-opacity="0.5808"/>
<stop offset="0.5925" stop-color="#DF9C2F" stop-opacity="0.4298"/>
<stop offset="0.6945" stop-color="#DD923A" stop-opacity="0.3222"/>
<stop offset="0.777" stop-color="#DB844B" stop-opacity="0.2352"/>
<stop offset="0.8477" stop-color="#D87261" stop-opacity="0.1607"/>
<stop offset="0.9102" stop-color="#D45B7D" stop-opacity="0.0946935"/>
<stop offset="0.9654" stop-color="#CF419C" stop-opacity="0.0364942"/>
<stop offset="1" stop-color="#CC2DB4" stop-opacity="0"/>
</radialGradient>
<radialGradient id="paint5_radial_7_387" cx="0" cy="0" r="1" gradientUnits="userSpaceOnUse" gradientTransform="translate(34.6084 6.7426) scale(27.2281 27.2281)">
<stop offset="0.0518519" stop-color="#E0A326"/>
<stop offset="0.4493" stop-color="#E0A128" stop-opacity="0.5808"/>
<stop offset="0.5925" stop-color="#DF9C2F" stop-opacity="0.4298"/>
<stop offset="0.6945" stop-color="#DD923A" stop-opacity="0.3222"/>
<stop offset="0.777" stop-color="#DB844B" stop-opacity="0.2352"/>
<stop offset="0.8477" stop-color="#D87261" stop-opacity="0.1607"/>
<stop offset="0.9102" stop-color="#D45B7D" stop-opacity="0.0946935"/>
<stop offset="0.9654" stop-color="#CF419C" stop-opacity="0.0364942"/>
<stop offset="1" stop-color="#CC2DB4" stop-opacity="0"/>
</radialGradient>
<radialGradient id="paint6_radial_7_387" cx="0" cy="0" r="1" gradientUnits="userSpaceOnUse" gradientTransform="translate(24.2874 29.7805) scale(43.3024 43.3024)">
<stop offset="0.0518519" stop-color="#E0A326"/>
<stop offset="0.4493" stop-color="#E0A128" stop-opacity="0.5808"/>
<stop offset="0.5925" stop-color="#DF9C2F" stop-opacity="0.4298"/>
<stop offset="0.6945" stop-color="#DD923A" stop-opacity="0.3222"/>
<stop offset="0.777" stop-color="#DB844B" stop-opacity="0.2352"/>
<stop offset="0.8477" stop-color="#D87261" stop-opacity="0.1607"/>
<stop offset="0.9102" stop-color="#D45B7D" stop-opacity="0.0946935"/>
<stop offset="0.9654" stop-color="#CF419C" stop-opacity="0.0364942"/>
<stop offset="1" stop-color="#CC2DB4" stop-opacity="0"/>
</radialGradient>
<radialGradient id="paint7_radial_7_387" cx="0" cy="0" r="1" gradientUnits="userSpaceOnUse" gradientTransform="translate(36.134 14.8244) rotate(21.0396) scale(23.9574 23.9574)">
<stop offset="0.0518519" stop-color="#E0A326"/>
<stop offset="0.4493" stop-color="#E0A128" stop-opacity="0.5808"/>
<stop offset="0.5925" stop-color="#DF9C2F" stop-opacity="0.4298"/>
<stop offset="0.6945" stop-color="#DD923A" stop-opacity="0.3222"/>
<stop offset="0.777" stop-color="#DB844B" stop-opacity="0.2352"/>
<stop offset="0.8477" stop-color="#D87261" stop-opacity="0.1607"/>
<stop offset="0.9102" stop-color="#D45B7D" stop-opacity="0.0946935"/>
<stop offset="0.9654" stop-color="#CF419C" stop-opacity="0.0364942"/>
<stop offset="1" stop-color="#CC2DB4" stop-opacity="0"/>
</radialGradient>
<radialGradient id="paint8_radial_7_387" cx="0" cy="0" r="1" gradientUnits="userSpaceOnUse" gradientTransform="translate(49.1304 1.51437) scale(61.623 61.623)">
<stop stop-color="#B22390"/>
<stop offset="0.3396" stop-color="#9E2F99"/>
<stop offset="0.8985" stop-color="#7446AC"/>
</radialGradient>
<radialGradient id="paint9_radial_7_387" cx="0" cy="0" r="1" gradientUnits="userSpaceOnUse" gradientTransform="translate(49.1304 1.51431) scale(61.6229 61.6229)">
<stop stop-color="#B22390"/>
<stop offset="0.3396" stop-color="#9E2F99"/>
<stop offset="0.8985" stop-color="#7446AC"/>
</radialGradient>
<radialGradient id="paint10_radial_7_387" cx="0" cy="0" r="1" gradientUnits="userSpaceOnUse" gradientTransform="translate(49.1304 1.51436) scale(61.6229 61.6229)">
<stop stop-color="#B22390"/>
<stop offset="0.3396" stop-color="#9E2F99"/>
<stop offset="0.8985" stop-color="#7446AC"/>
</radialGradient>
<radialGradient id="paint11_radial_7_387" cx="0" cy="0" r="1" gradientUnits="userSpaceOnUse" gradientTransform="translate(49.1303 1.51428) scale(61.623 61.623)">
<stop stop-color="#B22390"/>
<stop offset="0.3396" stop-color="#9E2F99"/>
<stop offset="0.8985" stop-color="#7446AC"/>
</radialGradient>
<radialGradient id="paint12_radial_7_387" cx="0" cy="0" r="1" gradientUnits="userSpaceOnUse" gradientTransform="translate(49.1304 1.51439) scale(61.6228 61.6228)">
<stop stop-color="#B22390"/>
<stop offset="0.3396" stop-color="#9E2F99"/>
<stop offset="0.8985" stop-color="#7446AC"/>
</radialGradient>
<radialGradient id="paint13_radial_7_387" cx="0" cy="0" r="1" gradientUnits="userSpaceOnUse" gradientTransform="translate(49.1303 1.51433) scale(61.623 61.623)">
<stop stop-color="#B22390"/>
<stop offset="0.3396" stop-color="#9E2F99"/>
<stop offset="0.8985" stop-color="#7446AC"/>
</radialGradient>
<radialGradient id="paint14_radial_7_387" cx="0" cy="0" r="1" gradientUnits="userSpaceOnUse" gradientTransform="translate(50.0478 11.103) scale(45.2723 45.2723)">
<stop stop-color="#F20074"/>
<stop offset="0.1407" stop-color="#ED0376"/>
<stop offset="0.3069" stop-color="#DF0B7D"/>
<stop offset="0.486" stop-color="#C71887"/>
<stop offset="0.6741" stop-color="#A62A96"/>
<stop offset="0.8675" stop-color="#7B42A9"/>
<stop offset="0.8985" stop-color="#7446AC"/>
</radialGradient>
<radialGradient id="paint15_radial_7_387" cx="0" cy="0" r="1" gradientUnits="userSpaceOnUse" gradientTransform="translate(53.0773 2.92272) scale(63.4139 63.4139)">
<stop offset="0.0518519" stop-color="#E0A326"/>
<stop offset="0.4493" stop-color="#E0A128" stop-opacity="0.5808"/>
<stop offset="0.5925" stop-color="#DF9C2F" stop-opacity="0.4298"/>
<stop offset="0.6945" stop-color="#DD923A" stop-opacity="0.3222"/>
<stop offset="0.777" stop-color="#DB844B" stop-opacity="0.2352"/>
<stop offset="0.8477" stop-color="#D87261" stop-opacity="0.1607"/>
<stop offset="0.9102" stop-color="#D45B7D" stop-opacity="0.0946935"/>
<stop offset="0.9654" stop-color="#CF419C" stop-opacity="0.0364942"/>
<stop offset="1" stop-color="#CC2DB4" stop-opacity="0"/>
</radialGradient>
<radialGradient id="paint16_radial_7_387" cx="0" cy="0" r="1" gradientUnits="userSpaceOnUse" gradientTransform="translate(53.0773 2.9227) scale(63.414 63.414)">
<stop offset="0.0518519" stop-color="#E0A326"/>
<stop offset="0.4493" stop-color="#E0A128" stop-opacity="0.5808"/>
<stop offset="0.5925" stop-color="#DF9C2F" stop-opacity="0.4298"/>
<stop offset="0.6945" stop-color="#DD923A" stop-opacity="0.3222"/>
<stop offset="0.777" stop-color="#DB844B" stop-opacity="0.2352"/>
<stop offset="0.8477" stop-color="#D87261" stop-opacity="0.1607"/>
<stop offset="0.9102" stop-color="#D45B7D" stop-opacity="0.0946935"/>
<stop offset="0.9654" stop-color="#CF419C" stop-opacity="0.0364942"/>
<stop offset="1" stop-color="#CC2DB4" stop-opacity="0"/>
</radialGradient>
<radialGradient id="paint17_radial_7_387" cx="0" cy="0" r="1" gradientUnits="userSpaceOnUse" gradientTransform="translate(53.0773 2.92261) scale(63.4142 63.4142)">
<stop offset="0.0518519" stop-color="#E0A326"/>
<stop offset="0.4493" stop-color="#E0A128" stop-opacity="0.5808"/>
<stop offset="0.5925" stop-color="#DF9C2F" stop-opacity="0.4298"/>
<stop offset="0.6945" stop-color="#DD923A" stop-opacity="0.3222"/>
<stop offset="0.777" stop-color="#DB844B" stop-opacity="0.2352"/>
<stop offset="0.8477" stop-color="#D87261" stop-opacity="0.1607"/>
<stop offset="0.9102" stop-color="#D45B7D" stop-opacity="0.0946935"/>
<stop offset="0.9654" stop-color="#CF419C" stop-opacity="0.0364942"/>
<stop offset="1" stop-color="#CC2DB4" stop-opacity="0"/>
</radialGradient>
<radialGradient id="paint18_radial_7_387" cx="0" cy="0" r="1" gradientUnits="userSpaceOnUse" gradientTransform="translate(53.0773 2.92273) scale(63.414)">
<stop offset="0.0518519" stop-color="#E0A326"/>
<stop offset="0.4493" stop-color="#E0A128" stop-opacity="0.5808"/>
<stop offset="0.5925" stop-color="#DF9C2F" stop-opacity="0.4298"/>
<stop offset="0.6945" stop-color="#DD923A" stop-opacity="0.3222"/>
<stop offset="0.777" stop-color="#DB844B" stop-opacity="0.2352"/>
<stop offset="0.8477" stop-color="#D87261" stop-opacity="0.1607"/>
<stop offset="0.9102" stop-color="#D45B7D" stop-opacity="0.0946935"/>
<stop offset="0.9654" stop-color="#CF419C" stop-opacity="0.0364942"/>
<stop offset="1" stop-color="#CC2DB4" stop-opacity="0"/>
</radialGradient>
<radialGradient id="paint19_radial_7_387" cx="0" cy="0" r="1" gradientUnits="userSpaceOnUse" gradientTransform="translate(53.0773 2.92272) scale(63.4139 63.4139)">
<stop offset="0.0518519" stop-color="#E0A326"/>
<stop offset="0.4493" stop-color="#E0A128" stop-opacity="0.5808"/>
<stop offset="0.5925" stop-color="#DF9C2F" stop-opacity="0.4298"/>
<stop offset="0.6945" stop-color="#DD923A" stop-opacity="0.3222"/>
<stop offset="0.777" stop-color="#DB844B" stop-opacity="0.2352"/>
<stop offset="0.8477" stop-color="#D87261" stop-opacity="0.1607"/>
<stop offset="0.9102" stop-color="#D45B7D" stop-opacity="0.0946935"/>
<stop offset="0.9654" stop-color="#CF419C" stop-opacity="0.0364942"/>
<stop offset="1" stop-color="#CC2DB4" stop-opacity="0"/>
</radialGradient>
<radialGradient id="paint20_radial_7_387" cx="0" cy="0" r="1" gradientUnits="userSpaceOnUse" gradientTransform="translate(53.0773 2.92261) scale(63.4142 63.4142)">
<stop offset="0.0518519" stop-color="#E0A326"/>
<stop offset="0.4493" stop-color="#E0A128" stop-opacity="0.5808"/>
<stop offset="0.5925" stop-color="#DF9C2F" stop-opacity="0.4298"/>
<stop offset="0.6945" stop-color="#DD923A" stop-opacity="0.3222"/>
<stop offset="0.777" stop-color="#DB844B" stop-opacity="0.2352"/>
<stop offset="0.8477" stop-color="#D87261" stop-opacity="0.1607"/>
<stop offset="0.9102" stop-color="#D45B7D" stop-opacity="0.0946935"/>
<stop offset="0.9654" stop-color="#CF419C" stop-opacity="0.0364942"/>
<stop offset="1" stop-color="#CC2DB4" stop-opacity="0"/>
</radialGradient>
<radialGradient id="paint21_radial_7_387" cx="0" cy="0" r="1" gradientUnits="userSpaceOnUse" gradientTransform="translate(50.655 6.02825) scale(55.6203 55.6203)">
<stop stop-color="#F20074"/>
<stop offset="0.1407" stop-color="#ED0376"/>
<stop offset="0.3069" stop-color="#DF0B7D"/>
<stop offset="0.486" stop-color="#C71887"/>
<stop offset="0.6741" stop-color="#A62A96"/>
<stop offset="0.8675" stop-color="#7B42A9"/>
<stop offset="0.8985" stop-color="#7446AC"/>
</radialGradient>
<radialGradient id="paint22_radial_7_387" cx="0" cy="0" r="1" gradientUnits="userSpaceOnUse" gradientTransform="translate(24.4467 32.04) scale(0.360185)">
<stop stop-color="#F20074"/>
<stop offset="0.1407" stop-color="#ED0376"/>
<stop offset="0.3069" stop-color="#DF0B7D"/>
<stop offset="0.486" stop-color="#C71887"/>
<stop offset="0.6741" stop-color="#A62A96"/>
<stop offset="0.8675" stop-color="#7B42A9"/>
<stop offset="0.8985" stop-color="#7446AC"/>
</radialGradient>
<radialGradient id="paint23_radial_7_387" cx="0" cy="0" r="1" gradientUnits="userSpaceOnUse" gradientTransform="translate(26.5887 35.8201) scale(0.360185)">
<stop stop-color="#F20074"/>
<stop offset="0.1407" stop-color="#ED0376"/>
<stop offset="0.3069" stop-color="#DF0B7D"/>
<stop offset="0.486" stop-color="#C71887"/>
<stop offset="0.6741" stop-color="#A62A96"/>
<stop offset="0.8675" stop-color="#7B42A9"/>
<stop offset="0.8985" stop-color="#7446AC"/>
</radialGradient>
<radialGradient id="paint24_radial_7_387" cx="0" cy="0" r="1" gradientUnits="userSpaceOnUse" gradientTransform="translate(30.4317 46.8451) scale(0.360185 0.360184)">
<stop stop-color="#F20074"/>
<stop offset="0.1407" stop-color="#ED0376"/>
<stop offset="0.3069" stop-color="#DF0B7D"/>
<stop offset="0.486" stop-color="#C71887"/>
<stop offset="0.6741" stop-color="#A62A96"/>
<stop offset="0.8675" stop-color="#7B42A9"/>
<stop offset="0.8985" stop-color="#7446AC"/>
</radialGradient>
<radialGradient id="paint25_radial_7_387" cx="0" cy="0" r="1" gradientUnits="userSpaceOnUse" gradientTransform="translate(33.0777 45.7111) scale(0.360185 0.360187)">
<stop stop-color="#F20074"/>
<stop offset="0.1407" stop-color="#ED0376"/>
<stop offset="0.3069" stop-color="#DF0B7D"/>
<stop offset="0.486" stop-color="#C71887"/>
<stop offset="0.6741" stop-color="#A62A96"/>
<stop offset="0.8675" stop-color="#7B42A9"/>
<stop offset="0.8985" stop-color="#7446AC"/>
</radialGradient>
<radialGradient id="paint26_radial_7_387" cx="0" cy="0" r="1" gradientUnits="userSpaceOnUse" gradientTransform="translate(38.8108 53.2711) scale(0.360185 0.360184)">
<stop stop-color="#F20074"/>
<stop offset="0.1407" stop-color="#ED0376"/>
<stop offset="0.3069" stop-color="#DF0B7D"/>
<stop offset="0.486" stop-color="#C71887"/>
<stop offset="0.6741" stop-color="#A62A96"/>
<stop offset="0.8675" stop-color="#7B42A9"/>
<stop offset="0.8985" stop-color="#7446AC"/>
</radialGradient>
<radialGradient id="paint27_radial_7_387" cx="0" cy="0" r="1" gradientUnits="userSpaceOnUse" gradientTransform="translate(30.4948 21.141) scale(0.360185)">
<stop stop-color="#F20074"/>
<stop offset="0.1407" stop-color="#ED0376"/>
<stop offset="0.3069" stop-color="#DF0B7D"/>
<stop offset="0.486" stop-color="#C71887"/>
<stop offset="0.6741" stop-color="#A62A96"/>
<stop offset="0.8675" stop-color="#7B42A9"/>
<stop offset="0.8985" stop-color="#7446AC"/>
</radialGradient>
<radialGradient id="paint28_radial_7_387" cx="0" cy="0" r="1" gradientUnits="userSpaceOnUse" gradientTransform="translate(30.4948 16.164) scale(0.360185)">
<stop stop-color="#F20074"/>
<stop offset="0.1407" stop-color="#ED0376"/>
<stop offset="0.3069" stop-color="#DF0B7D"/>
<stop offset="0.486" stop-color="#C71887"/>
<stop offset="0.6741" stop-color="#A62A96"/>
<stop offset="0.8675" stop-color="#7B42A9"/>
<stop offset="0.8985" stop-color="#7446AC"/>
</radialGradient>
<radialGradient id="paint29_radial_7_387" cx="0" cy="0" r="1" gradientUnits="userSpaceOnUse" gradientTransform="translate(35.3458 22.086) scale(0.360185 0.360184)">
<stop stop-color="#F20074"/>
<stop offset="0.1407" stop-color="#ED0376"/>
<stop offset="0.3069" stop-color="#DF0B7D"/>
<stop offset="0.486" stop-color="#C71887"/>
<stop offset="0.6741" stop-color="#A62A96"/>
<stop offset="0.8675" stop-color="#7B42A9"/>
<stop offset="0.8985" stop-color="#7446AC"/>
</radialGradient>
<radialGradient id="paint30_radial_7_387" cx="0" cy="0" r="1" gradientUnits="userSpaceOnUse" gradientTransform="translate(35.5978 23.724) scale(0.360185)">
<stop stop-color="#F20074"/>
<stop offset="0.1407" stop-color="#ED0376"/>
<stop offset="0.3069" stop-color="#DF0B7D"/>
<stop offset="0.486" stop-color="#C71887"/>
<stop offset="0.6741" stop-color="#A62A96"/>
<stop offset="0.8675" stop-color="#7B42A9"/>
<stop offset="0.8985" stop-color="#7446AC"/>
</radialGradient>
<radialGradient id="paint31_radial_7_387" cx="0" cy="0" r="1" gradientUnits="userSpaceOnUse" gradientTransform="translate(45.5381 37.6535) rotate(-1.05543) scale(53.8203 64.5065)">
<stop stop-color="#8EE1EE"/>
<stop offset="0.6169" stop-color="#5E8DEC"/>
<stop offset="0.6298" stop-color="#5F89E8"/>
<stop offset="0.745" stop-color="#6B64C7"/>
<stop offset="0.8386" stop-color="#714EB3"/>
<stop offset="0.8985" stop-color="#7446AC"/>
</radialGradient>
<radialGradient id="paint32_radial_7_387" cx="0" cy="0" r="1" gradientUnits="userSpaceOnUse" gradientTransform="translate(48.7144 37.7452) rotate(-36.2431) scale(57.9732)">
<stop stop-color="#8EE1EE"/>
<stop offset="0.6169" stop-color="#5E8DEC"/>
<stop offset="0.6298" stop-color="#5F89E8"/>
<stop offset="0.745" stop-color="#6B64C7"/>
<stop offset="0.8386" stop-color="#714EB3"/>
<stop offset="0.8985" stop-color="#7446AC"/>
</radialGradient>
</defs>
</svg>
