<svg width="26" height="52" viewBox="0 0 26 52" fill="none" xmlns="http://www.w3.org/2000/svg">
<g opacity="0.7" filter="url(#filter0_f_7_468)">
<path d="M-0.177633 50.6447C13.5314 50.6447 24.6447 39.5314 24.6447 25.8224C24.6447 12.1133 13.5314 1 -0.177633 1C-13.8867 1 -25 12.1133 -25 25.8224C-25 39.5314 -13.8867 50.6447 -0.177633 50.6447Z" fill="url(#paint0_radial_7_468)"/>
<path d="M-0.177612 48.5639C12.3821 48.5639 22.5638 38.3822 22.5638 25.8224C22.5638 13.2626 12.3821 3.08095 -0.177612 3.08095C-12.7374 3.08095 -22.9191 13.2626 -22.9191 25.8224C-22.9191 38.3822 -12.7374 48.5639 -0.177612 48.5639Z" fill="url(#paint1_radial_7_468)"/>
<path opacity="0.5" d="M21.2261 18.2419V18.0933C21.2261 17.9446 21.0774 17.796 21.0774 17.4987V17.3501C20.9288 17.2014 20.9288 16.9041 20.7802 16.7555V16.6069C20.6315 16.4582 20.6315 16.3096 20.4829 16.0123C20.4829 16.0123 20.4829 15.8637 20.3342 15.8637C20.1856 15.7151 20.1856 15.4178 20.037 15.2691C19.8883 15.1205 19.7397 14.8232 19.7397 14.6746V14.526C19.591 14.3773 19.591 14.2287 19.4424 13.9314C19.4424 13.9314 19.4424 13.9314 19.4424 13.7828C19.2938 13.6341 19.1451 13.3369 18.9965 13.1882C18.8479 13.0396 18.6992 12.7423 18.5506 12.5937C18.5506 12.5937 18.5506 12.5937 18.5506 12.445C18.2533 11.9991 17.956 11.7019 17.6588 11.2559C17.5101 11.1073 17.3615 10.9587 17.2129 10.6614C16.9156 10.3641 16.4697 9.91823 16.1724 9.62095C15.8751 9.32368 15.4292 8.87775 15.132 8.58047C16.6183 10.81 18.6992 14.2287 16.4697 15.8637C13.7942 17.796 8.29465 16.161 1.90326 22.8496C-4.33949 29.3897 -1.66402 34.146 -7.90677 38.0106C-14.1495 41.8752 -19.7977 36.5242 -19.7977 36.5242L-19.0545 37.862C-14.0009 46.037 -4.3395 50.1988 5.3219 48.1179C5.47054 48.1179 5.61918 48.1179 5.61918 47.9693C5.76782 47.9693 5.76782 47.9693 5.91645 47.9693C6.06509 47.9693 6.21373 47.8206 6.36237 47.8206H6.511C6.80828 47.8206 6.95691 47.672 7.25419 47.672C19.1451 43.8074 25.8338 31.0247 21.9692 19.1337C21.5233 18.6878 21.3747 18.3905 21.2261 18.2419Z" fill="url(#paint2_radial_7_468)"/>
<path opacity="0.34" d="M20.3341 17.9446V17.796C20.3341 17.6473 20.1855 17.4987 20.1855 17.2014V17.0528C20.0368 16.9041 20.0369 16.6069 19.8882 16.4582V16.3096C19.7396 16.161 19.7396 16.0123 19.591 15.715C19.591 15.715 19.5909 15.5664 19.4423 15.5664C19.2937 15.4178 19.2937 15.1205 19.145 14.9718C18.9964 14.8232 18.8478 14.5259 18.8478 14.3773V14.2287C18.6991 14.08 18.6991 13.9314 18.5505 13.7827C18.5505 13.7827 18.5505 13.7828 18.5505 13.6341C18.4019 13.4855 18.2532 13.1882 18.1046 13.0396C17.9559 12.8909 17.8073 12.5937 17.6587 12.445C17.6587 12.445 17.6587 12.445 17.6587 12.2964C17.3614 11.8505 17.0641 11.5532 16.7668 11.1073C16.6182 10.9587 16.4696 10.81 16.3209 10.6614C16.0237 10.3641 15.7264 9.9182 15.2805 9.62093C15.1318 9.47229 14.8346 9.175 14.5373 9.02637C14.6859 9.32364 14.9832 9.47228 15.1318 9.76955C15.2805 9.91819 15.4291 10.0668 15.5778 10.2155C15.875 10.5127 16.1723 10.9587 16.4696 11.4046C16.4696 11.4046 16.4696 11.4046 16.4696 11.5532C16.6182 11.7018 16.7668 11.8505 16.9155 12.1478C17.0641 12.2964 17.2128 12.5937 17.3614 12.7423C17.3614 12.7423 17.3614 12.7423 17.3614 12.8909C17.51 13.0396 17.51 13.1882 17.6587 13.3369V13.4855C17.8073 13.6341 17.9559 13.9314 17.9559 14.08C18.1046 14.2287 18.1046 14.5259 18.2532 14.6746C18.2532 14.6746 18.2532 14.8232 18.4018 14.8232C18.5505 14.9719 18.5505 15.1205 18.6991 15.4178V15.5664C18.8478 15.715 18.8478 16.0123 18.9964 16.1609V16.3096C18.9964 16.4582 19.145 16.6069 19.145 16.9041V17.0528C19.2937 17.35 19.2937 17.4987 19.4423 17.796C23.1582 29.5383 16.7668 42.0238 5.02452 45.8883C4.87589 45.8883 4.57861 46.037 4.42997 46.037H4.28134C4.1327 46.037 3.98406 46.1856 3.83542 46.1856C3.68679 46.1856 3.68679 46.1856 3.53815 46.1856C3.38952 46.1856 3.38952 46.1856 3.24088 46.3342C-4.04233 47.9693 -11.3255 45.8883 -16.5278 41.132C-11.1769 46.4829 -3.44778 49.1583 4.42997 47.3747C4.57861 47.3747 4.72725 47.3747 4.72725 47.2261C4.87589 47.2261 4.87589 47.2261 5.02452 47.2261C5.17316 47.2261 5.3218 47.0774 5.47044 47.0774L5.61907 47.0774C5.76771 47.0774 6.06499 46.9288 6.21362 46.9288C17.9559 43.2129 24.3473 30.5787 20.6314 18.8364C20.4828 18.3905 20.4828 18.2419 20.3341 17.9446Z" fill="url(#paint3_radial_7_468)"/>
<path opacity="0.6" d="M12.1593 12.5937C12.0107 12.7423 12.0107 12.8909 11.8621 13.0396C11.4161 13.4855 10.673 13.9314 10.0784 14.2287C8.74069 14.8232 7.40295 15.5664 6.06522 16.161C2.94384 17.796 -0.326164 19.5796 -2.55572 22.2551C-4.04209 23.8901 -4.93391 25.971 -5.97437 27.9033C-7.01483 29.8355 -8.05529 31.7678 -9.6903 33.4028C-11.3253 35.0379 -13.4062 36.0783 -15.6358 36.0783C-20.9867 35.9297 -21.4326 29.6869 -21.4326 25.6737C-21.4326 16.3096 -15.1899 7.68864 -6.27164 4.86454C-2.25844 3.5268 2.05203 3.52681 6.21387 4.56727C9.48388 5.45909 14.0916 7.0941 12.9025 11.4046C12.4566 11.8505 12.308 12.2964 12.1593 12.5937Z" fill="url(#paint4_radial_7_468)"/>
<path opacity="0.6" d="M-20.9867 26.2683C-20.9867 16.9041 -14.744 8.2832 -5.82579 5.4591C-1.81259 4.12136 2.49788 4.12137 6.65972 5.16183C8.44336 5.60774 10.3756 6.35092 11.862 7.39138C10.5243 5.90501 7.99745 5.01318 6.06517 4.56727C2.05197 3.52681 -2.40713 3.5268 -6.42032 4.86454C-15.3385 7.68864 -21.5813 16.3096 -21.5813 25.6737C-21.5813 28.7951 -21.284 33.1056 -18.7572 35.0378C-20.6895 32.9569 -20.9867 29.0924 -20.9867 26.2683Z" fill="url(#paint5_radial_7_468)"/>
<path opacity="0.5" d="M9.48378 13.3369C9.33514 13.4855 9.1865 13.6341 9.03786 13.6341C8.88923 13.6341 8.7406 13.7828 8.59196 13.7828C8.14605 13.7828 7.70014 13.7828 7.10559 13.9314C6.80832 14.08 6.51104 14.2287 6.36241 14.2287C6.21377 14.3773 6.06513 14.5259 5.91649 14.5259C5.76785 14.5259 5.76786 14.6746 5.61922 14.6746C5.47058 14.6746 5.32194 14.6746 5.32194 14.6746C5.02467 14.6746 4.87603 14.6746 4.57876 14.6746C4.13284 14.6746 3.83557 14.6746 3.83557 14.6746C3.83557 14.6746 3.5383 14.6746 3.09239 14.6746C2.64647 14.6746 2.05193 14.6746 1.30875 14.6746C0.565562 14.6746 -0.326263 14.8232 -1.36672 14.9719C-2.25854 15.1205 -3.299 15.4178 -4.33946 15.8637C-5.23128 16.3096 -6.1231 16.9041 -6.86628 17.6473C-7.60947 18.2419 -8.20402 18.8364 -8.79857 19.2823C-9.09584 19.431 -9.39311 19.5796 -9.69039 19.7282C-9.98766 19.8769 -10.2849 19.8769 -10.4336 19.8769C-10.8795 19.8769 -11.0281 19.8769 -11.1768 19.8769C-11.1768 19.8769 -11.0281 20.0255 -10.5822 20.1742C-10.2849 20.1742 -10.1363 20.1742 -9.69039 20.1742C-9.09584 20.1742 -8.50129 19.7282 -7.90674 19.7282C-7.16355 19.5796 -6.42038 19.7283 -5.82583 19.2823C-5.52856 19.1337 -5.37992 18.8364 -5.08265 18.5392C-4.33946 17.796 -3.44763 17.3501 -2.40718 17.2014C-1.81263 17.2014 -1.21809 17.2014 -0.623538 17.0528C0.119647 16.9042 0.714197 16.6069 1.45738 16.7555C1.75466 16.7555 2.20057 16.9041 2.49785 16.9041C2.79512 16.9041 3.09239 16.6069 3.38967 16.4582C3.98421 16.161 4.87604 16.4582 5.61922 16.3096C5.76786 16.3096 6.06513 16.161 6.21377 16.0123C6.65968 15.715 6.80832 15.5664 7.10559 15.4178C7.40286 15.2691 7.70013 15.2691 8.29468 15.2691C8.44332 15.2691 8.59196 15.2691 8.74059 15.1205C9.48378 14.9719 10.0783 14.3773 10.8215 14.0801C11.862 13.4855 12.6052 12.2964 13.0511 11.2559C13.1997 10.6614 13.7943 8.28321 13.0511 7.98593C12.0106 9.4723 11.1188 11.1073 10.0783 12.5937C10.0783 12.7423 9.92969 13.0396 9.48378 13.3369Z" fill="url(#paint6_radial_7_468)"/>
<path opacity="0.5" d="M20.6316 35.0379C20.1857 35.0379 18.9966 35.1865 17.6589 35.6324C16.767 35.9297 15.5779 36.227 14.3888 36.8215C13.1997 37.2674 12.0106 38.0106 10.9702 38.6052C10.3756 38.9024 9.7811 39.3483 9.33519 39.7942C9.03791 39.9429 8.88928 40.2402 8.592 40.3888C8.29473 40.5374 8.14609 40.8347 7.84882 40.9833C6.957 41.7265 6.06517 42.4697 5.17335 42.767C4.43016 43.2129 3.68698 43.2129 3.09243 43.3616C2.79515 43.3616 2.64653 43.3616 2.49789 43.3616C2.34925 43.3616 2.34925 43.3616 2.34925 43.3616H2.20061C2.05197 43.3616 1.90333 43.3616 1.60606 43.3616C1.01151 43.3616 0.26833 43.2129 -0.772129 43.0643C-1.81259 42.9156 -3.00169 42.767 -4.33942 42.9156C-5.67715 43.0643 -6.86625 43.5102 -8.05534 43.6588C-8.35262 43.6588 -8.64989 43.8075 -8.94716 43.8075C-9.24443 43.8075 -9.54171 43.9561 -9.83898 43.9561C-10.4335 43.9561 -11.0281 43.9561 -11.6226 43.9561C-12.3658 43.9561 -13.109 43.8075 -13.8522 43.8075C-13.5549 44.1047 -13.2576 44.2534 -12.9604 44.5506C-12.2172 44.9966 -11.3254 45.1452 -10.4335 45.4425C-10.1363 45.5911 -9.83898 45.5911 -9.54171 45.5911C-9.0958 45.5911 -8.79852 45.4425 -8.50125 45.1452C-8.35261 44.9966 -8.20397 44.8479 -7.9067 44.8479C-7.75806 44.8479 -7.46079 44.9966 -7.31216 45.1452C-6.56897 45.4425 -5.82578 44.9966 -5.23124 44.5506C-5.0826 44.402 -4.93396 44.2534 -4.63669 44.1047C-3.59623 43.6588 -1.21804 44.402 -0.326214 44.5506C-0.177577 44.5506 0.119699 44.6993 0.268336 44.8479C0.416973 44.9966 0.565603 45.1452 0.71424 45.2938C1.16015 45.7397 1.7547 45.5911 2.34925 45.4425C2.94379 45.2938 3.68698 45.1452 4.28153 44.9965C5.02471 44.9965 5.7679 45.2938 6.51108 44.8479C7.25427 44.402 7.55154 43.6588 8.14609 43.2129C8.74063 42.9156 9.48383 42.767 9.92974 42.4697C10.3756 42.0238 10.6729 41.4293 10.9702 40.9833C11.4161 39.9429 12.3079 38.9024 13.3484 38.3079C13.6457 38.1592 13.9429 38.0106 14.2402 38.0106C14.3888 38.0106 14.6861 38.0106 14.8348 38.0106C15.5779 38.0106 16.1725 37.5647 16.767 36.9702C17.0643 36.8215 19.5911 35.6324 20.6316 35.0379C20.6316 35.1865 20.6316 35.1865 20.6316 35.0379Z" fill="url(#paint7_radial_7_468)"/>
<path opacity="0.5" d="M12.4566 22.9983C11.7134 23.2956 10.9702 23.5928 10.2271 23.5928C9.48388 23.5928 8.74069 23.5928 8.14614 23.4442C7.5516 23.2955 6.95705 23.1469 6.3625 22.9983C5.76796 22.8496 5.32205 22.701 4.87613 22.701C4.7275 22.701 4.43022 22.5524 4.28158 22.5524C4.13295 22.5524 3.98431 22.5524 3.83567 22.5524C3.53839 22.5524 3.5384 22.5524 3.5384 22.5524C3.5384 22.5524 3.5384 22.5524 3.38976 22.5524C3.38976 22.5524 3.24112 22.5524 3.09248 22.5524C2.94385 22.5524 2.79522 22.5524 2.64658 22.5524C2.49794 22.5524 2.49794 22.5524 2.3493 22.5524C2.20066 22.5524 2.20067 22.5524 2.05203 22.5524C1.16021 22.701 -0.0288925 22.9983 -1.36662 23.4442C-1.96117 23.7415 -2.70435 24.0387 -3.44753 24.4847C-4.19072 24.9306 -4.9339 25.3765 -5.67709 25.8224C-7.16346 26.7142 -8.79847 27.606 -10.4335 28.0519L-11.028 28.2006C-11.1767 28.2006 -11.4739 28.3492 -11.6226 28.3492C-11.7712 28.3492 -12.0685 28.3492 -12.2171 28.4978C-12.3658 28.4978 -12.663 28.4978 -12.8117 28.4978C-12.9603 28.4978 -13.2576 28.4978 -13.4062 28.4978C-13.5549 28.4978 -13.8521 28.4978 -14.0008 28.4978C-14.1494 28.4978 -14.4467 28.4978 -14.5953 28.4978C-14.7439 28.4978 -15.0412 28.4978 -15.1899 28.4978C-16.8249 28.3492 -18.4599 27.9033 -19.7976 27.4574C-20.6894 27.1601 -21.4326 26.8628 -22.1758 26.5656C-22.3244 26.5656 -22.0272 27.1601 -21.8785 27.1601C-21.7299 27.4574 -21.4326 27.4574 -21.1353 27.606C-20.8381 27.7547 -20.3922 27.7547 -19.9462 27.9033C-19.7976 27.9033 -19.5003 28.0519 -19.3517 28.2006C-18.9058 28.4979 -18.7571 28.9437 -18.3112 29.3897C-17.8653 29.8356 -17.2708 30.1329 -16.6762 30.2815C-15.933 30.4301 -15.1899 30.5788 -14.4467 30.4301C-14.1494 30.4301 -13.8521 30.4301 -13.5549 30.4301C-12.8117 30.5788 -12.2171 31.1733 -11.3253 31.3219C-10.4335 31.4706 -9.39301 30.876 -8.50119 30.7274C-7.75801 30.5788 -7.01482 30.7274 -6.42027 30.4301C-5.37981 29.8356 -4.78527 28.2006 -3.74481 27.3087C-2.55572 26.2683 -1.06934 25.6737 0.417027 25.3765C0.862936 25.3765 1.30885 25.2278 1.75476 25.2278C3.38977 25.3765 5.02477 25.8224 6.65977 26.1196C8.29478 26.2683 9.78116 26.1197 11.4162 25.971C11.8621 25.971 12.1593 25.8224 12.4566 25.6737C12.9025 25.3765 13.0512 24.9306 13.4971 24.7819C14.0916 24.4847 14.9835 24.4846 15.578 24.336C16.0239 24.1874 16.4698 24.1874 16.7671 23.8901C17.213 23.5928 17.5103 22.9983 17.8076 22.5524C18.5507 21.3633 19.1453 20.0255 19.8885 18.8364C20.3344 18.0933 20.9289 17.4987 21.0776 16.7555C20.9289 16.4582 20.7803 16.161 20.6316 15.8637C19.2939 17.0528 18.2535 18.6878 17.0644 20.0255C15.4294 21.066 13.943 22.2551 12.4566 22.9983Z" fill="url(#paint8_radial_7_468)"/>
<path opacity="0.5" d="M-16.6764 39.3484C-15.9332 39.497 -15.19 39.3484 -14.5955 39.3484C-14.2982 39.3484 -14.0009 39.3484 -13.7036 39.1997C-11.7714 38.4565 -11.0282 36.5242 -8.64998 36.227C-7.90679 36.0783 -7.31226 36.227 -6.56907 36.3756C-5.37998 36.6729 -5.23134 36.9702 -4.33952 37.7133C-4.04224 37.862 -3.74496 37.862 -3.44769 37.7133C-3.15041 37.5647 -2.85314 37.4161 -2.55587 37.2674C-1.81268 36.8215 -1.0695 36.8215 -0.177677 36.8215C-0.0290413 36.8215 0.268236 36.8215 0.416872 36.6729C1.30869 36.227 1.45733 35.3352 2.49779 34.8893C3.24098 34.592 3.83552 34.4433 4.5787 33.8488C5.7678 32.957 6.36235 32.2138 6.21372 32.0651C6.06508 31.9165 5.47053 32.6597 4.28143 33.4029C3.68688 33.7002 2.9437 34.1461 2.20051 34.4433C1.45733 34.7406 0.565512 35.0379 -0.474947 35.1865C-1.36677 35.3352 -2.25859 35.4838 -3.15042 35.4838C-4.04224 35.4838 -4.78542 35.3352 -5.52861 35.1865C-6.27179 35.0379 -6.86634 34.8893 -7.31226 34.8893C-7.46089 34.8893 -7.75816 34.8893 -7.75816 34.8893C-7.9068 34.8893 -7.90679 34.8893 -7.90679 34.8893C-7.90679 34.8893 -7.9068 34.8893 -8.05544 34.8893C-8.20408 34.8893 -8.35271 34.8893 -8.64998 34.8893C-8.94725 34.8893 -9.24454 34.8892 -9.54181 35.0379C-9.83908 35.0379 -10.285 35.1865 -10.5823 35.3351C-10.8795 35.4838 -11.3254 35.7811 -11.6227 35.9297C-11.92 36.0783 -12.3659 36.3756 -12.6632 36.5242C-13.4064 36.9702 -14.2982 37.2674 -15.19 37.5647C-16.0818 37.862 -16.9737 38.0106 -17.8655 38.0106C-18.3114 38.0106 -18.6087 38.0106 -19.0546 38.0106C-18.7573 38.9024 -17.7168 39.3484 -16.6764 39.3484Z" fill="url(#paint9_radial_7_468)"/>
<path opacity="0.5" d="M-7.90662 13.0396C-8.79844 13.1882 -9.69027 13.1882 -10.5821 13.1882C-12.3657 13.0396 -14.298 12.5937 -15.6357 12.1478C-16.0817 11.9992 -16.9735 11.5532 -17.2708 11.9991C-16.0817 12.7423 -14.7439 12.891 -13.4062 13.1882C-12.5144 13.4855 -11.7712 14.0801 -10.8794 14.3773C-7.46071 15.8637 -5.08252 13.7828 -2.40706 12.1478C-2.10978 11.9992 -1.51524 11.5532 -0.920689 11.256C0.268406 10.6614 1.4575 10.0669 2.79523 10.0669C3.24115 10.0669 3.8357 10.0669 4.13297 9.62097C4.13297 9.47233 4.2816 9.32367 4.2816 9.32367C4.43024 9.32367 4.43024 9.32369 4.57887 9.17505C5.02478 9.02641 5.32207 8.43186 5.61934 7.98595C5.76797 7.68868 6.6598 4.12139 6.36252 3.97276C6.21389 3.97276 5.91661 3.82411 5.76797 3.82411C5.61934 4.5673 5.4707 5.31048 5.02479 6.05367C4.87615 6.35094 4.57888 6.79685 4.2816 7.09412C3.98433 7.39139 3.68706 7.68868 3.24115 7.98595C2.49796 8.43186 1.60613 8.72913 0.862949 9.0264C-0.0288715 9.32368 -0.772055 9.62096 -1.51524 9.91824C-2.25842 10.2155 -2.70433 10.5128 -3.15024 10.81C-3.44752 10.9587 -3.74479 11.1073 -3.74479 11.1073C-3.74479 11.1073 -3.89343 11.256 -4.33934 11.4046C-4.63662 11.5532 -5.23116 11.8505 -5.82571 12.1478C-6.42026 12.5937 -7.16344 12.891 -7.90662 13.0396Z" fill="url(#paint10_radial_7_468)"/>
<path opacity="0.5" d="M22.4153 25.5251C21.6721 25.8224 20.483 27.0115 20.0371 27.1601C19.7399 27.3087 19.4426 27.4574 19.1453 27.4574C18.9967 27.4574 18.848 27.606 18.848 27.606C18.848 27.606 18.6994 27.606 18.4021 27.7547C18.1048 27.7547 17.8076 27.9033 17.3617 28.0519C16.9158 28.2006 16.3212 28.4978 15.8753 28.9438C15.4294 29.3897 14.9835 29.8356 14.5375 30.2815C13.7944 31.1733 13.1998 32.2137 12.6053 32.8083C12.0107 33.4028 11.5648 33.7001 11.5648 33.7001C11.5648 33.8488 12.7539 33.2542 12.9026 33.2542C13.3485 33.2542 13.6457 33.1056 13.943 33.1056C14.5376 32.9569 15.1321 32.6597 15.4294 32.0651C15.578 31.7678 15.7266 31.1733 16.0239 31.0247C16.3212 30.7274 16.7671 30.7274 17.0644 30.5787C17.3617 30.4301 17.6589 30.1328 17.8076 29.8356C18.4021 29.241 19.4426 29.0924 20.1858 28.9438C21.0776 28.7951 21.9694 28.3492 22.564 27.7547C22.564 27.0115 22.564 26.4169 22.564 25.6737C22.564 25.3764 22.4153 25.3765 22.4153 25.5251Z" fill="url(#paint11_radial_7_468)"/>
<path opacity="0.5" d="M-20.9866 20.9174C-21.1352 20.7687 -21.4325 20.4715 -21.5811 20.3228C-21.7298 20.7687 -21.7298 21.066 -21.5811 21.3633C-21.2839 22.1065 -20.5407 22.701 -20.0948 23.2956C-19.7975 23.5928 -19.6489 23.8901 -19.3516 24.0387C-18.757 24.4847 -17.8652 24.6333 -17.4193 25.3765C-17.2707 25.6737 -17.2707 25.8224 -16.9734 25.971C-16.8248 26.1197 -16.6761 25.971 -16.3789 25.971C-15.6357 25.971 -15.0411 26.2683 -14.4466 26.5656C-13.852 26.8628 -13.1088 27.0115 -12.3657 26.7142C-11.4738 26.2683 -10.7307 26.1197 -9.83883 25.6737C-9.39292 25.5251 -9.09564 25.3765 -8.64973 25.3765C-8.05518 25.3765 -7.46064 25.5251 -6.86609 25.3765C-5.52836 25.0792 -4.19063 23.8901 -3.00153 23.1469C-2.10971 22.701 -1.36652 22.1065 -0.474699 21.9578C-0.0287876 21.8092 0.268478 21.8092 0.71439 21.6605C1.01166 21.5119 1.30894 21.066 1.60621 20.7687C2.49803 19.8769 3.98441 20.1742 5.02486 20.0256C5.76805 19.8769 6.3626 19.8769 6.95715 19.5796C7.5517 19.431 8.14624 19.1337 8.74079 18.9851C9.33533 18.6878 9.92988 18.5392 10.3758 18.2419C10.6731 18.0933 10.9703 17.9446 11.119 17.796C11.4162 17.6474 11.5649 17.4987 11.7135 17.2014C12.0108 16.7555 12.3081 16.3096 12.4567 16.0123C12.6053 15.5664 12.754 15.2692 12.754 14.9719C12.9026 14.3773 12.9026 14.0801 12.9026 14.0801C12.9026 14.0801 12.754 14.3774 12.4567 14.8233C12.3081 15.1205 12.1594 15.4178 12.0108 15.7151C11.8622 16.0123 11.5649 16.4583 11.2676 16.7555C10.9703 17.0528 10.5244 17.3501 9.92989 17.4987C9.48398 17.6473 8.88942 17.9446 8.29487 18.0933C7.70032 18.2419 7.10578 18.5392 6.51123 18.6878C5.91669 18.8364 5.32213 18.9851 4.57895 18.9851C3.24122 19.1337 1.90349 18.9851 0.565754 19.2824C-0.771978 19.5796 -1.81243 20.1742 -2.70425 20.4714C-4.4879 21.3633 -5.67699 21.8092 -5.67699 21.8092C-5.67699 21.8092 -6.86609 22.4037 -8.64973 23.2956C-9.54155 23.7415 -10.582 24.336 -11.6225 24.4847C-12.6629 24.6333 -14.0007 24.4847 -15.1898 24.0387C-16.3789 23.7415 -17.568 23.1469 -18.6084 22.5524C-19.3516 22.2551 -20.2434 21.5119 -20.9866 20.9174Z" fill="url(#paint12_radial_7_468)"/>
<path d="M-22.0272 19.8769C-21.8786 20.0255 -21.5813 20.3228 -21.4327 20.4714C-20.6895 21.2146 -19.9463 21.8092 -18.9058 22.5524C-17.8654 23.1469 -16.6763 23.7415 -15.4872 24.0387C-14.2981 24.336 -12.9604 24.6333 -11.9199 24.4847C-10.8794 24.336 -9.83898 23.7415 -8.94716 23.2956C-7.16351 22.4037 -5.97442 21.8092 -5.97442 21.8092C-5.97442 21.8092 -4.78532 21.2146 -3.00168 20.4714C-2.10986 20.0255 -1.06939 19.5796 0.268339 19.2824C1.60607 18.9851 2.9438 18.9851 4.28153 18.9851C4.87608 18.9851 5.47063 18.8364 6.21382 18.6878C6.80836 18.5392 7.40291 18.3905 7.99745 18.0933C8.592 17.9446 9.18655 17.6473 9.63246 17.4987C10.0784 17.3501 10.5243 17.0528 10.9702 16.7555C11.2675 16.4582 11.5647 16.161 11.7134 15.7151C11.862 15.4178 12.0107 15.1205 12.1593 14.8233C12.4566 14.2287 12.6052 13.9314 12.6052 14.0801C12.6052 14.0801 12.6052 14.3773 12.4566 14.9719C12.3079 15.2692 12.3079 15.5664 12.1593 16.0123C12.0107 16.4582 11.7134 16.7555 11.4161 17.2014C11.2675 17.3501 10.9702 17.6474 10.8216 17.796C10.5243 17.9446 10.3756 18.0933 10.0784 18.2419C9.48383 18.5392 9.03792 18.6878 8.44337 18.9851C7.84882 19.2823 7.25427 19.431 6.65972 19.5796C6.06517 19.7283 5.32199 19.8769 4.72745 20.0256C3.68699 20.1742 2.05198 20.0256 1.30879 20.7687C1.01152 21.066 0.714247 21.3633 0.416973 21.6605C0.119699 21.8092 -0.326216 21.8092 -0.772127 21.9578C-1.66395 22.1064 -2.55577 22.701 -3.29895 23.1469C-4.48804 23.8901 -5.82578 25.0792 -7.16351 25.3765C-7.75805 25.5251 -8.35261 25.3765 -8.94716 25.3765C-9.39307 25.3765 -9.83897 25.5251 -10.1362 25.6737C-11.0281 26.1196 -11.7713 26.2683 -12.6631 26.7142C-13.2576 27.0115 -14.0008 26.8628 -14.744 26.5656C-15.3385 26.2683 -16.0817 25.971 -16.6763 25.971C-16.8249 25.971 -17.1222 25.971 -17.2708 25.971C-17.5681 25.8224 -17.5681 25.5251 -17.7167 25.3765C-18.1626 24.7819 -18.9058 24.4847 -19.649 24.0387C-19.9463 23.7415 -20.2436 23.5928 -20.3922 23.2956C-20.8381 22.701 -21.5813 22.1065 -21.8786 21.3633C-22.1758 20.6201 -22.1758 20.1742 -22.0272 19.8769ZM20.6316 34.7406C20.6316 34.592 19.2939 34.7406 17.3616 35.3351C16.4698 35.6324 15.2807 35.9297 14.0916 36.5242C12.9025 36.9701 11.7134 37.7133 10.6729 38.3079C10.0784 38.6052 9.48382 39.0511 9.03791 39.497C8.74063 39.6456 8.592 39.9429 8.29472 40.0915C7.99745 40.2402 7.84881 40.5374 7.55154 40.6861C6.65972 41.4293 5.7679 42.1724 4.87608 42.4697C4.1329 42.9156 3.38971 42.9156 2.79516 43.0643C2.49789 43.0643 2.34925 43.0643 2.20061 43.0643C2.05198 43.0643 2.05198 43.0643 2.05198 43.0643H1.90334C1.75471 43.0643 1.60607 43.0643 1.30879 43.0643C0.714245 43.0643 -0.0289364 42.9156 -1.0694 42.767C-2.10985 42.6183 -3.29895 42.4697 -4.63668 42.6184C-5.97442 42.767 -7.16351 43.2129 -8.35261 43.3615C-8.64988 43.3615 -8.94715 43.5102 -9.24443 43.5102C-9.5417 43.5102 -9.83897 43.6588 -10.1362 43.6588C-10.7308 43.6588 -11.3253 43.6588 -11.9199 43.6588C-12.8117 43.6588 -13.5549 43.5102 -14.2981 43.5102C-13.2576 44.402 -12.0685 44.6993 -10.7308 45.1452C-10.4335 45.2938 -10.1363 45.2938 -9.83898 45.2938C-9.39307 45.2938 -9.0958 45.1452 -8.79852 44.8479C-8.64989 44.6993 -8.50125 44.5506 -8.20397 44.5506C-8.05534 44.5506 -7.75806 44.6993 -7.60942 44.8479C-6.86624 45.1452 -6.12305 44.6993 -5.5285 44.2534C-5.37987 44.1047 -5.23123 43.9561 -4.93395 43.8075C-3.8935 43.3616 -1.51531 44.1047 -0.623491 44.2534C-0.474855 44.2534 -0.177578 44.402 -0.0289421 44.5506C0.119696 44.6993 0.268337 44.8479 0.416973 44.9965C0.862885 45.4425 1.45743 45.2938 2.05198 45.1452C2.64652 44.9965 3.38972 44.8479 3.98426 44.6993C4.72745 44.6993 5.47063 44.9966 6.21382 44.5506C6.957 44.1047 7.25427 43.3615 7.84882 42.9156C8.44337 42.6184 9.18655 42.4697 9.63246 42.1724C10.0784 41.7265 10.3756 41.132 10.6729 40.6861C11.1188 39.6456 12.0107 38.6052 13.0511 38.0106C13.3484 37.862 13.6457 37.7133 13.9429 37.7133C14.0916 37.7133 14.3888 37.7133 14.5375 37.7133C15.2807 37.7133 15.8752 37.2674 16.4698 36.6729C16.6184 36.3756 20.483 34.592 20.6316 34.7406ZM-11.3253 14.0801C-7.9067 15.5664 -5.52851 13.4855 -2.85305 11.8505C-2.55577 11.7019 -1.96122 11.256 -1.36668 10.9587C-0.177582 10.3641 1.01151 9.76959 2.34925 9.76959C2.79516 9.76959 3.38971 9.76958 3.68698 9.32367C3.68698 9.17503 3.83562 9.0264 3.83562 9.0264C3.98425 9.0264 3.98426 9.02642 4.1329 8.87778C4.57881 8.72914 4.87608 8.13459 5.17335 7.68868C5.32199 7.39141 6.21381 3.82412 5.91653 3.67549C5.7679 3.67549 5.47062 3.52684 5.32199 3.52684C5.17335 4.27002 5.02471 5.01321 4.5788 5.75639C4.43016 6.05367 4.13289 6.49957 3.83562 6.79685C3.53834 7.09412 3.24107 7.39141 2.79516 7.68868C2.05198 8.13459 1.16016 8.43186 0.416973 8.72913C-0.474848 9.02641 -1.21803 9.32369 -1.96121 9.62096C-2.7044 9.91824 -3.15032 10.2155 -3.59623 10.5128C-3.8935 10.6614 -4.19077 10.81 -4.19077 10.81C-4.19077 10.81 -4.33941 10.9587 -4.78532 11.1073C-5.08259 11.256 -5.67714 11.5532 -6.27169 11.8505C-6.86624 12.1478 -7.60942 12.2964 -8.50124 12.4451C-9.39306 12.5937 -10.2849 12.5937 -11.1767 12.5937C-12.9604 12.4451 -14.8926 11.9991 -16.2304 11.5532C-16.6763 11.4046 -17.5681 10.9587 -17.8654 11.4046C-16.6763 12.1478 -15.3385 12.2964 -14.0008 12.5937C-12.9604 13.0396 -12.2172 13.6342 -11.3253 14.0801ZM21.9693 25.0792C21.2261 25.3765 20.037 26.5656 19.5911 26.7142C19.2939 26.8629 18.9966 27.0115 18.6993 27.0115C18.5507 27.0115 18.402 27.1601 18.402 27.1601C18.402 27.1601 18.2534 27.1601 17.9561 27.3088C17.6589 27.3088 17.3616 27.4574 16.9157 27.606C16.4698 27.7547 15.8752 28.0519 15.4293 28.4979C14.9834 28.9438 14.5375 29.3897 14.0916 29.8356C13.3484 30.7274 12.7538 31.7679 12.1593 32.3624C11.5647 32.9569 11.1188 33.2542 11.1188 33.2542C11.1188 33.4029 12.3079 32.8083 12.4566 32.8083C12.9025 32.8083 13.1997 32.6597 13.497 32.6597C14.0916 32.5111 14.6861 32.2138 14.9834 31.6192C15.132 31.3219 15.2807 30.7274 15.5779 30.5788C15.8752 30.2815 16.3211 30.2815 16.6184 30.1328C16.9157 29.9842 17.2129 29.6869 17.3616 29.3897C17.9561 28.7951 18.9966 28.6465 19.7398 28.4979C20.6316 28.3492 21.5234 27.9033 22.118 27.3088C22.4152 27.0115 22.5639 26.5656 22.7125 26.1197C22.7125 24.9306 22.4152 24.9306 21.9693 25.0792ZM-16.9736 39.0511C-16.2304 39.1997 -15.4872 39.0511 -14.8926 39.0511C-14.5954 39.0511 -14.2981 39.0511 -14.0008 38.9024C-12.0685 38.1593 -11.3253 36.227 -8.94716 35.9297C-8.20397 35.7811 -7.60942 35.9297 -6.86624 36.0783C-5.67714 36.3756 -5.52851 36.6729 -4.63668 37.4161C-4.33941 37.5647 -4.04214 37.5647 -3.74487 37.4161C-3.44759 37.2674 -3.15032 37.1188 -2.85305 36.9702C-2.10986 36.5242 -1.36667 36.5242 -0.474846 36.5242C-0.326208 36.5242 -0.028944 36.5243 0.119694 36.3756C1.01151 35.9297 1.16015 35.0379 2.20061 34.592C2.9438 34.2947 3.53835 34.146 4.28153 33.5515C5.47063 32.6597 6.06517 31.9165 5.91653 31.7679C5.7679 31.6192 5.17336 32.3624 3.98426 33.1056C3.38972 33.4029 2.64653 33.8488 1.90334 34.1461C1.16016 34.4433 0.268332 34.7406 -0.772127 34.8892C-1.66395 35.0379 -2.55576 35.1865 -3.44758 35.1865C-4.33941 35.1865 -5.0826 35.0379 -5.82578 34.8892C-6.56897 34.7406 -7.16351 34.592 -7.60942 34.592C-7.75806 34.592 -8.05534 34.592 -8.05534 34.592C-8.20397 34.592 -8.20397 34.592 -8.20397 34.592C-8.20397 34.592 -8.20397 34.592 -8.35261 34.592C-8.50124 34.592 -8.64988 34.592 -8.94716 34.592C-9.24443 34.592 -9.5417 34.592 -9.83898 34.7406C-10.1363 34.7406 -10.5822 34.8892 -10.8794 35.0379C-11.1767 35.1865 -11.6226 35.4838 -11.9199 35.6324C-12.2172 35.7811 -12.6631 36.0783 -12.9604 36.227C-13.7035 36.6729 -14.5954 36.9701 -15.4872 37.2674C-16.379 37.5647 -17.2708 37.7133 -18.1626 37.7133C-18.6086 37.7133 -18.9058 37.7133 -19.3517 37.7133C-19.2031 38.6052 -18.1626 38.9024 -16.9736 39.0511ZM9.18655 12.891C9.03792 13.0396 8.88928 13.1882 8.74064 13.1882C8.592 13.1882 8.44336 13.3369 8.29472 13.3369C7.84881 13.3369 7.4029 13.3369 6.80836 13.4855C6.51108 13.6341 6.21381 13.7828 6.06517 13.7828C5.91653 13.9314 5.7679 14.0801 5.61927 14.0801C5.47063 14.0801 5.47062 14.2287 5.32199 14.2287C5.17335 14.2287 5.02472 14.2287 5.02472 14.2287C4.72744 14.2287 4.57881 14.2287 4.28153 14.2287C3.83562 14.2287 3.53835 14.2287 3.53835 14.2287C3.53835 14.2287 3.24107 14.2287 2.79516 14.2287C2.34925 14.2287 1.75471 14.2287 1.01152 14.2287C0.268339 14.2287 -0.623487 14.3773 -1.66395 14.526C-2.55577 14.6746 -3.59623 14.9719 -4.63668 15.4178C-5.52851 15.8637 -6.42032 16.4583 -7.16351 17.2014C-7.90669 17.796 -8.50124 18.3905 -9.09579 18.8365C-9.39307 18.9851 -9.69034 19.1337 -9.98761 19.2824C-10.2849 19.431 -10.5822 19.431 -10.7308 19.431C-11.1767 19.431 -11.3253 19.431 -11.474 19.431C-11.474 19.431 -11.3253 19.5796 -10.8794 19.7283C-10.5822 19.7283 -10.4335 19.7283 -9.98761 19.7283C-9.39306 19.7283 -8.79852 19.2824 -8.20397 19.2824C-7.46079 19.1337 -6.7176 19.2824 -6.12305 18.8365C-5.82578 18.6878 -5.67714 18.3905 -5.37987 18.0933C-4.63668 17.3501 -3.74486 16.9042 -2.7044 16.7555C-2.10985 16.7555 -1.51531 16.7555 -0.920761 16.6069C-0.177576 16.4583 0.416973 16.161 1.16016 16.3096C1.45743 16.3096 1.90334 16.4583 2.20061 16.4583C2.49789 16.4583 2.79516 16.161 3.09243 16.0123C3.68698 15.7151 4.5788 16.0123 5.32199 15.8637C5.47062 15.8637 5.7679 15.7151 5.91653 15.5664C6.36245 15.2692 6.51108 15.1205 6.80836 14.9719C7.10563 14.8232 7.40291 14.8233 7.99745 14.8233C8.14609 14.8233 8.29473 14.8232 8.44337 14.6746C9.18655 14.526 9.78109 13.9314 10.5243 13.6342C11.5647 13.0396 12.3079 11.8505 12.7538 10.81C12.9025 10.2155 13.497 7.83731 12.7538 7.54003C11.7134 9.0264 10.8216 10.6614 9.78109 12.1478C9.78109 12.2964 9.48383 12.7423 9.18655 12.891ZM-20.6895 27.3088C-20.5408 27.3088 -20.2436 27.4574 -20.0949 27.606C-19.649 27.9033 -19.5004 28.3492 -19.0545 28.7951C-18.6086 29.241 -18.014 29.5383 -17.4195 29.687C-16.6763 29.8356 -15.9331 29.9842 -15.1899 29.8356C-14.8926 29.8356 -14.5954 29.8356 -14.2981 29.8356C-13.5549 29.9842 -12.9604 30.5788 -12.0685 30.7274C-11.1767 30.876 -10.1362 30.2815 -9.24443 30.1328C-8.50124 29.9842 -7.75805 30.1328 -7.16351 29.8356C-6.12305 29.241 -5.52851 27.606 -4.48805 26.7142C-3.29895 25.6738 -1.81258 25.0792 -0.326212 24.7819C0.119699 24.7819 0.565613 24.6333 1.01152 24.6333C2.64653 24.7819 4.28153 25.2278 5.91653 25.5251C7.55154 25.6737 9.03792 25.5251 10.6729 25.3765C11.1188 25.3765 11.4161 25.2278 11.7134 25.0792C12.1593 24.7819 12.3079 24.336 12.7538 24.1874C13.3484 23.8901 14.2402 23.8901 14.8348 23.7415C15.2807 23.5928 15.7266 23.5928 16.0238 23.2956C16.4697 22.9983 16.767 22.4037 17.0643 21.9578C17.8075 20.7687 18.402 19.431 19.1452 18.2419C19.7398 17.2014 20.7802 16.4582 20.0371 15.2691C18.5507 16.4582 17.5102 18.0933 16.3211 19.431C15.132 20.7687 13.7943 21.9578 12.3079 22.701C11.5647 22.9983 10.8216 23.2956 10.0784 23.2956C9.33519 23.2956 8.592 23.2955 7.99745 23.1469C7.40291 22.9983 6.80836 22.8496 6.21382 22.701C5.61927 22.5524 5.17336 22.4037 4.72745 22.4037C4.57881 22.4037 4.28153 22.2551 4.1329 22.2551C3.98426 22.2551 3.83562 22.2551 3.68698 22.2551C3.38971 22.2551 3.38971 22.2551 3.38971 22.2551C3.38971 22.2551 3.38972 22.2551 3.24108 22.2551C3.24108 22.2551 3.09243 22.2551 2.9438 22.2551C2.79516 22.2551 2.64653 22.2551 2.49789 22.2551C2.34926 22.2551 2.34925 22.2551 2.20061 22.2551C2.05198 22.2551 2.05198 22.2551 1.90334 22.2551C1.01152 22.4037 -0.177578 22.701 -1.51531 23.1469C-2.2585 23.4442 -2.85305 23.7415 -3.59623 24.1874C-4.33941 24.6333 -5.0826 25.0792 -5.82578 25.5251C-7.31215 26.4169 -8.94716 27.3088 -10.5822 27.7547L-11.1767 27.9033C-11.3253 27.9033 -11.6226 28.0519 -11.7713 28.0519C-11.9199 28.0519 -12.2172 28.0519 -12.3658 28.2006C-12.5144 28.2006 -12.8117 28.2006 -12.9604 28.2006C-13.109 28.2006 -13.4063 28.2006 -13.5549 28.2006C-13.7035 28.2006 -14.0008 28.2006 -14.1495 28.2006C-14.2981 28.2006 -14.5954 28.2006 -14.744 28.2006C-14.8926 28.2006 -15.1899 28.2006 -15.3385 28.2006C-16.9735 28.0519 -18.6086 27.606 -19.9463 27.1601C-20.8381 26.8628 -21.5813 26.5656 -22.3245 26.2683C-22.4731 26.2683 -22.1758 26.8628 -22.0272 26.8628C-21.8786 27.1601 -21.5813 27.1601 -21.284 27.3088C-21.4327 27.1601 -20.9868 27.1601 -20.6895 27.3088Z" fill="url(#paint13_radial_7_468)"/>
<g opacity="0.34">
<path opacity="0.34" d="M-20.5409 22.8496C-20.2436 23.1469 -20.095 23.4442 -19.7977 23.5928C-19.2032 24.0387 -18.3113 24.1873 -17.8654 24.9305C-17.7168 25.2278 -17.7168 25.3765 -17.4195 25.5251C-17.2709 25.6737 -17.1222 25.5251 -16.825 25.5251C-16.0818 25.5251 -15.4872 25.8224 -14.8927 26.1196C-14.2981 26.4169 -13.555 26.5656 -12.8118 26.2683C-11.92 25.8224 -11.1768 25.6737 -10.2849 25.2278C-9.83904 25.0792 -9.54176 24.9305 -9.09585 24.9305C-8.5013 24.9305 -7.90676 25.0792 -7.31221 24.9305C-5.97448 24.6333 -4.63674 23.4442 -3.44764 22.701C-2.55582 22.2551 -1.81264 21.6605 -0.920816 21.5119C-0.474905 21.3633 -0.177628 21.3632 0.268284 21.2146C0.565557 21.066 0.862829 20.6201 1.1601 20.3228C2.05192 19.431 3.53829 19.7283 4.57874 19.5796C5.32193 19.431 5.91648 19.431 6.51103 19.1337C7.10558 18.9851 7.70012 18.6878 8.29467 18.5392C8.88922 18.2419 9.48377 18.0933 9.92968 17.796C10.227 17.6473 10.5242 17.4987 10.6729 17.3501C10.9701 17.2014 11.1188 17.0528 11.2674 16.7555C11.5647 16.3096 11.862 15.8637 12.0106 15.5664C12.1592 15.1205 12.3079 14.8232 12.3079 14.5259C12.4565 13.9314 12.4565 13.6341 12.4565 13.6341C12.4565 13.6341 12.3079 13.9314 12.0106 14.3773C11.862 14.6746 11.7133 14.9719 11.5647 15.2691C11.416 15.5664 11.1188 16.0123 10.8215 16.3096C10.5242 16.6069 10.0783 16.9042 9.48377 17.0528C9.33513 17.0528 9.33514 17.0528 9.1865 17.2014C8.74059 17.3501 8.29468 17.6473 7.84876 17.796C7.25422 18.0933 6.65966 18.2419 6.06511 18.3905C5.47057 18.5392 4.72739 18.6878 4.13284 18.8364C3.09238 18.9851 1.45737 18.8364 0.714188 19.5796C0.416914 19.8769 0.119642 20.1742 -0.177631 20.4714C-0.474905 20.6201 -0.920822 20.6201 -1.36673 20.7687C-2.25855 20.9174 -3.15037 21.5119 -3.89355 21.9578C-5.08265 22.701 -6.42038 23.8901 -7.75811 24.1873C-8.35266 24.336 -8.94722 24.1873 -9.54176 24.1873C-9.98767 24.1873 -10.4336 24.336 -10.7309 24.4846C-11.6227 24.9306 -12.3659 25.0792 -13.2577 25.5251C-13.8522 25.8224 -14.5954 25.6737 -15.3386 25.3764C-15.9331 25.0792 -16.6763 24.7819 -17.2709 24.7819C-17.4195 24.7819 -17.7168 24.7819 -17.8654 24.7819C-18.1627 24.6333 -18.1627 24.336 -18.3113 24.1873C-18.7572 23.5928 -19.5004 23.2955 -20.095 22.8496C-20.3923 22.5524 -20.6895 22.4037 -20.8382 22.1064C-21.2841 21.6605 -21.8786 21.066 -22.1759 20.4714C-22.1759 20.6201 -22.1759 20.7687 -22.0273 20.9173C-21.73 21.6605 -20.9868 22.2551 -20.5409 22.8496Z" fill="url(#paint14_radial_7_468)"/>
<path opacity="0.34" d="M-13.8522 12.7423C-12.9604 13.0396 -12.2172 13.6342 -11.3254 13.9314C-7.90672 15.4178 -5.52853 13.3369 -2.85307 11.7019C-2.55579 11.5532 -1.96125 11.1073 -1.3667 10.81C-0.177603 10.2155 1.01149 9.62096 2.34923 9.62096C2.79514 9.62096 3.38969 9.62096 3.68696 9.17505C3.68696 9.02641 3.83559 8.87778 3.83559 8.87778C3.98423 8.87778 3.98424 8.87777 4.13288 8.72913C4.57879 8.5805 4.87605 7.98594 5.17333 7.54003C5.32197 7.24276 6.21379 3.67548 5.91651 3.52684L5.76788 3.52684C5.61924 4.5673 5.17333 6.64821 5.02469 6.79685C4.87606 7.24276 4.57879 7.83731 3.98424 7.98595C3.8356 7.98595 3.8356 7.98596 3.68696 8.13459C3.53832 8.13459 3.53832 8.28323 3.53832 8.43186C3.24105 8.87777 2.6465 8.72914 2.20059 8.87778C0.862858 8.87778 -0.326237 9.47231 -1.51533 10.0669C-2.10988 10.3641 -2.55579 10.6614 -3.0017 10.9587C-5.67717 12.5937 -8.05535 14.6746 -11.474 13.1882C-12.0686 12.891 -12.8117 12.4451 -13.4063 12.1478C-14.2981 11.9992 -15.1899 11.7019 -15.9331 11.5532C-16.379 11.4046 -17.2708 10.9587 -17.5681 11.4046C-16.5277 12.2964 -15.1899 12.4451 -13.8522 12.7423Z" fill="url(#paint15_radial_7_468)"/>
<path opacity="0.34" d="M-14.0008 38.9024C-12.0686 38.1592 -11.3254 36.227 -8.94717 35.9297C-8.20399 35.7811 -7.60944 35.9297 -6.86625 36.0783C-5.67716 36.3756 -5.52852 36.6729 -4.6367 37.4161C-4.33943 37.5647 -4.04216 37.5647 -3.74488 37.4161C-3.44761 37.2674 -3.15034 37.1188 -2.85306 36.9701C-2.10988 36.5242 -1.36668 36.5242 -0.474861 36.5242C-0.326225 36.5242 -0.0289593 36.5242 0.119677 36.3756C1.0115 35.9297 1.16014 35.0379 2.2006 34.5919C2.94378 34.2947 3.53833 34.146 4.28152 33.5515C5.47061 32.6597 6.06516 31.9165 5.91652 31.7678C5.76788 31.6192 5.17334 32.3624 3.98425 33.1056C3.3897 33.4028 2.64651 33.8488 1.90333 34.146C1.75469 34.146 1.60605 34.2947 1.45741 34.2947C1.0115 34.7406 0.714224 35.3351 0.119677 35.6324C-0.0289593 35.7811 -0.326225 35.781 -0.474861 35.781C-1.21805 35.781 -2.10988 35.781 -2.85306 36.227C-3.15034 36.3756 -3.44761 36.6729 -3.74488 36.6729C-4.04216 36.8215 -4.33943 36.8215 -4.6367 36.6729C-5.52852 35.9297 -5.67716 35.6324 -6.86625 35.3351C-7.60944 35.1865 -8.20399 35.0379 -8.94717 35.1865C-11.3254 35.4838 -12.0686 37.4161 -14.0008 38.1592C-14.2981 38.3079 -14.5954 38.3079 -14.8927 38.3079C-15.4872 38.3079 -16.2304 38.3079 -16.9736 38.3079C-17.7168 38.1592 -18.4599 38.0106 -18.9058 37.7133C-19.0545 37.7133 -19.0545 37.7133 -19.2031 37.7133C-18.9059 38.6051 -17.8654 38.9024 -16.6763 39.0511C-15.9331 39.1997 -15.1899 39.0511 -14.5954 39.0511C-14.5954 39.0511 -14.2981 39.0511 -14.0008 38.9024Z" fill="url(#paint16_radial_7_468)"/>
<path opacity="0.34" d="M-10.7309 19.5797C-10.4337 19.5797 -10.285 19.5797 -9.83912 19.5797C-9.24457 19.5797 -8.65003 19.1338 -8.05548 19.1338C-7.31229 18.9851 -6.56911 19.1337 -5.97456 18.6878C-5.67729 18.5392 -5.52865 18.2419 -5.23137 17.9447C-4.48819 17.2015 -3.59636 16.7556 -2.5559 16.6069C-1.96136 16.6069 -1.36681 16.6069 -0.772266 16.4583C-0.0290813 16.3096 0.565469 16.0124 1.30865 16.161C1.60593 16.161 2.05183 16.3097 2.34911 16.3097C2.64638 16.3097 2.94366 16.0124 3.24094 15.8637C3.83549 15.5665 4.72731 15.8637 5.47049 15.7151C5.61913 15.7151 5.91639 15.5665 6.06503 15.4178C6.51094 15.1206 6.65959 14.9719 6.95686 14.8233C7.25414 14.6747 7.5514 14.6746 8.14595 14.6746C8.29459 14.6746 8.44323 14.6746 8.59187 14.526C9.33505 14.3774 9.9296 13.7828 10.6728 13.4855C11.7132 12.891 12.4564 11.7019 12.9023 10.6615C13.051 10.0669 13.6455 7.98598 13.051 7.54007C13.051 8.28325 12.7537 9.47236 12.6051 9.91827C12.1591 11.1074 11.416 12.1478 10.3755 12.7424C9.78096 13.1883 9.03777 13.6342 8.29458 13.7828C8.14595 13.7828 7.99732 13.7828 7.84868 13.9315C7.25413 13.9315 6.95685 13.9315 6.65958 14.0801C6.36231 14.2287 6.21367 14.3774 5.76776 14.6746C5.61912 14.8233 5.32185 14.9719 5.17321 14.9719C4.43003 15.1206 3.53821 14.8233 2.94366 15.1206C2.64638 15.2692 2.34911 15.5665 2.05184 15.5665C1.75456 15.5665 1.30866 15.5665 1.01138 15.4178C0.268199 15.2692 -0.326351 15.7151 -1.06954 15.7151C-1.66408 15.8637 -2.25864 15.7151 -2.85319 15.8637C-3.89364 16.0124 -4.78546 16.4583 -5.52864 17.2015C-5.82592 17.4987 -5.97455 17.6474 -6.27183 17.9447C-6.86638 18.3906 -7.7582 18.2419 -8.35275 18.3906C-8.50138 18.3906 -8.50138 18.3906 -8.65002 18.3906C-8.79865 18.5392 -8.9473 18.6878 -9.09593 18.6878C-9.39321 18.8365 -9.69048 18.9851 -9.98775 19.1338C-10.285 19.2824 -10.5823 19.2824 -10.7309 19.2824C-11.1768 19.2824 -11.3255 19.2824 -11.4741 19.2824C-11.4741 19.2824 -11.1768 19.431 -10.7309 19.5797Z" fill="url(#paint17_radial_7_468)"/>
<path opacity="0.34" d="M18.8479 17.4987C18.1048 18.6878 17.3616 19.8769 16.767 21.2146C16.4697 21.6605 16.1725 22.2551 15.7266 22.5524C15.4293 22.8497 14.8347 22.8497 14.5375 22.9983C13.9429 23.1469 13.0511 23.1469 12.4565 23.4442C12.0106 23.7415 11.862 24.1874 11.4161 24.336C11.1188 24.4847 10.6729 24.6333 10.3756 24.6333C8.74062 24.9306 7.25425 25.0792 5.61925 24.7819C3.98424 24.6333 2.34923 24.0387 0.714224 23.8901C0.268312 23.8901 -0.177599 23.8901 -0.62351 24.0387C-2.10988 24.336 -3.59624 24.9306 -4.78534 25.971C-5.8258 26.8629 -6.42035 28.4978 -7.46081 29.0924C-8.05536 29.3897 -8.79854 29.3897 -9.54173 29.3897C-10.4335 29.5383 -11.474 30.1329 -12.3658 29.9842C-13.109 29.8356 -13.7036 29.241 -14.5954 29.0924C-14.8926 29.0924 -15.1899 29.0924 -15.4872 29.0924C-16.2304 29.0924 -16.9736 29.0924 -17.7168 28.9438C-18.3113 28.7951 -18.9058 28.4979 -19.3518 28.0519C-19.649 27.7547 -19.7977 27.3088 -20.2436 27.0115C-20.3922 27.0115 -20.5408 27.0115 -20.5408 26.8628C-21.1354 26.7142 -21.5813 26.5656 -22.0272 26.2683C-22.1759 26.2683 -22.3245 26.1197 -22.4731 26.1197C-22.6218 26.1197 -22.7704 25.971 -22.7704 25.971C-22.919 25.971 -22.6218 26.5656 -22.4731 26.5656C-22.3245 26.8628 -22.0272 26.8629 -21.7299 27.0115C-21.4327 27.1601 -20.9868 27.1601 -20.5408 27.3088C-20.3922 27.3088 -20.0949 27.4574 -19.9463 27.606C-19.5004 27.9033 -19.3518 28.3492 -18.9058 28.7951C-18.4599 29.241 -17.8654 29.5383 -17.2708 29.687C-16.5277 29.8356 -15.7845 29.9842 -15.0413 29.8356C-14.744 29.8356 -14.4467 29.8356 -14.1495 29.8356C-13.4063 29.9842 -12.8117 30.5788 -11.9199 30.7274C-11.0281 30.876 -9.98763 30.2815 -9.09581 30.1328C-8.35263 29.9842 -7.60944 30.1329 -7.01489 29.8356C-5.97443 29.241 -5.37989 27.606 -4.33943 26.7142C-3.15034 25.6738 -1.66397 25.0792 -0.177595 24.7819C0.268316 24.7819 0.714228 24.6333 1.16014 24.6333C2.79515 24.7819 4.43015 25.2278 6.06515 25.5251C7.70016 25.6738 9.18653 25.5251 10.8215 25.3765C11.2674 25.3765 11.5647 25.2278 11.862 25.0792C12.3079 24.7819 12.4565 24.336 12.9025 24.1874C13.497 23.8901 14.3888 23.8901 14.9834 23.7415C15.4293 23.5928 15.8752 23.5928 16.1725 23.2956C16.6184 22.9983 16.9156 22.4037 17.2129 21.9578C17.9561 20.7687 18.5507 19.431 19.2938 18.2419C19.8884 17.2014 20.9288 16.4583 20.1857 15.4178C20.037 16.0123 19.2938 16.6069 18.8479 17.4987Z" fill="url(#paint18_radial_7_468)"/>
<path opacity="0.34" d="M22.4153 25.0792V25.2279C22.4153 25.6738 22.118 26.1197 21.8208 26.4169C21.2262 27.1601 20.3344 27.606 19.4426 27.606C18.6994 27.606 17.5103 27.7547 17.0644 28.4979C16.7671 28.7952 16.6185 29.0924 16.3212 29.2411C16.0239 29.3897 15.578 29.3897 15.2807 29.687C14.9834 29.9843 14.9835 30.4302 14.6862 30.7274C14.3889 31.322 13.7944 31.6192 13.1998 31.7679C12.9025 31.9165 12.6053 31.9165 12.308 31.9165L12.1594 32.0652C11.5648 32.6597 11.1189 32.957 11.1189 32.957C11.1189 33.1056 12.308 32.5111 12.4566 32.5111C12.9025 32.5111 13.1998 32.3624 13.4971 32.3624C14.0916 32.2138 14.6862 31.9165 14.9835 31.322C15.1321 31.0247 15.2807 30.4302 15.578 30.2815C15.8753 29.9842 16.3212 29.9842 16.6185 29.8356C16.9157 29.687 17.213 29.3897 17.3617 29.0924C17.9562 28.4979 18.9966 28.3492 19.7398 28.2006C20.6317 28.052 21.5235 27.6061 22.118 27.0115C22.4153 26.7142 22.5639 26.2683 22.7126 25.8224C22.7126 25.3765 22.7126 25.0792 22.4153 25.0792Z" fill="url(#paint19_radial_7_468)"/>
<path opacity="0.34" d="M17.6588 35.1865C16.9156 35.6325 16.1724 35.9297 16.0237 36.0784C15.4292 36.5243 14.8347 37.1188 14.0915 37.1188C13.9428 37.1188 13.6455 37.1188 13.4969 37.1188C13.1996 37.1188 12.9024 37.2675 12.6051 37.4161C11.5646 38.0107 10.6728 39.0511 10.2269 40.0916C9.92963 40.6861 9.781 41.2807 9.18645 41.5779C8.5919 42.0239 7.99735 42.0239 7.4028 42.3211C6.80825 42.767 6.36234 43.5102 5.7678 43.9561C5.02461 44.402 4.28143 44.1048 3.53824 44.1048C2.79506 44.1048 2.20051 44.2534 1.60596 44.5507C1.01141 44.6993 0.416865 44.6993 -0.0290461 44.402C-0.177683 44.2534 -0.326313 44.1048 -0.47495 43.9561C-0.623587 43.8075 -0.920863 43.8075 -1.0695 43.6588C-1.96132 43.5102 -4.48815 42.6184 -5.37997 43.2129C-5.67725 43.3616 -5.82589 43.5102 -5.97452 43.6588C-6.56907 44.2534 -7.31226 44.6993 -8.05544 44.2534C-8.20408 44.1048 -8.50134 43.9561 -8.64998 43.9561C-8.79862 43.9561 -9.09589 44.1048 -9.24453 44.2534C-9.54181 44.402 -9.98772 44.6993 -10.285 44.6993C-10.5823 44.6993 -10.8795 44.6993 -11.1768 44.5507C-12.0686 44.2534 -12.8118 44.1048 -13.4064 43.8075C-13.8523 43.8075 -14.1495 43.6588 -14.5955 43.6588C-13.555 44.5507 -12.3659 44.848 -11.0282 45.2939C-10.7309 45.4425 -10.4336 45.4425 -10.1364 45.4425C-9.69044 45.4425 -9.39317 45.2938 -9.0959 44.9966C-8.94726 44.8479 -8.79862 44.6993 -8.50135 44.6993C-8.35271 44.6993 -8.05543 44.8479 -7.9068 44.9966C-7.16361 45.2938 -6.42044 44.8479 -5.82589 44.402C-5.67725 44.2534 -5.52861 44.1048 -5.23134 43.9561C-4.19088 43.5102 -1.81269 44.2534 -0.920865 44.402C-0.772228 44.402 -0.474953 44.5507 -0.326315 44.6993C-0.177678 44.8479 -0.029048 44.9966 0.119589 45.1452C0.565499 45.5911 1.16006 45.4425 1.7546 45.2939C2.34915 45.1452 3.09233 44.9966 3.68688 44.8479C4.43006 44.8479 5.17325 45.1452 5.91643 44.6993C6.65962 44.2534 6.95689 43.5102 7.55144 43.0643C8.14598 42.767 8.88918 42.6184 9.33508 42.3211C9.781 41.8752 10.0783 41.2807 10.3755 40.8348C10.8215 39.7943 11.7133 38.7538 12.7537 38.1593C13.051 38.0107 13.3483 37.862 13.6456 37.862C13.7942 37.862 14.0915 37.862 14.2401 37.862C14.9833 37.862 15.5778 37.4161 16.1724 36.8215C16.4697 36.5243 20.3342 34.7406 20.3342 34.8893C20.4829 34.592 19.4424 34.7406 17.6588 35.1865Z" fill="url(#paint20_radial_7_468)"/>
</g>
<path opacity="0.35" d="M-9.24456 40.6861C-9.24456 41.5779 -10.1364 42.1724 -11.0282 42.1724C-11.7714 42.1724 -12.5146 41.8752 -12.9605 41.2806C-13.2578 40.8347 -13.1091 40.2402 -12.6632 39.9429C-12.5146 39.6456 -12.3659 39.497 -12.2173 39.3484C-11.7714 39.0511 -11.3255 39.0511 -10.8796 39.1997C-9.98775 39.3483 -9.24456 39.7943 -9.24456 40.6861ZM1.30866 37.2674C0.714111 37.2674 -0.326347 37.4161 -0.920897 37.862C-1.06953 37.862 -1.06953 37.862 -1.21816 37.862C-2.70453 38.4565 -3.00182 40.2402 -1.36681 40.9833C-0.0290794 41.5779 2.34912 41.2806 3.24094 40.0915C3.68685 39.497 3.68685 38.7538 3.38958 38.1593C2.79503 37.5647 2.05184 37.4161 1.30866 37.2674ZM5.02458 37.4161C4.87594 37.4161 4.87594 37.5647 5.02458 37.4161C4.57867 37.5647 4.43003 37.7133 4.2814 38.0106C4.13276 38.1592 4.13276 38.6052 4.2814 38.7538C4.43003 39.0511 4.57868 39.1997 4.72731 39.3484C5.02459 39.497 5.17322 39.497 5.4705 39.3484H5.61913C5.91641 39.1997 6.06504 39.0511 6.21368 38.9024C6.36232 38.7538 6.36232 38.3079 6.21368 38.1593C6.06504 37.862 5.9164 37.7133 5.76777 37.5647C5.47049 37.4161 5.17322 37.4161 5.02458 37.4161ZM-17.4196 33.4029C-17.5682 33.4029 -17.7169 33.4029 -17.7169 33.2542C-18.0141 33.2542 -18.3114 33.2542 -18.4601 33.4029C-18.6087 33.5515 -18.906 33.8488 -18.906 33.9974C-18.906 34.2947 -18.906 34.592 -18.7573 34.7406C-18.6087 34.8892 -18.4601 35.0379 -18.1628 35.1865C-18.0141 35.1865 -17.8655 35.1865 -17.8655 35.3351C-17.5682 35.3351 -17.271 35.3352 -17.1223 35.1865C-16.9737 35.0379 -16.6764 34.7406 -16.6764 34.592C-16.6764 34.2947 -16.6764 33.9974 -16.825 33.8488C-16.9737 33.5515 -17.271 33.4029 -17.4196 33.4029ZM-1.66408 32.3624C-1.06953 32.0651 -0.326347 31.6192 -0.177711 30.876C-0.0290737 30.2815 -0.326347 29.6869 -0.920897 29.3897C-1.66408 29.0924 -2.11 29.241 -2.85318 29.3897C-3.59636 29.3897 -4.04227 29.5383 -4.48818 29.687C-4.63682 29.687 -4.63682 29.6869 -4.78545 29.8356C-5.38 30.1329 -6.42046 30.4301 -6.86637 31.0247C-7.16365 31.6192 -6.86637 32.3624 -6.27182 32.8083C-4.93409 33.5515 -3.00181 32.9569 -1.66408 32.3624ZM-8.65001 31.9165C-8.79865 31.6192 -8.94729 31.4706 -9.09593 31.3219C-9.09593 31.3219 -9.24456 31.322 -9.24456 31.1733C-9.54184 31.0247 -9.69047 31.0247 -9.98775 31.1733C-10.285 31.1733 -10.4337 31.4706 -10.5823 31.6192C-10.7309 31.9165 -10.7309 32.0651 -10.5823 32.3624C-10.4337 32.6597 -10.285 32.8083 -10.1364 32.957C-10.1364 32.957 -9.98775 32.9569 -9.98775 33.1056C-9.69047 33.2542 -9.54184 33.2542 -9.24456 33.1056C-8.94729 33.1056 -8.79865 32.8083 -8.65001 32.6597C-8.50138 32.3624 -8.50138 32.2138 -8.65001 31.9165ZM-3.89363 44.6993C-5.08273 45.1452 -4.48818 46.9288 -3.29909 46.6316C-2.10999 46.1856 -2.70454 44.2534 -3.89363 44.6993ZM13.1996 18.0933C12.9023 18.5392 12.7537 19.1337 13.1996 19.431C13.3483 19.5796 13.6455 19.7283 13.9428 19.7283C14.2401 19.7283 14.3887 19.5796 14.686 19.431C14.8346 19.2824 15.1319 19.1337 15.1319 18.8365C15.2805 18.5392 15.2805 18.3905 15.1319 18.0933C15.1319 17.796 14.8346 17.6473 14.686 17.4987C14.3887 17.3501 14.2401 17.3501 13.9428 17.4987C13.6455 17.6473 13.3483 17.796 13.1996 18.0933ZM14.686 15.8637C15.2805 15.8637 15.7264 15.4178 16.1724 15.1205C16.9155 14.3773 17.5101 13.1882 16.9155 12.2964C16.6183 11.7019 15.8751 11.5532 15.2805 11.8505C14.5373 12.2964 14.0914 12.891 13.6455 13.6342C13.4969 14.0801 13.1996 14.526 13.3483 14.9719C13.3483 15.7151 13.9428 16.0124 14.686 15.8637ZM14.2401 27.4574C14.3887 27.4574 14.5373 27.3087 14.5373 27.1601C14.686 27.0115 14.8346 26.7142 14.8346 26.4169C14.8346 26.1196 14.686 25.8224 14.5373 25.6737C14.3887 25.5251 14.0914 25.3765 13.7942 25.3765C13.6455 25.3765 13.4969 25.3765 13.4969 25.3765C13.3482 25.3765 13.1996 25.3765 13.051 25.5251C12.9023 25.5251 12.7537 25.6737 12.7537 25.8224C12.6051 25.971 12.4564 26.2683 12.4564 26.5656C12.4564 26.8628 12.6051 27.1601 12.7537 27.3088C12.9023 27.4574 13.1996 27.606 13.4969 27.606C13.6455 27.606 13.7942 27.606 13.7942 27.606C14.0914 27.4574 14.0914 27.4574 14.2401 27.4574ZM19.8883 22.1065C19.1451 21.3633 18.1046 21.8092 17.3615 22.4037C16.6183 22.9983 16.0237 23.7415 15.7264 24.6333C15.5778 25.2278 16.1723 25.971 16.7669 26.1197C17.5101 26.4169 19.1451 25.3765 19.591 24.7819C20.3342 24.1874 20.7801 22.9983 19.8883 22.1065ZM19.4424 32.6597C19.1451 33.5515 17.956 34.1461 17.0642 34.1461C16.4696 34.1461 15.7264 33.7001 15.4292 33.1056C15.2805 32.511 15.7264 32.0651 16.0237 31.7679C16.4696 31.322 17.0642 30.7274 17.6587 30.7274C18.9965 30.4301 19.8883 31.6192 19.4424 32.6597ZM16.4696 32.0651C16.321 32.0651 16.321 32.0651 16.4696 32.0651V32.0651ZM13.3483 39.497C13.1996 39.497 13.1996 39.497 13.051 39.497C12.7537 39.497 12.6051 39.6456 12.3078 39.7942C12.1592 39.9429 12.0105 40.2402 12.0105 40.5374C12.0105 40.8347 12.1592 41.132 12.3078 41.2806C12.4564 41.4293 12.7537 41.5779 13.051 41.5779C13.1996 41.5779 13.1996 41.5779 13.3483 41.5779C13.6455 41.5779 13.7942 41.4293 14.0914 41.2806C14.2401 41.132 14.3887 40.8347 14.3887 40.5374C14.3887 40.2402 14.2401 39.9429 14.0914 39.7942C13.7942 39.6456 13.4969 39.497 13.3483 39.497ZM-16.0819 21.5119C-15.6359 20.7687 -16.3791 20.1742 -16.9737 19.7283C-17.4196 19.2824 -18.1628 18.9851 -18.7573 18.8365C-18.906 18.8365 -19.2032 18.8365 -19.3519 18.8365C-19.9464 18.8365 -20.3923 19.5796 -20.3923 20.1742C-20.3923 20.7687 -19.6492 21.2146 -19.2032 21.5119C-18.3114 22.2551 -16.825 22.701 -16.0819 21.5119ZM-12.5146 23.2956C-12.5146 23.1469 -12.3659 22.9983 -12.5146 22.8496C-12.5146 22.701 -12.5146 22.5524 -12.6632 22.4037C-12.8119 22.1065 -13.1091 21.9578 -13.2578 21.8092C-13.555 21.6606 -14.0009 21.6606 -14.2982 21.8092C-14.4469 21.8092 -14.4469 21.8092 -14.5955 21.9578C-14.8928 22.1065 -15.0414 22.2551 -15.19 22.4037C-15.4873 22.8496 -15.19 23.4442 -14.7441 23.7415C-14.5955 23.8901 -14.2982 23.8901 -14.1496 24.0387C-13.8523 24.0387 -13.555 24.0387 -13.2578 24.0387C-12.8119 23.7415 -12.5146 23.5928 -12.5146 23.2956ZM4.57867 13.7828C5.02458 13.6341 5.47049 13.0396 5.17322 12.5937C5.02458 12.1478 4.43004 11.8505 3.98413 11.9991C3.83549 11.9991 3.53822 12.1478 3.38958 12.1478C2.94367 12.2964 2.49775 12.891 2.79503 13.3369C2.94366 13.7828 3.53822 14.0801 3.98413 13.9314C4.13276 13.9314 4.43003 13.9314 4.57867 13.7828ZM7.1055 10.6614C6.36232 10.6614 6.06504 9.7696 6.36232 9.17505C6.65959 8.43187 6.95686 7.68867 7.5514 7.09412C8.14595 6.49957 9.18641 6.05367 9.78096 6.79685C10.2269 7.3914 9.9296 8.43186 9.63233 9.02641C9.33505 9.62095 8.7405 10.0669 8.14596 10.5128C7.70004 10.8101 7.40277 10.8101 7.1055 10.6614ZM7.1055 8.87778C7.1055 8.72915 7.1055 8.87778 7.1055 8.87778C7.1055 8.72915 7.1055 8.72915 7.1055 8.87778C7.1055 8.87778 7.1055 8.72915 7.1055 8.87778ZM-1.81272 7.54004C-1.96135 7.54004 -1.96136 7.54004 -2.11 7.54004C-2.40727 7.54004 -2.55591 7.68867 -2.85318 7.83731C-3.00182 7.98594 -3.15045 8.28322 -3.15045 8.58049C-3.15045 8.87777 -3.00182 9.17504 -2.85318 9.32368C-2.70454 9.47231 -2.40727 9.62097 -2.11 9.62097C-1.96136 9.62097 -1.96135 9.62097 -1.81272 9.62097C-1.51544 9.62097 -1.3668 9.47231 -1.06953 9.32368C-0.920893 9.17504 -0.772261 8.87777 -0.772261 8.58049C-0.772261 8.28322 -0.920893 7.98594 -1.06953 7.83731C-1.21817 7.54003 -1.51544 7.3914 -1.81272 7.54004ZM0.862743 8.43187C0.56547 8.58051 0.11956 8.43186 -0.0290756 8.28322C-0.326351 7.98595 -0.326345 7.54003 -0.326345 7.09412C-0.326345 6.79685 -0.326347 6.49957 -0.177711 6.35094C0.119562 5.45912 1.01139 4.41867 1.90321 5.01321C2.49776 5.01321 3.0923 5.60777 3.0923 6.20231C3.0923 7.24277 1.75456 8.13459 0.862743 8.43187ZM2.20048 6.79685C2.34912 6.64822 2.34912 6.64822 2.20048 6.79685V6.79685Z" fill="url(#paint21_radial_7_468)"/>
<g opacity="0.35">
<g opacity="0.35">
<path opacity="0.35" d="M3.98419 37.1188C4.4301 36.9702 4.13281 36.3756 3.83554 36.5243C3.38963 36.6729 3.68691 37.2675 3.98419 37.1188Z" fill="url(#paint22_radial_7_468)"/>
</g>
<g opacity="0.35">
<path opacity="0.35" d="M4.57866 40.5375C5.02457 40.3888 4.7273 39.7943 4.43003 39.9429C3.98411 40.0916 4.28139 40.5375 4.57866 40.5375Z" fill="url(#paint23_radial_7_468)"/>
</g>
<g opacity="0.35">
<path opacity="0.35" d="M8.29471 39.0511C8.74062 38.9024 8.44335 38.3079 8.14607 38.4565C7.70016 38.6052 7.84879 39.1997 8.29471 39.0511Z" fill="url(#paint24_radial_7_468)"/>
</g>
<g opacity="0.35">
<path opacity="0.35" d="M12.7537 28.9438C13.1996 28.7952 12.9023 28.2006 12.605 28.3492C12.3078 28.4979 12.4564 29.0924 12.7537 28.9438Z" fill="url(#paint25_radial_7_468)"/>
</g>
<g opacity="0.35">
<path opacity="0.35" d="M14.3888 28.6465C14.8347 28.4979 14.5375 27.9033 14.2402 28.052C13.7943 28.2006 13.9429 28.7951 14.3888 28.6465Z" fill="url(#paint26_radial_7_468)"/>
</g>
<g opacity="0.35">
<path opacity="0.35" d="M18.848 21.2146C19.2939 21.066 18.9967 20.4715 18.6994 20.6201C18.4021 20.7687 18.5508 21.3633 18.848 21.2146Z" fill="url(#paint27_radial_7_468)"/>
</g>
<g opacity="0.35">
<path opacity="0.35" d="M11.5647 42.3211C12.0106 42.1725 11.7133 41.5779 11.4161 41.7266C11.1188 41.8752 11.2674 42.4698 11.5647 42.3211Z" fill="url(#paint28_radial_7_468)"/>
</g>
<g opacity="0.35">
<path opacity="0.35" d="M13.6456 42.767C14.0915 42.6184 13.7942 42.0238 13.4969 42.1725C13.051 42.3211 13.3483 42.9156 13.6456 42.767Z" fill="url(#paint29_radial_7_468)"/>
</g>
<g opacity="0.35">
<path opacity="0.35" d="M2.05191 12.7424C2.49782 12.5937 2.20055 11.9992 1.90327 12.1478C1.45736 12.1478 1.606 12.7424 2.05191 12.7424Z" fill="url(#paint30_radial_7_468)"/>
</g>
<g opacity="0.35">
<path opacity="0.35" d="M3.3897 11.256C3.83561 11.1074 3.53833 10.5128 3.24106 10.6615C2.79515 10.8101 3.09242 11.4046 3.3897 11.256Z" fill="url(#paint31_radial_7_468)"/>
</g>
</g>
</g>
<defs>
<filter id="filter0_f_7_468" x="-25.5" y="0.5" width="50.6448" height="50.6447" filterUnits="userSpaceOnUse" color-interpolation-filters="sRGB">
<feFlood flood-opacity="0" result="BackgroundImageFix"/>
<feBlend mode="normal" in="SourceGraphic" in2="BackgroundImageFix" result="shape"/>
<feGaussianBlur stdDeviation="0.25" result="effect1_foregroundBlur_7_468"/>
</filter>
<radialGradient id="paint0_radial_7_468" cx="0" cy="0" r="1" gradientUnits="userSpaceOnUse" gradientTransform="translate(0.0585795 25.7959) rotate(-17.8479) scale(24.8515)">
<stop stop-color="#8EE1EE"/>
<stop offset="0.8587" stop-color="#8EE1EE" stop-opacity="0.1413"/>
<stop offset="1" stop-color="#8EE1EE" stop-opacity="0"/>
</radialGradient>
<radialGradient id="paint1_radial_7_468" cx="0" cy="0" r="1" gradientUnits="userSpaceOnUse" gradientTransform="translate(-19.3396 8.395) rotate(-17.8479) scale(54.1599)">
<stop stop-color="#8EE1EE"/>
<stop offset="0.6169" stop-color="#5E8DEC"/>
<stop offset="0.6298" stop-color="#5F89E8"/>
<stop offset="0.745" stop-color="#6B64C7"/>
<stop offset="0.8386" stop-color="#714EB3"/>
<stop offset="0.8985" stop-color="#7446AC"/>
</radialGradient>
<radialGradient id="paint2_radial_7_468" cx="0" cy="0" r="1" gradientUnits="userSpaceOnUse" gradientTransform="translate(-12.1066 15.8244) rotate(-17.8479) scale(24.5029 24.5029)">
<stop stop-color="#8EE1EE"/>
<stop offset="0.6169" stop-color="#5E8DEC"/>
<stop offset="0.6298" stop-color="#5F89E8"/>
<stop offset="0.745" stop-color="#6B64C7"/>
<stop offset="0.8386" stop-color="#714EB3"/>
<stop offset="0.8985" stop-color="#7446AC"/>
</radialGradient>
<radialGradient id="paint3_radial_7_468" cx="0" cy="0" r="1" gradientUnits="userSpaceOnUse" gradientTransform="translate(29.1546 43.078) rotate(-17.8479) scale(42.0807 42.0807)">
<stop stop-color="#8EE1EE"/>
<stop offset="0.6169" stop-color="#5E8DEC"/>
<stop offset="0.6298" stop-color="#5F89E8"/>
<stop offset="0.745" stop-color="#6B64C7"/>
<stop offset="0.8386" stop-color="#714EB3"/>
<stop offset="0.8985" stop-color="#7446AC"/>
</radialGradient>
<radialGradient id="paint4_radial_7_468" cx="0" cy="0" r="1" gradientUnits="userSpaceOnUse" gradientTransform="translate(-16.5633 10.1916) rotate(-17.8479) scale(23.5513 23.5513)">
<stop stop-color="#8EE1EE"/>
<stop offset="0.6169" stop-color="#5E8DEC"/>
<stop offset="0.6298" stop-color="#5F89E8"/>
<stop offset="0.745" stop-color="#6B64C7"/>
<stop offset="0.8386" stop-color="#714EB3"/>
<stop offset="0.8985" stop-color="#7446AC"/>
</radialGradient>
<radialGradient id="paint5_radial_7_468" cx="0" cy="0" r="1" gradientUnits="userSpaceOnUse" gradientTransform="translate(-16.7161 10.0653) rotate(-17.8479) scale(22.5732 22.5732)">
<stop stop-color="#8EE1EE"/>
<stop offset="0.6169" stop-color="#5E8DEC"/>
<stop offset="0.6298" stop-color="#5F89E8"/>
<stop offset="0.745" stop-color="#6B64C7"/>
<stop offset="0.8386" stop-color="#714EB3"/>
<stop offset="0.8985" stop-color="#7446AC"/>
</radialGradient>
<radialGradient id="paint6_radial_7_468" cx="0" cy="0" r="1" gradientUnits="userSpaceOnUse" gradientTransform="translate(-6.58442 2.25043) rotate(-17.8479) scale(51.0874 51.0873)">
<stop stop-color="#8EE1EE"/>
<stop offset="0.6169" stop-color="#5E8DEC"/>
<stop offset="0.6298" stop-color="#5F89E8"/>
<stop offset="0.745" stop-color="#6B64C7"/>
<stop offset="0.8386" stop-color="#714EB3"/>
<stop offset="0.8985" stop-color="#7446AC"/>
</radialGradient>
<radialGradient id="paint7_radial_7_468" cx="0" cy="0" r="1" gradientUnits="userSpaceOnUse" gradientTransform="translate(-6.58612 2.24692) rotate(-17.8479) scale(51.0911 51.0911)">
<stop stop-color="#8EE1EE"/>
<stop offset="0.6169" stop-color="#5E8DEC"/>
<stop offset="0.6298" stop-color="#5F89E8"/>
<stop offset="0.745" stop-color="#6B64C7"/>
<stop offset="0.8386" stop-color="#714EB3"/>
<stop offset="0.8985" stop-color="#7446AC"/>
</radialGradient>
<radialGradient id="paint8_radial_7_468" cx="0" cy="0" r="1" gradientUnits="userSpaceOnUse" gradientTransform="translate(-6.58542 2.24752) rotate(-17.8479) scale(51.0909 51.0909)">
<stop stop-color="#8EE1EE"/>
<stop offset="0.6169" stop-color="#5E8DEC"/>
<stop offset="0.6298" stop-color="#5F89E8"/>
<stop offset="0.745" stop-color="#6B64C7"/>
<stop offset="0.8386" stop-color="#714EB3"/>
<stop offset="0.8985" stop-color="#7446AC"/>
</radialGradient>
<radialGradient id="paint9_radial_7_468" cx="0" cy="0" r="1" gradientUnits="userSpaceOnUse" gradientTransform="translate(-6.58617 2.24656) rotate(-17.8479) scale(51.0927 51.0928)">
<stop stop-color="#8EE1EE"/>
<stop offset="0.6169" stop-color="#5E8DEC"/>
<stop offset="0.6298" stop-color="#5F89E8"/>
<stop offset="0.745" stop-color="#6B64C7"/>
<stop offset="0.8386" stop-color="#714EB3"/>
<stop offset="0.8985" stop-color="#7446AC"/>
</radialGradient>
<radialGradient id="paint10_radial_7_468" cx="0" cy="0" r="1" gradientUnits="userSpaceOnUse" gradientTransform="translate(-6.58425 2.25011) rotate(-17.8479) scale(51.0868 51.0868)">
<stop stop-color="#8EE1EE"/>
<stop offset="0.6169" stop-color="#5E8DEC"/>
<stop offset="0.6298" stop-color="#5F89E8"/>
<stop offset="0.745" stop-color="#6B64C7"/>
<stop offset="0.8386" stop-color="#714EB3"/>
<stop offset="0.8985" stop-color="#7446AC"/>
</radialGradient>
<radialGradient id="paint11_radial_7_468" cx="0" cy="0" r="1" gradientUnits="userSpaceOnUse" gradientTransform="translate(-6.5846 2.25191) rotate(-17.8479) scale(51.0862 51.0862)">
<stop stop-color="#8EE1EE"/>
<stop offset="0.6169" stop-color="#5E8DEC"/>
<stop offset="0.6298" stop-color="#5F89E8"/>
<stop offset="0.745" stop-color="#6B64C7"/>
<stop offset="0.8386" stop-color="#714EB3"/>
<stop offset="0.8985" stop-color="#7446AC"/>
</radialGradient>
<radialGradient id="paint12_radial_7_468" cx="0" cy="0" r="1" gradientUnits="userSpaceOnUse" gradientTransform="translate(-6.58472 2.2489) rotate(-17.8479) scale(51.089 51.089)">
<stop stop-color="#8EE1EE"/>
<stop offset="0.6169" stop-color="#5E8DEC"/>
<stop offset="0.6298" stop-color="#5F89E8"/>
<stop offset="0.745" stop-color="#6B64C7"/>
<stop offset="0.8386" stop-color="#714EB3"/>
<stop offset="0.8985" stop-color="#7446AC"/>
</radialGradient>
<radialGradient id="paint13_radial_7_468" cx="0" cy="0" r="1" gradientUnits="userSpaceOnUse" gradientTransform="translate(-3.42431 9.58356) rotate(-17.8479) scale(37.5326 37.5326)">
<stop stop-color="#8EE1EE"/>
<stop offset="0.6169" stop-color="#5E8DEC"/>
<stop offset="0.6298" stop-color="#5F89E8"/>
<stop offset="0.745" stop-color="#6B64C7"/>
<stop offset="0.8386" stop-color="#714EB3"/>
<stop offset="0.8985" stop-color="#7446AC"/>
</radialGradient>
<radialGradient id="paint14_radial_7_468" cx="0" cy="0" r="1" gradientUnits="userSpaceOnUse" gradientTransform="translate(-3.11242 2.35722) rotate(-17.8479) scale(52.5742 52.5742)">
<stop stop-color="#8EE1EE"/>
<stop offset="0.6169" stop-color="#5E8DEC"/>
<stop offset="0.6298" stop-color="#5F89E8"/>
<stop offset="0.745" stop-color="#6B64C7"/>
<stop offset="0.8386" stop-color="#714EB3"/>
<stop offset="0.8985" stop-color="#7446AC"/>
</radialGradient>
<radialGradient id="paint15_radial_7_468" cx="0" cy="0" r="1" gradientUnits="userSpaceOnUse" gradientTransform="translate(-3.11164 2.35855) rotate(-17.8479) scale(52.5706 52.5706)">
<stop stop-color="#8EE1EE"/>
<stop offset="0.6169" stop-color="#5E8DEC"/>
<stop offset="0.6298" stop-color="#5F89E8"/>
<stop offset="0.745" stop-color="#6B64C7"/>
<stop offset="0.8386" stop-color="#714EB3"/>
<stop offset="0.8985" stop-color="#7446AC"/>
</radialGradient>
<radialGradient id="paint16_radial_7_468" cx="0" cy="0" r="1" gradientUnits="userSpaceOnUse" gradientTransform="translate(-3.1133 2.35537) rotate(-17.8479) scale(52.5776 52.5776)">
<stop stop-color="#8EE1EE"/>
<stop offset="0.6169" stop-color="#5E8DEC"/>
<stop offset="0.6298" stop-color="#5F89E8"/>
<stop offset="0.745" stop-color="#6B64C7"/>
<stop offset="0.8386" stop-color="#714EB3"/>
<stop offset="0.8985" stop-color="#7446AC"/>
</radialGradient>
<radialGradient id="paint17_radial_7_468" cx="0" cy="0" r="1" gradientUnits="userSpaceOnUse" gradientTransform="translate(-3.112 2.35881) rotate(-17.8479) scale(52.5721 52.5722)">
<stop stop-color="#8EE1EE"/>
<stop offset="0.6169" stop-color="#5E8DEC"/>
<stop offset="0.6298" stop-color="#5F89E8"/>
<stop offset="0.745" stop-color="#6B64C7"/>
<stop offset="0.8386" stop-color="#714EB3"/>
<stop offset="0.8985" stop-color="#7446AC"/>
</radialGradient>
<radialGradient id="paint18_radial_7_468" cx="0" cy="0" r="1" gradientUnits="userSpaceOnUse" gradientTransform="translate(-3.11284 2.35629) rotate(-17.8479) scale(52.5758 52.5759)">
<stop stop-color="#8EE1EE"/>
<stop offset="0.6169" stop-color="#5E8DEC"/>
<stop offset="0.6298" stop-color="#5F89E8"/>
<stop offset="0.745" stop-color="#6B64C7"/>
<stop offset="0.8386" stop-color="#714EB3"/>
<stop offset="0.8985" stop-color="#7446AC"/>
</radialGradient>
<radialGradient id="paint19_radial_7_468" cx="0" cy="0" r="1" gradientUnits="userSpaceOnUse" gradientTransform="translate(-3.11203 2.35997) rotate(-17.8479) scale(52.5714 52.5714)">
<stop stop-color="#8EE1EE"/>
<stop offset="0.6169" stop-color="#5E8DEC"/>
<stop offset="0.6298" stop-color="#5F89E8"/>
<stop offset="0.745" stop-color="#6B64C7"/>
<stop offset="0.8386" stop-color="#714EB3"/>
<stop offset="0.8985" stop-color="#7446AC"/>
</radialGradient>
<radialGradient id="paint20_radial_7_468" cx="0" cy="0" r="1" gradientUnits="userSpaceOnUse" gradientTransform="translate(-3.11344 2.35619) rotate(-17.8479) scale(52.5755 52.5755)">
<stop stop-color="#8EE1EE"/>
<stop offset="0.6169" stop-color="#5E8DEC"/>
<stop offset="0.6298" stop-color="#5F89E8"/>
<stop offset="0.745" stop-color="#6B64C7"/>
<stop offset="0.8386" stop-color="#714EB3"/>
<stop offset="0.8985" stop-color="#7446AC"/>
</radialGradient>
<radialGradient id="paint21_radial_7_468" cx="0" cy="0" r="1" gradientUnits="userSpaceOnUse" gradientTransform="translate(-4.23486 5.4245) rotate(-17.8479) scale(46.1117 46.1117)">
<stop stop-color="#8EE1EE"/>
<stop offset="0.6169" stop-color="#5E8DEC"/>
<stop offset="0.6298" stop-color="#5F89E8"/>
<stop offset="0.745" stop-color="#6B64C7"/>
<stop offset="0.8386" stop-color="#714EB3"/>
<stop offset="0.8985" stop-color="#7446AC"/>
</radialGradient>
<radialGradient id="paint22_radial_7_468" cx="0" cy="0" r="1" gradientUnits="userSpaceOnUse" gradientTransform="translate(3.91418 36.8688) rotate(-17.8481) scale(0.298622 0.298625)">
<stop stop-color="#8EE1EE"/>
<stop offset="0.6169" stop-color="#5E8DEC"/>
<stop offset="0.6298" stop-color="#5F89E8"/>
<stop offset="0.745" stop-color="#6B64C7"/>
<stop offset="0.8386" stop-color="#714EB3"/>
<stop offset="0.8985" stop-color="#7446AC"/>
</radialGradient>
<radialGradient id="paint23_radial_7_468" cx="0" cy="0" r="1" gradientUnits="userSpaceOnUse" gradientTransform="translate(4.49098 40.1949) rotate(-17.8477) scale(0.298619 0.298616)">
<stop stop-color="#8EE1EE"/>
<stop offset="0.6169" stop-color="#5E8DEC"/>
<stop offset="0.6298" stop-color="#5F89E8"/>
<stop offset="0.745" stop-color="#6B64C7"/>
<stop offset="0.8386" stop-color="#714EB3"/>
<stop offset="0.8985" stop-color="#7446AC"/>
</radialGradient>
<radialGradient id="paint24_radial_7_468" cx="0" cy="0" r="1" gradientUnits="userSpaceOnUse" gradientTransform="translate(8.13982 38.7457) rotate(-17.8477) scale(0.298619 0.298616)">
<stop stop-color="#8EE1EE"/>
<stop offset="0.6169" stop-color="#5E8DEC"/>
<stop offset="0.6298" stop-color="#5F89E8"/>
<stop offset="0.745" stop-color="#6B64C7"/>
<stop offset="0.8386" stop-color="#714EB3"/>
<stop offset="0.8985" stop-color="#7446AC"/>
</radialGradient>
<radialGradient id="paint25_radial_7_468" cx="0" cy="0" r="1" gradientUnits="userSpaceOnUse" gradientTransform="translate(12.7024 28.717) rotate(-17.8483) scale(0.29862 0.298625)">
<stop stop-color="#8EE1EE"/>
<stop offset="0.6169" stop-color="#5E8DEC"/>
<stop offset="0.6298" stop-color="#5F89E8"/>
<stop offset="0.745" stop-color="#6B64C7"/>
<stop offset="0.8386" stop-color="#714EB3"/>
<stop offset="0.8985" stop-color="#7446AC"/>
</radialGradient>
<radialGradient id="paint26_radial_7_468" cx="0" cy="0" r="1" gradientUnits="userSpaceOnUse" gradientTransform="translate(14.2918 28.3698) rotate(-17.8476) scale(0.298621 0.298617)">
<stop stop-color="#8EE1EE"/>
<stop offset="0.6169" stop-color="#5E8DEC"/>
<stop offset="0.6298" stop-color="#5F89E8"/>
<stop offset="0.745" stop-color="#6B64C7"/>
<stop offset="0.8386" stop-color="#714EB3"/>
<stop offset="0.8985" stop-color="#7446AC"/>
</radialGradient>
<radialGradient id="paint27_radial_7_468" cx="0" cy="0" r="1" gradientUnits="userSpaceOnUse" gradientTransform="translate(18.8115 20.9339) rotate(-17.8476) scale(0.298621 0.298617)">
<stop stop-color="#8EE1EE"/>
<stop offset="0.6169" stop-color="#5E8DEC"/>
<stop offset="0.6298" stop-color="#5F89E8"/>
<stop offset="0.745" stop-color="#6B64C7"/>
<stop offset="0.8386" stop-color="#714EB3"/>
<stop offset="0.8985" stop-color="#7446AC"/>
</radialGradient>
<radialGradient id="paint28_radial_7_468" cx="0" cy="0" r="1" gradientUnits="userSpaceOnUse" gradientTransform="translate(11.5246 42.1005) rotate(-17.8483) scale(0.29862 0.298625)">
<stop stop-color="#8EE1EE"/>
<stop offset="0.6169" stop-color="#5E8DEC"/>
<stop offset="0.6298" stop-color="#5F89E8"/>
<stop offset="0.745" stop-color="#6B64C7"/>
<stop offset="0.8386" stop-color="#714EB3"/>
<stop offset="0.8985" stop-color="#7446AC"/>
</radialGradient>
<radialGradient id="paint29_radial_7_468" cx="0" cy="0" r="1" gradientUnits="userSpaceOnUse" gradientTransform="translate(13.5687 42.4848) rotate(-17.8476) scale(0.298621 0.298617)">
<stop stop-color="#8EE1EE"/>
<stop offset="0.6169" stop-color="#5E8DEC"/>
<stop offset="0.6298" stop-color="#5F89E8"/>
<stop offset="0.745" stop-color="#6B64C7"/>
<stop offset="0.8386" stop-color="#714EB3"/>
<stop offset="0.8985" stop-color="#7446AC"/>
</radialGradient>
<radialGradient id="paint30_radial_7_468" cx="0" cy="0" r="1" gradientUnits="userSpaceOnUse" gradientTransform="translate(1.90279 12.3859) rotate(-17.8477) scale(0.298619 0.298616)">
<stop stop-color="#8EE1EE"/>
<stop offset="0.6169" stop-color="#5E8DEC"/>
<stop offset="0.6298" stop-color="#5F89E8"/>
<stop offset="0.745" stop-color="#6B64C7"/>
<stop offset="0.8386" stop-color="#714EB3"/>
<stop offset="0.8985" stop-color="#7446AC"/>
</radialGradient>
<radialGradient id="paint31_radial_7_468" cx="0" cy="0" r="1" gradientUnits="userSpaceOnUse" gradientTransform="translate(3.32108 10.9966) rotate(-17.8477) scale(0.298619 0.298616)">
<stop stop-color="#8EE1EE"/>
<stop offset="0.6169" stop-color="#5E8DEC"/>
<stop offset="0.6298" stop-color="#5F89E8"/>
<stop offset="0.745" stop-color="#6B64C7"/>
<stop offset="0.8386" stop-color="#714EB3"/>
<stop offset="0.8985" stop-color="#7446AC"/>
</radialGradient>
</defs>
</svg>
