<svg width="62" height="62" viewBox="0 0 62 62" fill="none" xmlns="http://www.w3.org/2000/svg">
<path d="M52.8676 9.8249C52.523 9.48398 52.1139 9.21355 51.6636 9.02905C51.2134 8.84454 50.7308 8.74958 50.2435 8.74958C49.7561 8.74958 49.2736 8.84454 48.8233 9.02905C48.3731 9.21355 47.964 9.48398 47.6194 9.8249C47.2748 10.1658 47.0014 10.5706 46.8149 11.016C46.6284 11.4614 46.5324 11.9388 46.5324 12.421C46.5324 12.9031 46.6284 13.3805 46.8149 13.8259C47.0014 14.2714 47.2748 14.6761 47.6194 15.017C50.9078 18.2691 53.1476 22.413 54.0553 26.9246C54.9631 31.4361 54.4981 36.1126 52.7191 40.3626C50.9401 44.6127 47.9271 48.2453 44.061 50.8012C40.195 53.357 35.6497 54.7212 31 54.7212C26.3502 54.7212 21.8049 53.357 17.9389 50.8012C14.0729 48.2453 11.0599 44.6127 9.28088 40.3626C7.50189 36.1126 7.03687 31.4361 7.94462 26.9246C8.85237 22.413 11.0921 18.2691 14.3806 15.017C14.7252 14.6761 14.9985 14.2714 15.185 13.8259C15.3715 13.3805 15.4675 12.9031 15.4675 12.421C15.4675 11.9388 15.3715 11.4614 15.185 11.016C14.9985 10.5706 14.7252 10.1658 14.3806 9.8249C14.036 9.48398 13.6269 9.21355 13.1766 9.02905C12.7264 8.84454 12.2438 8.74958 11.7565 8.74958C11.2691 8.74958 10.7866 8.84454 10.3363 9.02905C9.88607 9.21355 9.47696 9.48398 9.13236 9.8249C4.83871 14.0982 1.92044 19.5337 0.745668 25.4458C-0.429099 31.358 0.192265 37.4819 2.53138 43.0451C4.87049 48.6082 8.82257 53.3615 13.8891 56.7052C18.9556 60.0489 24.9096 61.8333 31 61.8333C37.0904 61.8333 43.0444 60.0489 48.1109 56.7052C53.1774 53.3615 57.1295 48.6082 59.4686 43.0451C61.8077 37.4819 62.429 31.358 61.2543 25.4458C60.0795 19.5337 57.1612 14.0982 52.8676 9.8249Z" fill="#BDA8F2"/>
<path d="M27.2936 3.83341C27.2936 1.80832 28.953 0.166656 31 0.166656C33.0469 0.166656 34.7063 1.80832 34.7063 3.83341V30.234C34.7063 32.2591 33.0469 33.9008 31 33.9008C28.953 33.9008 27.2936 32.2591 27.2936 30.234V3.83341Z" fill="#BDA8F2"/>
</svg>
