<svg width="28" height="26" viewBox="0 0 28 26" fill="none" xmlns="http://www.w3.org/2000/svg">
<path d="M26.8309 1.03466C26.475 0.738581 26.0454 0.544532 25.588 0.473169C25.1306 0.401806 24.6624 0.455799 24.2332 0.629401L1.83207 9.67359C1.35301 9.87069 0.94522 10.2088 0.662825 10.6431C0.380429 11.0774 0.236784 11.5873 0.250956 12.1051C0.265128 12.623 0.436446 13.1242 0.742172 13.5424C1.0479 13.9606 1.47357 14.2759 1.9627 14.4465L6.49395 16.0225L9.01957 24.3745C9.05389 24.4861 9.10371 24.5923 9.16755 24.69C9.17724 24.705 9.1909 24.7162 9.2012 24.7307C9.27495 24.8336 9.36409 24.9246 9.46549 25.0004C9.49432 25.0224 9.52194 25.043 9.55276 25.0625C9.67143 25.1413 9.80285 25.1988 9.94117 25.2327L9.95597 25.2339L9.96436 25.2375C10.0475 25.2544 10.1322 25.263 10.217 25.2631C10.2252 25.2631 10.2325 25.2592 10.2405 25.2591C10.3686 25.2569 10.4956 25.2348 10.6169 25.1937C10.6451 25.1841 10.6693 25.168 10.6967 25.1564C10.7872 25.1189 10.8729 25.0709 10.9521 25.0132C11.0155 24.9598 11.0789 24.9064 11.1423 24.853L14.52 21.1237L19.5579 25.0263C20.0014 25.3716 20.5473 25.5593 21.1094 25.5598C21.6984 25.559 22.2692 25.3558 22.7261 24.9842C23.1831 24.6126 23.4984 24.0952 23.6192 23.5187L27.6975 3.49805C27.79 3.04745 27.7581 2.5802 27.6055 2.14629C27.4528 1.71238 27.1851 1.32813 26.8309 1.03466ZM10.7127 16.4204C10.5394 16.593 10.4209 16.813 10.3721 17.0527L9.98524 18.9327L9.00516 15.6914L14.0867 13.0452L10.7127 16.4204ZM21.0899 23.05L15.1365 18.4382C14.8874 18.2457 14.575 18.1542 14.2614 18.1818C13.9479 18.2094 13.6562 18.3541 13.4446 18.5871L12.3629 19.7811L12.7452 17.923L21.5989 9.0693C21.8102 8.85825 21.939 8.5785 21.9619 8.2807C21.9847 7.98291 21.9002 7.68678 21.7235 7.44595C21.5469 7.20511 21.2898 7.0355 20.9989 6.96784C20.708 6.90019 20.4025 6.93895 20.1377 7.07711L7.43114 13.6929L2.77569 11.9893L25.2488 2.99875L21.0899 23.05Z" fill="white"/>
</svg>
